<?xml version="1.0" encoding="UTF-8" standalone="no"?>
<!DOCTYPE svg PUBLIC "-//W3C//DTD SVG 1.1//EN"
 "http://www.w3.org/Graphics/SVG/1.1/DTD/svg11.dtd">
<!-- Generated by graphviz version 2.38.0 (20140413.2041)
 -->
<!-- Title: Modules/TOF/src/runTOF.cxx Pages: 1 -->
<svg width="2428pt" height="330pt"
 viewBox="0.00 0.00 2427.50 330.00" xmlns="http://www.w3.org/2000/svg" xmlns:xlink="http://www.w3.org/1999/xlink">
<g id="graph0" class="graph" transform="scale(1 1) rotate(0) translate(4 326)">
<title>Modules/TOF/src/runTOF.cxx</title>
<!-- Node1 -->
<g id="node1" class="node"><title>Node1</title>
<polygon fill="#bfbfbf" stroke="black" points="773.5,-302.5 773.5,-321.5 920.5,-321.5 920.5,-302.5 773.5,-302.5"/>
<text text-anchor="middle" x="847" y="-309.5" font-family="Helvetica,sans-Serif" font-size="10.00">Modules/TOF/src/runTOF.cxx</text>
</g>
<!-- Node2 -->
<g id="node2" class="node"><title>Node2</title>
<polygon fill="none" stroke="#bfbfbf" points="0,-246.5 0,-265.5 138,-265.5 138,-246.5 0,-246.5"/>
<text text-anchor="middle" x="69" y="-253.5" font-family="Helvetica,sans-Serif" font-size="10.00">Framework/DataSampling.h</text>
</g>
<!-- Node1&#45;&gt;Node2 -->
<g id="edge1" class="edge"><title>Node1&#45;&gt;Node2</title>
<path fill="none" stroke="midnightblue" d="M773.37,-307.284C646.415,-300.642 378.167,-285.575 152,-266 150.881,-265.903 149.753,-265.804 148.619,-265.703"/>
<polygon fill="midnightblue" stroke="midnightblue" points="148.551,-262.181 138.27,-264.738 147.902,-269.151 148.551,-262.181"/>
</g>
<!-- Node3 -->
<g id="node3" class="node"><title>Node3</title>
<g id="a_node3"><a xlink:href="InfrastructureGenerator_8h.html" target="_top" xlink:title="QualityControl/Infrastructure\lGenerator.h">
<polygon fill="none" stroke="black" points="554,-179.5 554,-209.5 694,-209.5 694,-179.5 554,-179.5"/>
<text text-anchor="start" x="562" y="-197.5" font-family="Helvetica,sans-Serif" font-size="10.00">QualityControl/Infrastructure</text>
<text text-anchor="middle" x="624" y="-186.5" font-family="Helvetica,sans-Serif" font-size="10.00">Generator.h</text>
</a>
</g>
</g>
<!-- Node1&#45;&gt;Node3 -->
<g id="edge2" class="edge"><title>Node1&#45;&gt;Node3</title>
<path fill="none" stroke="midnightblue" d="M830.239,-302.319C794.269,-283.689 708.983,-239.516 660.094,-214.194"/>
<polygon fill="midnightblue" stroke="midnightblue" points="661.607,-211.037 651.118,-209.545 658.388,-217.252 661.607,-211.037"/>
</g>
<!-- Node5 -->
<g id="node5" class="node"><title>Node5</title>
<polygon fill="none" stroke="#bfbfbf" points="1203.5,-6 1203.5,-25 1244.5,-25 1244.5,-6 1203.5,-6"/>
<text text-anchor="middle" x="1224" y="-13" font-family="Helvetica,sans-Serif" font-size="10.00">string</text>
</g>
<!-- Node1&#45;&gt;Node5 -->
<g id="edge7" class="edge"><title>Node1&#45;&gt;Node5</title>
<path fill="none" stroke="midnightblue" d="M773.24,-305.396C604.344,-291.576 204,-252.776 204,-195.5 204,-195.5 204,-195.5 204,-132 204,-29.8241 1022.56,-18.0226 1193.1,-16.6726"/>
<polygon fill="midnightblue" stroke="midnightblue" points="1193.19,-20.1722 1203.16,-16.5994 1193.14,-13.1724 1193.19,-20.1722"/>
</g>
<!-- Node8 -->
<g id="node8" class="node"><title>Node8</title>
<polygon fill="none" stroke="#bfbfbf" points="1447.5,-246.5 1447.5,-265.5 1544.5,-265.5 1544.5,-246.5 1447.5,-246.5"/>
<text text-anchor="middle" x="1496" y="-253.5" font-family="Helvetica,sans-Serif" font-size="10.00">fairlogger/Logger.h</text>
</g>
<!-- Node1&#45;&gt;Node8 -->
<g id="edge8" class="edge"><title>Node1&#45;&gt;Node8</title>
<path fill="none" stroke="midnightblue" d="M920.555,-307.322C1030.75,-301.388 1245.43,-288.187 1437.23,-266.126"/>
<polygon fill="midnightblue" stroke="midnightblue" points="1437.69,-269.597 1447.22,-264.968 1436.88,-262.644 1437.69,-269.597"/>
</g>
<!-- Node9 -->
<g id="node9" class="node"><title>Node9</title>
<polygon fill="none" stroke="#bfbfbf" points="270,-123.5 270,-142.5 320,-142.5 320,-123.5 270,-123.5"/>
<text text-anchor="middle" x="295" y="-130.5" font-family="Helvetica,sans-Serif" font-size="10.00">TH1F.h</text>
</g>
<!-- Node1&#45;&gt;Node9 -->
<g id="edge9" class="edge"><title>Node1&#45;&gt;Node9</title>
<path fill="none" stroke="midnightblue" d="M820.376,-302.463C729.597,-273.354 432.191,-177.991 329.915,-145.196"/>
<polygon fill="midnightblue" stroke="midnightblue" points="330.676,-141.764 320.085,-142.043 328.538,-148.43 330.676,-141.764"/>
</g>
<!-- Node10 -->
<g id="node10" class="node"><title>Node10</title>
<polygon fill="none" stroke="#bfbfbf" points="1186,-123.5 1186,-142.5 1238,-142.5 1238,-123.5 1186,-123.5"/>
<text text-anchor="middle" x="1212" y="-130.5" font-family="Helvetica,sans-Serif" font-size="10.00">memory</text>
</g>
<!-- Node1&#45;&gt;Node10 -->
<g id="edge10" class="edge"><title>Node1&#45;&gt;Node10</title>
<path fill="none" stroke="midnightblue" d="M881.371,-302.47C910.64,-294.653 953.472,-281.894 989,-266 1067.32,-230.961 1152.71,-174.871 1191.17,-148.541"/>
<polygon fill="midnightblue" stroke="midnightblue" points="1193.24,-151.365 1199.48,-142.808 1189.26,-145.601 1193.24,-151.365"/>
</g>
<!-- Node11 -->
<g id="node11" class="node"><title>Node11</title>
<polygon fill="none" stroke="#bfbfbf" points="1562.5,-246.5 1562.5,-265.5 1611.5,-265.5 1611.5,-246.5 1562.5,-246.5"/>
<text text-anchor="middle" x="1587" y="-253.5" font-family="Helvetica,sans-Serif" font-size="10.00">random</text>
</g>
<!-- Node1&#45;&gt;Node11 -->
<g id="edge11" class="edge"><title>Node1&#45;&gt;Node11</title>
<path fill="none" stroke="midnightblue" d="M920.706,-311.015C1047.89,-310.009 1316.74,-303.353 1552.12,-265.79"/>
<polygon fill="midnightblue" stroke="midnightblue" points="1552.93,-269.205 1562.24,-264.152 1551.81,-262.295 1552.93,-269.205"/>
</g>
<!-- Node12 -->
<g id="node12" class="node"><title>Node12</title>
<polygon fill="none" stroke="#bfbfbf" points="1630,-246.5 1630,-265.5 1790,-265.5 1790,-246.5 1630,-246.5"/>
<text text-anchor="middle" x="1710" y="-253.5" font-family="Helvetica,sans-Serif" font-size="10.00">Framework/runDataProcessing.h</text>
</g>
<!-- Node1&#45;&gt;Node12 -->
<g id="edge12" class="edge"><title>Node1&#45;&gt;Node12</title>
<path fill="none" stroke="midnightblue" d="M920.611,-307.734C1056.39,-301.487 1355.65,-286.675 1619.39,-266.013"/>
<polygon fill="midnightblue" stroke="midnightblue" points="1619.85,-269.487 1629.54,-265.213 1619.3,-262.509 1619.85,-269.487"/>
</g>
<!-- Node13 -->
<g id="node13" class="node"><title>Node13</title>
<g id="a_node13"><a xlink:href="CheckRunner_8h.html" target="_top" xlink:title="QualityControl/CheckRunner.h">
<polygon fill="none" stroke="black" points="1280,-246.5 1280,-265.5 1430,-265.5 1430,-246.5 1280,-246.5"/>
<text text-anchor="middle" x="1355" y="-253.5" font-family="Helvetica,sans-Serif" font-size="10.00">QualityControl/CheckRunner.h</text>
</a>
</g>
</g>
<!-- Node1&#45;&gt;Node13 -->
<g id="edge13" class="edge"><title>Node1&#45;&gt;Node13</title>
<path fill="none" stroke="midnightblue" d="M920.596,-303.177C1013.15,-293.338 1171.75,-276.479 1269.56,-266.082"/>
<polygon fill="midnightblue" stroke="midnightblue" points="1270.14,-269.54 1279.71,-265.003 1269.4,-262.58 1270.14,-269.54"/>
</g>
<!-- Node36 -->
<g id="node36" class="node"><title>Node36</title>
<g id="a_node36"><a xlink:href="runnerUtils_8h.html" target="_top" xlink:title="QualityControl/runnerUtils.h">
<polygon fill="none" stroke="black" points="38.5,-67.5 38.5,-86.5 175.5,-86.5 175.5,-67.5 38.5,-67.5"/>
<text text-anchor="middle" x="107" y="-74.5" font-family="Helvetica,sans-Serif" font-size="10.00">QualityControl/runnerUtils.h</text>
</a>
</g>
</g>
<!-- Node1&#45;&gt;Node36 -->
<g id="edge70" class="edge"><title>Node1&#45;&gt;Node36</title>
<path fill="none" stroke="midnightblue" d="M773.46,-310.199C611.944,-307.839 236.828,-298.849 190,-266 132.312,-225.533 114.234,-135.607 108.984,-96.6233"/>
<polygon fill="midnightblue" stroke="midnightblue" points="112.455,-96.1716 107.779,-86.6646 105.506,-97.0127 112.455,-96.1716"/>
</g>
<!-- Node38 -->
<g id="node38" class="node"><title>Node38</title>
<g id="a_node38"><a xlink:href="ExamplePrinterSpec_8h.html" target="_top" xlink:title="QualityControl/ExamplePrinter\lSpec.h">
<polygon fill="none" stroke="black" points="712.5,-179.5 712.5,-209.5 861.5,-209.5 861.5,-179.5 712.5,-179.5"/>
<text text-anchor="start" x="720.5" y="-197.5" font-family="Helvetica,sans-Serif" font-size="10.00">QualityControl/ExamplePrinter</text>
<text text-anchor="middle" x="787" y="-186.5" font-family="Helvetica,sans-Serif" font-size="10.00">Spec.h</text>
</a>
</g>
</g>
<!-- Node1&#45;&gt;Node38 -->
<g id="edge74" class="edge"><title>Node1&#45;&gt;Node38</title>
<path fill="none" stroke="midnightblue" d="M841.823,-302.48C836.432,-293.508 827.836,-278.92 821,-266 812.818,-250.536 804.266,-232.794 797.786,-218.978"/>
<polygon fill="midnightblue" stroke="midnightblue" points="800.861,-217.289 793.468,-209.699 794.514,-220.242 800.861,-217.289"/>
</g>
<!-- Node41 -->
<g id="node41" class="node"><title>Node41</title>
<g id="a_node41"><a xlink:href="DataProducer_8h.html" target="_top" xlink:title="QualityControl/DataProducer.h">
<polygon fill="none" stroke="black" points="830,-246.5 830,-265.5 980,-265.5 980,-246.5 830,-246.5"/>
<text text-anchor="middle" x="905" y="-253.5" font-family="Helvetica,sans-Serif" font-size="10.00">QualityControl/DataProducer.h</text>
</a>
</g>
</g>
<!-- Node1&#45;&gt;Node41 -->
<g id="edge83" class="edge"><title>Node1&#45;&gt;Node41</title>
<path fill="none" stroke="midnightblue" d="M856.319,-302.324C864.893,-294.341 877.812,-282.313 888.188,-272.653"/>
<polygon fill="midnightblue" stroke="midnightblue" points="890.578,-275.21 895.512,-265.834 885.808,-270.086 890.578,-275.21"/>
</g>
<!-- Node4 -->
<g id="node4" class="node"><title>Node4</title>
<polygon fill="none" stroke="#bfbfbf" points="1256,-123.5 1256,-142.5 1300,-142.5 1300,-123.5 1256,-123.5"/>
<text text-anchor="middle" x="1278" y="-130.5" font-family="Helvetica,sans-Serif" font-size="10.00">vector</text>
</g>
<!-- Node3&#45;&gt;Node4 -->
<g id="edge3" class="edge"><title>Node3&#45;&gt;Node4</title>
<path fill="none" stroke="midnightblue" d="M694.146,-180.191C697.133,-179.761 700.094,-179.362 703,-179 940.165,-149.488 1006.56,-184.054 1245.74,-142.832"/>
<polygon fill="midnightblue" stroke="midnightblue" points="1246.54,-146.246 1255.78,-141.074 1245.33,-139.35 1246.54,-146.246"/>
</g>
<!-- Node3&#45;&gt;Node5 -->
<g id="edge4" class="edge"><title>Node3&#45;&gt;Node5</title>
<path fill="none" stroke="midnightblue" d="M553.937,-191.06C437.844,-185.686 222.001,-169.367 261,-123 322.524,-49.8524 1033.94,-22.6405 1192.71,-17.4577"/>
<polygon fill="midnightblue" stroke="midnightblue" points="1193.29,-20.9411 1203.17,-17.1223 1193.07,-13.9447 1193.29,-20.9411"/>
</g>
<!-- Node6 -->
<g id="node6" class="node"><title>Node6</title>
<polygon fill="none" stroke="#bfbfbf" points="338,-123.5 338,-142.5 478,-142.5 478,-123.5 338,-123.5"/>
<text text-anchor="middle" x="408" y="-130.5" font-family="Helvetica,sans-Serif" font-size="10.00">Framework/WorkflowSpec.h</text>
</g>
<!-- Node3&#45;&gt;Node6 -->
<g id="edge5" class="edge"><title>Node3&#45;&gt;Node6</title>
<path fill="none" stroke="midnightblue" d="M573.085,-179.475C535.169,-169.03 484.081,-154.958 448.829,-145.247"/>
<polygon fill="midnightblue" stroke="midnightblue" points="449.451,-141.788 438.88,-142.506 447.592,-148.536 449.451,-141.788"/>
</g>
<!-- Node7 -->
<g id="node7" class="node"><title>Node7</title>
<polygon fill="none" stroke="#bfbfbf" points="928,-123.5 928,-142.5 1092,-142.5 1092,-123.5 928,-123.5"/>
<text text-anchor="middle" x="1010" y="-130.5" font-family="Helvetica,sans-Serif" font-size="10.00">Framework/DataProcessorSpec.h</text>
</g>
<!-- Node3&#45;&gt;Node7 -->
<g id="edge6" class="edge"><title>Node3&#45;&gt;Node7</title>
<path fill="none" stroke="midnightblue" d="M694.188,-180.482C697.164,-179.973 700.111,-179.477 703,-179 782.925,-165.812 874.884,-152.59 937.161,-143.925"/>
<polygon fill="midnightblue" stroke="midnightblue" points="937.854,-147.362 947.278,-142.521 936.892,-140.428 937.854,-147.362"/>
</g>
<!-- Node13&#45;&gt;Node4 -->
<g id="edge18" class="edge"><title>Node13&#45;&gt;Node4</title>
<path fill="none" stroke="midnightblue" d="M1314.85,-246.429C1295.03,-239.953 1272.86,-228.83 1261,-210 1249.78,-192.19 1258.49,-167.933 1267.05,-151.659"/>
<polygon fill="midnightblue" stroke="midnightblue" points="1270.25,-153.105 1272.17,-142.686 1264.17,-149.634 1270.25,-153.105"/>
</g>
<!-- Node13&#45;&gt;Node5 -->
<g id="edge16" class="edge"><title>Node13&#45;&gt;Node5</title>
<path fill="none" stroke="midnightblue" d="M1279.61,-251.427C1246.45,-246.125 1209.37,-234.551 1184,-210 1155.49,-182.409 1153.93,-161.377 1164,-123 1173.06,-88.4657 1196.12,-53.3271 1210.87,-33.2927"/>
<polygon fill="midnightblue" stroke="midnightblue" points="1213.75,-35.2949 1216.98,-25.207 1208.16,-31.074 1213.75,-35.2949"/>
</g>
<!-- Node13&#45;&gt;Node7 -->
<g id="edge25" class="edge"><title>Node13&#45;&gt;Node7</title>
<path fill="none" stroke="midnightblue" d="M1280,-251.009C1229.04,-246.039 1161.15,-234.907 1106,-210 1073.74,-195.432 1042.84,-167.665 1025.17,-150.031"/>
<polygon fill="midnightblue" stroke="midnightblue" points="1027.52,-147.428 1018.03,-142.725 1022.51,-152.322 1027.52,-147.428"/>
</g>
<!-- Node13&#45;&gt;Node10 -->
<g id="edge15" class="edge"><title>Node13&#45;&gt;Node10</title>
<path fill="none" stroke="midnightblue" d="M1320.65,-246.367C1298.88,-239.473 1271.29,-227.94 1252,-210 1234.98,-194.174 1223.86,-169.448 1217.76,-152.525"/>
<polygon fill="midnightblue" stroke="midnightblue" points="1220.97,-151.072 1214.47,-142.703 1214.33,-153.297 1220.97,-151.072"/>
</g>
<!-- Node14 -->
<g id="node14" class="node"><title>Node14</title>
<polygon fill="none" stroke="#bfbfbf" points="1458,-185 1458,-204 1504,-204 1504,-185 1458,-185"/>
<text text-anchor="middle" x="1481" y="-192" font-family="Helvetica,sans-Serif" font-size="10.00">chrono</text>
</g>
<!-- Node13&#45;&gt;Node14 -->
<g id="edge14" class="edge"><title>Node13&#45;&gt;Node14</title>
<path fill="none" stroke="midnightblue" d="M1373.05,-246.475C1394.2,-236.49 1429.44,-219.848 1453.88,-208.307"/>
<polygon fill="midnightblue" stroke="midnightblue" points="1455.43,-211.444 1462.98,-204.009 1452.44,-205.114 1455.43,-211.444"/>
</g>
<!-- Node15 -->
<g id="node15" class="node"><title>Node15</title>
<polygon fill="none" stroke="#bfbfbf" points="1942.5,-6 1942.5,-25 1977.5,-25 1977.5,-6 1942.5,-6"/>
<text text-anchor="middle" x="1960" y="-13" font-family="Helvetica,sans-Serif" font-size="10.00">map</text>
</g>
<!-- Node13&#45;&gt;Node15 -->
<g id="edge17" class="edge"><title>Node13&#45;&gt;Node15</title>
<path fill="none" stroke="midnightblue" d="M1430.29,-246.805C1520.63,-236.654 1662.88,-219.538 1686,-210 1707.12,-201.288 1705.7,-187.248 1727,-179 1808.78,-147.338 2060.88,-207.779 2120,-143 2138.38,-122.854 2116.5,-86.5165 2096,-67 2065.94,-38.3891 2018.24,-25.6879 1988.05,-20.2687"/>
<polygon fill="midnightblue" stroke="midnightblue" points="1988.23,-16.7503 1977.79,-18.5856 1987.09,-23.658 1988.23,-16.7503"/>
</g>
<!-- Node16 -->
<g id="node16" class="node"><title>Node16</title>
<polygon fill="none" stroke="#bfbfbf" points="1736,-185 1736,-204 1814,-204 1814,-185 1736,-185"/>
<text text-anchor="middle" x="1775" y="-192" font-family="Helvetica,sans-Serif" font-size="10.00">unordered_set</text>
</g>
<!-- Node13&#45;&gt;Node16 -->
<g id="edge19" class="edge"><title>Node13&#45;&gt;Node16</title>
<path fill="none" stroke="midnightblue" d="M1429.48,-246.454C1528.43,-235.011 1694.05,-215.506 1722,-210 1726.83,-209.047 1731.88,-207.889 1736.84,-206.646"/>
<polygon fill="midnightblue" stroke="midnightblue" points="1738.07,-209.944 1746.85,-204.017 1736.29,-203.174 1738.07,-209.944"/>
</g>
<!-- Node17 -->
<g id="node17" class="node"><title>Node17</title>
<polygon fill="none" stroke="#bfbfbf" points="1832,-185 1832,-204 1924,-204 1924,-185 1832,-185"/>
<text text-anchor="middle" x="1878" y="-192" font-family="Helvetica,sans-Serif" font-size="10.00">Common/Timer.h</text>
</g>
<!-- Node13&#45;&gt;Node17 -->
<g id="edge20" class="edge"><title>Node13&#45;&gt;Node17</title>
<path fill="none" stroke="midnightblue" d="M1430.1,-246.807C1432.76,-246.532 1435.4,-246.262 1438,-246 1608.99,-228.736 1653.78,-240.007 1823,-210 1828.41,-209.041 1834.06,-207.814 1839.6,-206.481"/>
<polygon fill="midnightblue" stroke="midnightblue" points="1840.54,-209.855 1849.37,-204.002 1838.81,-203.07 1840.54,-209.855"/>
</g>
<!-- Node18 -->
<g id="node18" class="node"><title>Node18</title>
<polygon fill="none" stroke="#bfbfbf" points="812,-123.5 812,-142.5 910,-142.5 910,-123.5 812,-123.5"/>
<text text-anchor="middle" x="861" y="-130.5" font-family="Helvetica,sans-Serif" font-size="10.00">Framework/Task.h</text>
</g>
<!-- Node13&#45;&gt;Node18 -->
<g id="edge21" class="edge"><title>Node13&#45;&gt;Node18</title>
<path fill="none" stroke="midnightblue" d="M1279.77,-248.443C1218.51,-241.979 1130.18,-230.09 1055,-210 993.407,-193.54 924.669,-163.721 887.819,-146.739"/>
<polygon fill="midnightblue" stroke="midnightblue" points="889.275,-143.557 878.732,-142.513 886.323,-149.904 889.275,-143.557"/>
</g>
<!-- Node19 -->
<g id="node19" class="node"><title>Node19</title>
<polygon fill="none" stroke="#bfbfbf" points="1942.5,-185 1942.5,-204 2059.5,-204 2059.5,-185 1942.5,-185"/>
<text text-anchor="middle" x="2001" y="-192" font-family="Helvetica,sans-Serif" font-size="10.00">Headers/DataHeader.h</text>
</g>
<!-- Node13&#45;&gt;Node19 -->
<g id="edge22" class="edge"><title>Node13&#45;&gt;Node19</title>
<path fill="none" stroke="midnightblue" d="M1430.09,-246.737C1432.76,-246.482 1435.4,-246.235 1438,-246 1657.68,-226.107 1714.62,-241.074 1933,-210 1940.31,-208.96 1948.01,-207.588 1955.5,-206.103"/>
<polygon fill="midnightblue" stroke="midnightblue" points="1956.44,-209.484 1965.52,-204.029 1955.02,-202.629 1956.44,-209.484"/>
</g>
<!-- Node20 -->
<g id="node20" class="node"><title>Node20</title>
<polygon fill="none" stroke="#bfbfbf" points="2077.5,-185 2077.5,-204 2228.5,-204 2228.5,-185 2077.5,-185"/>
<text text-anchor="middle" x="2153" y="-192" font-family="Helvetica,sans-Serif" font-size="10.00">Monitoring/MonitoringFactory.h</text>
</g>
<!-- Node13&#45;&gt;Node20 -->
<g id="edge23" class="edge"><title>Node13&#45;&gt;Node20</title>
<path fill="none" stroke="midnightblue" d="M1430.08,-246.685C1432.76,-246.444 1435.4,-246.215 1438,-246 1717.95,-222.852 1789.92,-241.943 2069,-210 2078.71,-208.888 2089,-207.385 2098.93,-205.766"/>
<polygon fill="midnightblue" stroke="midnightblue" points="2099.83,-209.165 2109.1,-204.049 2098.66,-202.262 2099.83,-209.165"/>
</g>
<!-- Node21 -->
<g id="node21" class="node"><title>Node21</title>
<polygon fill="none" stroke="#bfbfbf" points="2246.5,-179.5 2246.5,-209.5 2381.5,-209.5 2381.5,-179.5 2246.5,-179.5"/>
<text text-anchor="start" x="2254.5" y="-197.5" font-family="Helvetica,sans-Serif" font-size="10.00">Configuration/Configuration</text>
<text text-anchor="middle" x="2314" y="-186.5" font-family="Helvetica,sans-Serif" font-size="10.00">Interface.h</text>
</g>
<!-- Node13&#45;&gt;Node21 -->
<g id="edge24" class="edge"><title>Node13&#45;&gt;Node21</title>
<path fill="none" stroke="midnightblue" d="M1430.08,-246.644C1432.75,-246.415 1435.4,-246.199 1438,-246 1789.58,-219.055 1882.78,-250.857 2236.13,-210.114"/>
<polygon fill="midnightblue" stroke="midnightblue" points="2236.59,-213.584 2246.12,-208.95 2235.78,-206.631 2236.59,-213.584"/>
</g>
<!-- Node22 -->
<g id="node22" class="node"><title>Node22</title>
<g id="a_node22"><a xlink:href="CheckInterface_8h.html" target="_top" xlink:title="QualityControl/CheckInterface.h">
<polygon fill="none" stroke="black" points="1917.5,-123.5 1917.5,-142.5 2074.5,-142.5 2074.5,-123.5 1917.5,-123.5"/>
<text text-anchor="middle" x="1996" y="-130.5" font-family="Helvetica,sans-Serif" font-size="10.00">QualityControl/CheckInterface.h</text>
</a>
</g>
</g>
<!-- Node13&#45;&gt;Node22 -->
<g id="edge26" class="edge"><title>Node13&#45;&gt;Node22</title>
<path fill="none" stroke="midnightblue" d="M1421.72,-246.468C1502.17,-235.924 1629.24,-218.353 1650,-210 1672.19,-201.07 1671.79,-187.892 1694,-179 1714.37,-170.843 1834.75,-154.41 1917.23,-143.821"/>
<polygon fill="midnightblue" stroke="midnightblue" points="1917.87,-147.268 1927.35,-142.527 1916.98,-140.324 1917.87,-147.268"/>
</g>
<!-- Node25 -->
<g id="node25" class="node"><title>Node25</title>
<g id="a_node25"><a xlink:href="MonitorObject_8h.html" target="_top" xlink:title="QualityControl/MonitorObject.h">
<polygon fill="none" stroke="black" points="1394.5,-67.5 1394.5,-86.5 1545.5,-86.5 1545.5,-67.5 1394.5,-67.5"/>
<text text-anchor="middle" x="1470" y="-74.5" font-family="Helvetica,sans-Serif" font-size="10.00">QualityControl/MonitorObject.h</text>
</a>
</g>
</g>
<!-- Node13&#45;&gt;Node25 -->
<g id="edge52" class="edge"><title>Node13&#45;&gt;Node25</title>
<path fill="none" stroke="midnightblue" d="M1310.32,-246.442C1283.91,-239.757 1250.87,-228.423 1226,-210 1190.34,-183.587 1148.1,-156.677 1177,-123 1203.3,-92.3506 1307.49,-82.3684 1384.17,-79.2321"/>
<polygon fill="midnightblue" stroke="midnightblue" points="1384.46,-82.7237 1394.32,-78.8498 1384.2,-75.7286 1384.46,-82.7237"/>
</g>
<!-- Node29 -->
<g id="node29" class="node"><title>Node29</title>
<g id="a_node29"><a xlink:href="DatabaseInterface_8h.html" target="_top" xlink:title="QualityControl/DatabaseInterface.h">
<polygon fill="none" stroke="black" points="1270,-185 1270,-204 1440,-204 1440,-185 1270,-185"/>
<text text-anchor="middle" x="1355" y="-192" font-family="Helvetica,sans-Serif" font-size="10.00">QualityControl/DatabaseInterface.h</text>
</a>
</g>
</g>
<!-- Node13&#45;&gt;Node29 -->
<g id="edge41" class="edge"><title>Node13&#45;&gt;Node29</title>
<path fill="none" stroke="midnightblue" d="M1355,-246.475C1355,-238.08 1355,-224.981 1355,-214.163"/>
<polygon fill="midnightblue" stroke="midnightblue" points="1358.5,-214.009 1355,-204.009 1351.5,-214.009 1358.5,-214.009"/>
</g>
<!-- Node31 -->
<g id="node31" class="node"><title>Node31</title>
<g id="a_node31"><a xlink:href="QcInfoLogger_8h.html" target="_top" xlink:title="QualityControl/QcInfoLogger.h">
<polygon fill="none" stroke="black" points="2270.5,-123.5 2270.5,-142.5 2419.5,-142.5 2419.5,-123.5 2270.5,-123.5"/>
<text text-anchor="middle" x="2345" y="-130.5" font-family="Helvetica,sans-Serif" font-size="10.00">QualityControl/QcInfoLogger.h</text>
</a>
</g>
</g>
<!-- Node13&#45;&gt;Node31 -->
<g id="edge53" class="edge"><title>Node13&#45;&gt;Node31</title>
<path fill="none" stroke="midnightblue" d="M1430.08,-246.62C1432.75,-246.398 1435.4,-246.19 1438,-246 1490.84,-242.142 2354.25,-248.165 2391,-210 2408.69,-191.627 2384.33,-165.276 2364.86,-148.922"/>
<polygon fill="midnightblue" stroke="midnightblue" points="2366.95,-146.107 2356.96,-142.578 2362.57,-151.566 2366.95,-146.107"/>
</g>
<!-- Node33 -->
<g id="node33" class="node"><title>Node33</title>
<g id="a_node33"><a xlink:href="Check_8h_source.html" target="_top" xlink:title="QualityControl/Check.h">
<polygon fill="none" stroke="black" points="1522.5,-185 1522.5,-204 1641.5,-204 1641.5,-185 1522.5,-185"/>
<text text-anchor="middle" x="1582" y="-192" font-family="Helvetica,sans-Serif" font-size="10.00">QualityControl/Check.h</text>
</a>
</g>
</g>
<!-- Node13&#45;&gt;Node33 -->
<g id="edge55" class="edge"><title>Node13&#45;&gt;Node33</title>
<path fill="none" stroke="midnightblue" d="M1387.52,-246.475C1427.56,-235.982 1495.64,-218.137 1539.7,-206.587"/>
<polygon fill="midnightblue" stroke="midnightblue" points="1540.75,-209.93 1549.54,-204.009 1538.98,-203.159 1540.75,-209.93"/>
</g>
<!-- Node22&#45;&gt;Node5 -->
<g id="edge27" class="edge"><title>Node22&#45;&gt;Node5</title>
<path fill="none" stroke="midnightblue" d="M1956.26,-123.465C1892.81,-110.055 1764.6,-83.8452 1655,-67 1505.55,-44.0315 1325.53,-26.0383 1254.73,-19.3362"/>
<polygon fill="midnightblue" stroke="midnightblue" points="1254.99,-15.8455 1244.71,-18.3942 1254.33,-22.8148 1254.99,-15.8455"/>
</g>
<!-- Node22&#45;&gt;Node15 -->
<g id="edge28" class="edge"><title>Node22&#45;&gt;Node15</title>
<path fill="none" stroke="midnightblue" d="M1995.56,-123.383C1994.71,-110.741 1992.35,-86.5463 1986,-67 1982.25,-55.445 1976.08,-43.3155 1970.7,-33.8408"/>
<polygon fill="midnightblue" stroke="midnightblue" points="1973.61,-31.8866 1965.51,-25.0635 1967.59,-35.4519 1973.61,-31.8866"/>
</g>
<!-- Node23 -->
<g id="node23" class="node"><title>Node23</title>
<polygon fill="none" stroke="#bfbfbf" points="1563.5,-67.5 1563.5,-86.5 1646.5,-86.5 1646.5,-67.5 1563.5,-67.5"/>
<text text-anchor="middle" x="1605" y="-74.5" font-family="Helvetica,sans-Serif" font-size="10.00">unordered_map</text>
</g>
<!-- Node22&#45;&gt;Node23 -->
<g id="edge29" class="edge"><title>Node22&#45;&gt;Node23</title>
<path fill="none" stroke="midnightblue" d="M1934.04,-123.444C1857.39,-112.857 1728.26,-95.0226 1656.68,-85.1375"/>
<polygon fill="midnightblue" stroke="midnightblue" points="1656.94,-81.6396 1646.55,-83.7385 1655.98,-88.5738 1656.94,-81.6396"/>
</g>
<!-- Node24 -->
<g id="node24" class="node"><title>Node24</title>
<polygon fill="none" stroke="#bfbfbf" points="1799,-6 1799,-25 1855,-25 1855,-6 1799,-6"/>
<text text-anchor="middle" x="1827" y="-13" font-family="Helvetica,sans-Serif" font-size="10.00">Rtypes.h</text>
</g>
<!-- Node22&#45;&gt;Node24 -->
<g id="edge30" class="edge"><title>Node22&#45;&gt;Node24</title>
<path fill="none" stroke="midnightblue" d="M1917.39,-123.411C1892.02,-117.015 1865.66,-105.979 1847,-87 1833.51,-73.2761 1828.98,-51.1527 1827.53,-35.3497"/>
<polygon fill="midnightblue" stroke="midnightblue" points="1831.01,-34.9493 1826.93,-25.1701 1824.02,-35.357 1831.01,-34.9493"/>
</g>
<!-- Node22&#45;&gt;Node25 -->
<g id="edge31" class="edge"><title>Node22&#45;&gt;Node25</title>
<path fill="none" stroke="midnightblue" d="M1917.28,-123.849C1914.49,-123.562 1911.72,-123.279 1909,-123 1754.47,-107.172 1713.4,-103.592 1555.62,-87.1645"/>
<polygon fill="midnightblue" stroke="midnightblue" points="1555.86,-83.6709 1545.55,-86.1155 1555.14,-90.6332 1555.86,-83.6709"/>
</g>
<!-- Node28 -->
<g id="node28" class="node"><title>Node28</title>
<g id="a_node28"><a xlink:href="Quality_8h.html" target="_top" xlink:title="QualityControl/Quality.h">
<polygon fill="none" stroke="black" points="1855.5,-67.5 1855.5,-86.5 1976.5,-86.5 1976.5,-67.5 1855.5,-67.5"/>
<text text-anchor="middle" x="1916" y="-74.5" font-family="Helvetica,sans-Serif" font-size="10.00">QualityControl/Quality.h</text>
</a>
</g>
</g>
<!-- Node22&#45;&gt;Node28 -->
<g id="edge37" class="edge"><title>Node22&#45;&gt;Node28</title>
<path fill="none" stroke="midnightblue" d="M1983.15,-123.324C1970.78,-114.979 1951.87,-102.212 1937.26,-92.3524"/>
<polygon fill="midnightblue" stroke="midnightblue" points="1939.07,-89.3483 1928.82,-86.6545 1935.15,-95.1503 1939.07,-89.3483"/>
</g>
<!-- Node25&#45;&gt;Node5 -->
<g id="edge32" class="edge"><title>Node25&#45;&gt;Node5</title>
<path fill="none" stroke="midnightblue" d="M1434.75,-67.4751C1386.44,-55.7891 1300.43,-34.9861 1254.65,-23.9135"/>
<polygon fill="midnightblue" stroke="midnightblue" points="1255.26,-20.4611 1244.72,-21.5121 1253.62,-27.265 1255.26,-20.4611"/>
</g>
<!-- Node25&#45;&gt;Node15 -->
<g id="edge33" class="edge"><title>Node25&#45;&gt;Node15</title>
<path fill="none" stroke="midnightblue" d="M1545.85,-67.6678C1642.56,-56.9872 1804.37,-38.9064 1864,-31 1887.01,-27.9486 1913.05,-23.9834 1932.2,-20.9709"/>
<polygon fill="midnightblue" stroke="midnightblue" points="1933.01,-24.3871 1942.33,-19.3643 1931.91,-17.4735 1933.01,-24.3871"/>
</g>
<!-- Node25&#45;&gt;Node24 -->
<g id="edge34" class="edge"><title>Node25&#45;&gt;Node24</title>
<path fill="none" stroke="midnightblue" d="M1521.15,-67.4751C1593.47,-55.4213 1723.99,-33.6677 1788.61,-22.8976"/>
<polygon fill="midnightblue" stroke="midnightblue" points="1789.48,-26.301 1798.77,-21.2046 1788.33,-19.3963 1789.48,-26.301"/>
</g>
<!-- Node26 -->
<g id="node26" class="node"><title>Node26</title>
<polygon fill="none" stroke="#bfbfbf" points="1615.5,-6 1615.5,-25 1674.5,-25 1674.5,-6 1615.5,-6"/>
<text text-anchor="middle" x="1645" y="-13" font-family="Helvetica,sans-Serif" font-size="10.00">TObject.h</text>
</g>
<!-- Node25&#45;&gt;Node26 -->
<g id="edge35" class="edge"><title>Node25&#45;&gt;Node26</title>
<path fill="none" stroke="midnightblue" d="M1495.07,-67.4751C1525.35,-57.1804 1576.44,-39.8103 1610.44,-28.2502"/>
<polygon fill="midnightblue" stroke="midnightblue" points="1611.63,-31.5419 1619.97,-25.0091 1609.38,-24.9145 1611.63,-31.5419"/>
</g>
<!-- Node27 -->
<g id="node27" class="node"><title>Node27</title>
<polygon fill="none" stroke="#bfbfbf" points="1412,-6 1412,-25 1528,-25 1528,-6 1412,-6"/>
<text text-anchor="middle" x="1470" y="-13" font-family="Helvetica,sans-Serif" font-size="10.00">Common/Exceptions.h</text>
</g>
<!-- Node25&#45;&gt;Node27 -->
<g id="edge36" class="edge"><title>Node25&#45;&gt;Node27</title>
<path fill="none" stroke="midnightblue" d="M1470,-67.4751C1470,-59.0803 1470,-45.9806 1470,-35.1631"/>
<polygon fill="midnightblue" stroke="midnightblue" points="1473.5,-35.0091 1470,-25.0091 1466.5,-35.0091 1473.5,-35.0091"/>
</g>
<!-- Node28&#45;&gt;Node5 -->
<g id="edge39" class="edge"><title>Node28&#45;&gt;Node5</title>
<path fill="none" stroke="midnightblue" d="M1855.5,-70.7979C1713.02,-58.5474 1360.42,-28.23 1254.54,-19.1261"/>
<polygon fill="midnightblue" stroke="midnightblue" points="1254.79,-15.6344 1244.52,-18.2647 1254.19,-22.6086 1254.79,-15.6344"/>
</g>
<!-- Node28&#45;&gt;Node15 -->
<g id="edge40" class="edge"><title>Node28&#45;&gt;Node15</title>
<path fill="none" stroke="midnightblue" d="M1922.3,-67.4751C1928.9,-58.5501 1939.44,-44.3071 1947.69,-33.1425"/>
<polygon fill="midnightblue" stroke="midnightblue" points="1950.58,-35.1305 1953.71,-25.0091 1944.95,-30.9684 1950.58,-35.1305"/>
</g>
<!-- Node28&#45;&gt;Node24 -->
<g id="edge38" class="edge"><title>Node28&#45;&gt;Node24</title>
<path fill="none" stroke="midnightblue" d="M1903.25,-67.4751C1888.97,-57.9315 1865.6,-42.3073 1848.49,-30.8683"/>
<polygon fill="midnightblue" stroke="midnightblue" points="1849.99,-27.6572 1839.73,-25.0091 1846.1,-33.4766 1849.99,-27.6572"/>
</g>
<!-- Node29&#45;&gt;Node4 -->
<g id="edge44" class="edge"><title>Node29&#45;&gt;Node4</title>
<path fill="none" stroke="midnightblue" d="M1343.97,-184.975C1331.73,-175.52 1311.77,-160.096 1297.01,-148.687"/>
<polygon fill="midnightblue" stroke="midnightblue" points="1299.06,-145.854 1289.01,-142.509 1294.78,-151.393 1299.06,-145.854"/>
</g>
<!-- Node29&#45;&gt;Node5 -->
<g id="edge42" class="edge"><title>Node29&#45;&gt;Node5</title>
<path fill="none" stroke="midnightblue" d="M1349.6,-184.637C1341.26,-171.096 1324.58,-144.557 1309,-123 1285.23,-90.1188 1255.16,-53.4966 1237.9,-32.9026"/>
<polygon fill="midnightblue" stroke="midnightblue" points="1240.46,-30.5098 1231.34,-25.1156 1235.11,-35.0191 1240.46,-30.5098"/>
</g>
<!-- Node29&#45;&gt;Node10 -->
<g id="edge43" class="edge"><title>Node29&#45;&gt;Node10</title>
<path fill="none" stroke="midnightblue" d="M1334.51,-184.975C1310.19,-174.857 1269.45,-157.905 1241.68,-146.351"/>
<polygon fill="midnightblue" stroke="midnightblue" points="1243.03,-143.119 1232.45,-142.509 1240.34,-149.582 1243.03,-143.119"/>
</g>
<!-- Node29&#45;&gt;Node23 -->
<g id="edge45" class="edge"><title>Node29&#45;&gt;Node23</title>
<path fill="none" stroke="midnightblue" d="M1365.82,-184.773C1384.33,-170.206 1423.69,-140.787 1461,-123 1492.09,-108.177 1529.23,-96.7093 1558.01,-89.0604"/>
<polygon fill="midnightblue" stroke="midnightblue" points="1559.02,-92.4153 1567.82,-86.515 1557.26,-85.6399 1559.02,-92.4153"/>
</g>
<!-- Node29&#45;&gt;Node25 -->
<g id="edge51" class="edge"><title>Node29&#45;&gt;Node25</title>
<path fill="none" stroke="midnightblue" d="M1357.49,-184.703C1361.95,-170.295 1372.5,-141.43 1390,-123 1403.18,-109.125 1421.59,-98.3659 1437.44,-90.852"/>
<polygon fill="midnightblue" stroke="midnightblue" points="1439.21,-93.8899 1446.9,-86.5942 1436.34,-87.5065 1439.21,-93.8899"/>
</g>
<!-- Node30 -->
<g id="node30" class="node"><title>Node30</title>
<g id="a_node30"><a xlink:href="QualityObject_8h_source.html" target="_top" xlink:title="QualityControl/QualityObject.h">
<polygon fill="none" stroke="black" points="1673.5,-123.5 1673.5,-142.5 1822.5,-142.5 1822.5,-123.5 1673.5,-123.5"/>
<text text-anchor="middle" x="1748" y="-130.5" font-family="Helvetica,sans-Serif" font-size="10.00">QualityControl/QualityObject.h</text>
</a>
</g>
</g>
<!-- Node29&#45;&gt;Node30 -->
<g id="edge46" class="edge"><title>Node29&#45;&gt;Node30</title>
<path fill="none" stroke="midnightblue" d="M1410.17,-184.956C1422.92,-182.99 1436.43,-180.915 1449,-179 1528.6,-166.871 1620.14,-153.123 1680.75,-144.049"/>
<polygon fill="midnightblue" stroke="midnightblue" points="1681.58,-147.465 1690.95,-142.523 1680.54,-140.542 1681.58,-147.465"/>
</g>
<!-- Node30&#45;&gt;Node15 -->
<g id="edge47" class="edge"><title>Node30&#45;&gt;Node15</title>
<path fill="none" stroke="midnightblue" d="M1759.8,-123.349C1777.98,-110.237 1814.17,-84.9612 1847,-67 1875.41,-51.4573 1909.53,-36.7138 1932.79,-27.2146"/>
<polygon fill="midnightblue" stroke="midnightblue" points="1934.39,-30.3445 1942.35,-23.3564 1931.77,-23.8531 1934.39,-30.3445"/>
</g>
<!-- Node30&#45;&gt;Node26 -->
<g id="edge48" class="edge"><title>Node30&#45;&gt;Node26</title>
<path fill="none" stroke="midnightblue" d="M1740.26,-123.319C1723.11,-104.088 1681.69,-57.641 1659.54,-32.8054"/>
<polygon fill="midnightblue" stroke="midnightblue" points="1662.1,-30.4159 1652.83,-25.282 1656.88,-35.0749 1662.1,-30.4159"/>
</g>
<!-- Node30&#45;&gt;Node27 -->
<g id="edge49" class="edge"><title>Node30&#45;&gt;Node27</title>
<path fill="none" stroke="midnightblue" d="M1736.68,-123.348C1715.87,-107.575 1672.12,-75.0247 1655,-67 1614.77,-48.1459 1566.21,-35.2255 1528.93,-27.176"/>
<polygon fill="midnightblue" stroke="midnightblue" points="1529.24,-23.6645 1518.74,-25.0339 1527.8,-30.515 1529.24,-23.6645"/>
</g>
<!-- Node30&#45;&gt;Node28 -->
<g id="edge50" class="edge"><title>Node30&#45;&gt;Node28</title>
<path fill="none" stroke="midnightblue" d="M1774.62,-123.444C1803.01,-114.32 1848.14,-99.8133 1879.75,-89.6509"/>
<polygon fill="midnightblue" stroke="midnightblue" points="1881.06,-92.9087 1889.5,-86.5164 1878.91,-86.2445 1881.06,-92.9087"/>
</g>
<!-- Node32 -->
<g id="node32" class="node"><title>Node32</title>
<polygon fill="none" stroke="#bfbfbf" points="2280,-67.5 2280,-86.5 2410,-86.5 2410,-67.5 2280,-67.5"/>
<text text-anchor="middle" x="2345" y="-74.5" font-family="Helvetica,sans-Serif" font-size="10.00">InfoLogger/InfoLogger.hxx</text>
</g>
<!-- Node31&#45;&gt;Node32 -->
<g id="edge54" class="edge"><title>Node31&#45;&gt;Node32</title>
<path fill="none" stroke="midnightblue" d="M2345,-123.083C2345,-116.006 2345,-105.861 2345,-96.9865"/>
<polygon fill="midnightblue" stroke="midnightblue" points="2348.5,-96.751 2345,-86.7511 2341.5,-96.7511 2348.5,-96.751"/>
</g>
<!-- Node33&#45;&gt;Node4 -->
<g id="edge58" class="edge"><title>Node33&#45;&gt;Node4</title>
<path fill="none" stroke="midnightblue" d="M1541.89,-184.944C1532.42,-182.96 1522.36,-180.88 1513,-179 1440.61,-164.464 1355.45,-148.419 1310.16,-139.968"/>
<polygon fill="midnightblue" stroke="midnightblue" points="1310.53,-136.478 1300.06,-138.087 1309.25,-143.36 1310.53,-136.478"/>
</g>
<!-- Node33&#45;&gt;Node7 -->
<g id="edge61" class="edge"><title>Node33&#45;&gt;Node7</title>
<path fill="none" stroke="midnightblue" d="M1545.26,-184.941C1534.88,-182.751 1523.53,-180.572 1513,-179 1370.48,-157.726 1203.63,-145.22 1102.44,-138.993"/>
<polygon fill="midnightblue" stroke="midnightblue" points="1102.44,-135.487 1092.25,-138.373 1102.02,-142.474 1102.44,-135.487"/>
</g>
<!-- Node33&#45;&gt;Node10 -->
<g id="edge59" class="edge"><title>Node33&#45;&gt;Node10</title>
<path fill="none" stroke="midnightblue" d="M1543.77,-184.951C1533.78,-182.859 1523.01,-180.727 1513,-179 1398.65,-159.274 1365.86,-165.523 1248.41,-143.077"/>
<polygon fill="midnightblue" stroke="midnightblue" points="1248.78,-139.584 1238.3,-141.115 1247.45,-146.456 1248.78,-139.584"/>
</g>
<!-- Node33&#45;&gt;Node15 -->
<g id="edge57" class="edge"><title>Node33&#45;&gt;Node15</title>
<path fill="none" stroke="midnightblue" d="M1641.52,-185.336C1658.46,-183.137 1676.94,-180.856 1694,-179 1739.24,-174.077 2071.27,-176.564 2102,-143 2145.67,-95.3033 2039.38,-46.5378 1987.05,-26.2626"/>
<polygon fill="midnightblue" stroke="midnightblue" points="1988.24,-22.9743 1977.65,-22.7054 1985.77,-29.5205 1988.24,-22.9743"/>
</g>
<!-- Node33&#45;&gt;Node22 -->
<g id="edge65" class="edge"><title>Node33&#45;&gt;Node22</title>
<path fill="none" stroke="midnightblue" d="M1623.02,-184.993C1633.73,-182.901 1645.28,-180.758 1656,-179 1742.81,-164.765 1842.65,-151.973 1911.58,-143.7"/>
<polygon fill="midnightblue" stroke="midnightblue" points="1912.01,-147.174 1921.52,-142.512 1911.18,-140.223 1912.01,-147.174"/>
</g>
<!-- Node33&#45;&gt;Node23 -->
<g id="edge60" class="edge"><title>Node33&#45;&gt;Node23</title>
<path fill="none" stroke="midnightblue" d="M1593.17,-184.872C1603.92,-175.794 1619.47,-160.423 1626,-143 1631.96,-127.093 1624.67,-108.638 1617.1,-95.4658"/>
<polygon fill="midnightblue" stroke="midnightblue" points="1620.01,-93.5182 1611.72,-86.9201 1614.09,-97.2475 1620.01,-93.5182"/>
</g>
<!-- Node33&#45;&gt;Node25 -->
<g id="edge64" class="edge"><title>Node33&#45;&gt;Node25</title>
<path fill="none" stroke="midnightblue" d="M1551.53,-184.994C1519.24,-175.289 1471.48,-158.723 1461,-143 1451.84,-129.25 1455.95,-110.217 1461.23,-96.3008"/>
<polygon fill="midnightblue" stroke="midnightblue" points="1464.57,-97.398 1465.3,-86.8283 1458.13,-94.6356 1464.57,-97.398"/>
</g>
<!-- Node33&#45;&gt;Node28 -->
<g id="edge62" class="edge"><title>Node33&#45;&gt;Node28</title>
<path fill="none" stroke="midnightblue" d="M1641.53,-185.38C1658.47,-183.182 1676.95,-180.89 1694,-179 1737.25,-174.206 2054.68,-175.155 2084,-143 2117.07,-106.739 2046.47,-90.5091 1986.87,-83.3779"/>
<polygon fill="midnightblue" stroke="midnightblue" points="1986.99,-79.8691 1976.66,-82.2295 1986.21,-86.8253 1986.99,-79.8691"/>
</g>
<!-- Node33&#45;&gt;Node30 -->
<g id="edge63" class="edge"><title>Node33&#45;&gt;Node30</title>
<path fill="none" stroke="midnightblue" d="M1605.78,-184.975C1634.38,-174.725 1682.55,-157.459 1714.8,-145.899"/>
<polygon fill="midnightblue" stroke="midnightblue" points="1716.03,-149.178 1724.26,-142.509 1713.67,-142.589 1716.03,-149.178"/>
</g>
<!-- Node33&#45;&gt;Node31 -->
<g id="edge66" class="edge"><title>Node33&#45;&gt;Node31</title>
<path fill="none" stroke="midnightblue" d="M1641.58,-187.177C1667.77,-184.492 1698.9,-181.428 1727,-179 1917.32,-162.558 2140.96,-147.274 2260.12,-139.453"/>
<polygon fill="midnightblue" stroke="midnightblue" points="2260.52,-142.934 2270.27,-138.788 2260.06,-135.949 2260.52,-142.934"/>
</g>
<!-- Node34 -->
<g id="node34" class="node"><title>Node34</title>
<polygon fill="none" stroke="#bfbfbf" points="1840.5,-123.5 1840.5,-142.5 1899.5,-142.5 1899.5,-123.5 1840.5,-123.5"/>
<text text-anchor="middle" x="1870" y="-130.5" font-family="Helvetica,sans-Serif" font-size="10.00">functional</text>
</g>
<!-- Node33&#45;&gt;Node34 -->
<g id="edge56" class="edge"><title>Node33&#45;&gt;Node34</title>
<path fill="none" stroke="midnightblue" d="M1624.8,-184.963C1681.27,-173.677 1778.65,-154.13 1830.23,-143.112"/>
<polygon fill="midnightblue" stroke="midnightblue" points="1831.17,-146.489 1840.21,-140.961 1829.69,-139.646 1831.17,-146.489"/>
</g>
<!-- Node35 -->
<g id="node35" class="node"><title>Node35</title>
<g id="a_node35"><a xlink:href="CheckConfig_8h.html" target="_top" xlink:title="QualityControl/CheckConfig.h">
<polygon fill="none" stroke="black" points="1470.5,-123.5 1470.5,-142.5 1617.5,-142.5 1617.5,-123.5 1470.5,-123.5"/>
<text text-anchor="middle" x="1544" y="-130.5" font-family="Helvetica,sans-Serif" font-size="10.00">QualityControl/CheckConfig.h</text>
</a>
</g>
</g>
<!-- Node33&#45;&gt;Node35 -->
<g id="edge67" class="edge"><title>Node33&#45;&gt;Node35</title>
<path fill="none" stroke="midnightblue" d="M1576.56,-184.975C1570.91,-176.138 1561.94,-162.089 1554.84,-150.975"/>
<polygon fill="midnightblue" stroke="midnightblue" points="1557.77,-149.053 1549.43,-142.509 1551.87,-152.821 1557.77,-149.053"/>
</g>
<!-- Node35&#45;&gt;Node5 -->
<g id="edge68" class="edge"><title>Node35&#45;&gt;Node5</title>
<path fill="none" stroke="midnightblue" d="M1507.48,-123.429C1474.9,-115.37 1426.15,-102.281 1385,-87 1365.24,-79.6623 1361.25,-75.5919 1342,-67 1312.13,-53.6674 1277.73,-39.0224 1253.8,-28.9528"/>
<polygon fill="midnightblue" stroke="midnightblue" points="1255.12,-25.7122 1244.55,-25.0667 1252.41,-32.1661 1255.12,-25.7122"/>
</g>
<!-- Node35&#45;&gt;Node23 -->
<g id="edge69" class="edge"><title>Node35&#45;&gt;Node23</title>
<path fill="none" stroke="midnightblue" d="M1553.8,-123.324C1562.82,-115.341 1576.41,-103.313 1587.32,-93.6529"/>
<polygon fill="midnightblue" stroke="midnightblue" points="1589.85,-96.083 1595.02,-86.8339 1585.21,-90.8416 1589.85,-96.083"/>
</g>
<!-- Node36&#45;&gt;Node5 -->
<g id="edge71" class="edge"><title>Node36&#45;&gt;Node5</title>
<path fill="none" stroke="midnightblue" d="M175.813,-68.2211C180.611,-67.7764 185.376,-67.3633 190,-67 585.645,-35.9152 1068.06,-20.883 1193.19,-17.3381"/>
<polygon fill="midnightblue" stroke="midnightblue" points="1193.31,-20.8361 1203.21,-17.0573 1193.12,-13.8389 1193.31,-20.8361"/>
</g>
<!-- Node36&#45;&gt;Node27 -->
<g id="edge73" class="edge"><title>Node36&#45;&gt;Node27</title>
<path fill="none" stroke="midnightblue" d="M175.816,-73.9573C353.929,-68.5272 844.648,-52.6564 1253,-31 1302.74,-28.362 1358.84,-24.5922 1401.54,-21.5577"/>
<polygon fill="midnightblue" stroke="midnightblue" points="1401.82,-25.047 1411.54,-20.843 1401.32,-18.0648 1401.82,-25.047"/>
</g>
<!-- Node37 -->
<g id="node37" class="node"><title>Node37</title>
<polygon fill="none" stroke="#bfbfbf" points="39.5,-0.5 39.5,-30.5 174.5,-30.5 174.5,-0.5 39.5,-0.5"/>
<text text-anchor="start" x="47.5" y="-18.5" font-family="Helvetica,sans-Serif" font-size="10.00">Configuration/Configuration</text>
<text text-anchor="middle" x="107" y="-7.5" font-family="Helvetica,sans-Serif" font-size="10.00">Factory.h</text>
</g>
<!-- Node36&#45;&gt;Node37 -->
<g id="edge72" class="edge"><title>Node36&#45;&gt;Node37</title>
<path fill="none" stroke="midnightblue" d="M107,-67.4751C107,-60.471 107,-50.1919 107,-40.6956"/>
<polygon fill="midnightblue" stroke="midnightblue" points="110.5,-40.5229 107,-30.523 103.5,-40.523 110.5,-40.5229"/>
</g>
<!-- Node38&#45;&gt;Node5 -->
<g id="edge75" class="edge"><title>Node38&#45;&gt;Node5</title>
<path fill="none" stroke="midnightblue" d="M712.372,-180.29C636.002,-166.598 528.042,-146.684 525,-143 519.341,-136.146 519.207,-129.742 525,-123 613.331,-20.192 1069.42,-15.5048 1193.06,-16.1569"/>
<polygon fill="midnightblue" stroke="midnightblue" points="1193.3,-19.6586 1203.32,-16.228 1193.35,-12.6588 1193.3,-19.6586"/>
</g>
<!-- Node38&#45;&gt;Node9 -->
<g id="edge77" class="edge"><title>Node38&#45;&gt;Node9</title>
<path fill="none" stroke="midnightblue" d="M712.39,-180.322C709.22,-179.857 706.08,-179.413 703,-179 540.727,-157.216 495.141,-171.865 330.153,-142.927"/>
<polygon fill="midnightblue" stroke="midnightblue" points="330.608,-139.453 320.149,-141.145 329.38,-146.345 330.608,-139.453"/>
</g>
<!-- Node38&#45;&gt;Node10 -->
<g id="edge76" class="edge"><title>Node38&#45;&gt;Node10</title>
<path fill="none" stroke="midnightblue" d="M861.516,-183.068C953.45,-170.197 1106.09,-148.828 1175.56,-139.102"/>
<polygon fill="midnightblue" stroke="midnightblue" points="1176.16,-142.551 1185.58,-137.699 1175.19,-135.619 1176.16,-142.551"/>
</g>
<!-- Node38&#45;&gt;Node18 -->
<g id="edge79" class="edge"><title>Node38&#45;&gt;Node18</title>
<path fill="none" stroke="midnightblue" d="M804.537,-179.399C815.844,-170.308 830.542,-158.49 842.107,-149.191"/>
<polygon fill="midnightblue" stroke="midnightblue" points="844.632,-151.652 850.232,-142.658 840.246,-146.196 844.632,-151.652"/>
</g>
<!-- Node38&#45;&gt;Node25 -->
<g id="edge81" class="edge"><title>Node38&#45;&gt;Node25</title>
<path fill="none" stroke="midnightblue" d="M785.702,-179.384C785.07,-163.094 786.88,-136.786 803,-123 846.193,-86.062 1213.77,-79.3047 1384.05,-78.1681"/>
<polygon fill="midnightblue" stroke="midnightblue" points="1384.26,-81.667 1394.23,-78.1053 1384.21,-74.6672 1384.26,-81.667"/>
</g>
<!-- Node38&#45;&gt;Node30 -->
<g id="edge82" class="edge"><title>Node38&#45;&gt;Node30</title>
<path fill="none" stroke="midnightblue" d="M861.661,-189.346C1008.23,-181.115 1343.91,-161.894 1626,-143 1638.12,-142.188 1650.92,-141.29 1663.48,-140.384"/>
<polygon fill="midnightblue" stroke="midnightblue" points="1663.77,-143.872 1673.49,-139.657 1663.27,-136.89 1663.77,-143.872"/>
</g>
<!-- Node39 -->
<g id="node39" class="node"><title>Node39</title>
<polygon fill="none" stroke="#bfbfbf" points="534.5,-123.5 534.5,-142.5 603.5,-142.5 603.5,-123.5 534.5,-123.5"/>
<text text-anchor="middle" x="569" y="-130.5" font-family="Helvetica,sans-Serif" font-size="10.00">TObjArray.h</text>
</g>
<!-- Node38&#45;&gt;Node39 -->
<g id="edge78" class="edge"><title>Node38&#45;&gt;Node39</title>
<path fill="none" stroke="midnightblue" d="M735.613,-179.475C697.347,-169.03 645.786,-154.958 610.207,-145.247"/>
<polygon fill="midnightblue" stroke="midnightblue" points="610.735,-141.763 600.166,-142.506 608.892,-148.516 610.735,-141.763"/>
</g>
<!-- Node40 -->
<g id="node40" class="node"><title>Node40</title>
<polygon fill="none" stroke="#bfbfbf" points="622,-123.5 622,-142.5 756,-142.5 756,-123.5 622,-123.5"/>
<text text-anchor="middle" x="689" y="-130.5" font-family="Helvetica,sans-Serif" font-size="10.00">Framework/DataRefUtils.h</text>
</g>
<!-- Node38&#45;&gt;Node40 -->
<g id="edge80" class="edge"><title>Node38&#45;&gt;Node40</title>
<path fill="none" stroke="midnightblue" d="M763.775,-179.399C748.214,-169.951 727.803,-157.559 712.238,-148.109"/>
<polygon fill="midnightblue" stroke="midnightblue" points="713.624,-144.856 703.26,-142.658 709.991,-150.839 713.624,-144.856"/>
</g>
<!-- Node41&#45;&gt;Node7 -->
<g id="edge84" class="edge"><title>Node41&#45;&gt;Node7</title>
<path fill="none" stroke="midnightblue" d="M912.551,-246.298C929.957,-226.24 973.129,-176.489 995.714,-150.463"/>
<polygon fill="midnightblue" stroke="midnightblue" points="998.606,-152.47 1002.52,-142.623 993.32,-147.882 998.606,-152.47"/>
</g>
</g>
</svg>
