<?xml version="1.0" encoding="UTF-8" standalone="no"?>
<!DOCTYPE svg PUBLIC "-//W3C//DTD SVG 1.1//EN"
 "http://www.w3.org/Graphics/SVG/1.1/DTD/svg11.dtd">
<!-- Generated by graphviz version 2.38.0 (20140413.2041)
 -->
<!-- Title: Framework/test/testQualityObject.cxx Pages: 1 -->
<svg width="594pt" height="207pt"
 viewBox="0.00 0.00 593.64 207.00" xmlns="http://www.w3.org/2000/svg" xmlns:xlink="http://www.w3.org/1999/xlink">
<g id="graph0" class="graph" transform="scale(1 1) rotate(0) translate(4 203)">
<title>Framework/test/testQualityObject.cxx</title>
<!-- Node1 -->
<g id="node1" class="node"><title>Node1</title>
<polygon fill="#bfbfbf" stroke="black" points="306.639,-168.5 306.639,-198.5 441.639,-198.5 441.639,-168.5 306.639,-168.5"/>
<text text-anchor="start" x="314.639" y="-186.5" font-family="Helvetica,sans-Serif" font-size="10.00">Framework/test/testQuality</text>
<text text-anchor="middle" x="374.139" y="-175.5" font-family="Helvetica,sans-Serif" font-size="10.00">Object.cxx</text>
</g>
<!-- Node2 -->
<g id="node2" class="node"><title>Node2</title>
<g id="a_node2"><a xlink:href="QualityObject_8h_source.html" target="_top" xlink:title="QualityControl/QualityObject.h">
<polygon fill="none" stroke="black" points="75.6387,-112.5 75.6387,-131.5 224.639,-131.5 224.639,-112.5 75.6387,-112.5"/>
<text text-anchor="middle" x="150.139" y="-119.5" font-family="Helvetica,sans-Serif" font-size="10.00">QualityControl/QualityObject.h</text>
</a>
</g>
</g>
<!-- Node1&#45;&gt;Node2 -->
<g id="edge1" class="edge"><title>Node1&#45;&gt;Node2</title>
<path fill="none" stroke="midnightblue" d="M321.337,-168.475C281.849,-157.986 228.583,-143.837 192.01,-134.122"/>
<polygon fill="midnightblue" stroke="midnightblue" points="192.726,-130.691 182.163,-131.506 190.929,-137.456 192.726,-130.691"/>
</g>
<!-- Node9 -->
<g id="node9" class="node"><title>Node9</title>
<g id="a_node9"><a xlink:href="QcInfoLogger_8h.html" target="_top" xlink:title="QualityControl/QcInfoLogger.h">
<polygon fill="none" stroke="black" points="299.639,-112.5 299.639,-131.5 448.639,-131.5 448.639,-112.5 299.639,-112.5"/>
<text text-anchor="middle" x="374.139" y="-119.5" font-family="Helvetica,sans-Serif" font-size="10.00">QualityControl/QcInfoLogger.h</text>
</a>
</g>
</g>
<!-- Node1&#45;&gt;Node9 -->
<g id="edge9" class="edge"><title>Node1&#45;&gt;Node9</title>
<path fill="none" stroke="midnightblue" d="M374.139,-168.399C374.139,-160.466 374.139,-150.458 374.139,-141.858"/>
<polygon fill="midnightblue" stroke="midnightblue" points="377.639,-141.658 374.139,-131.658 370.639,-141.658 377.639,-141.658"/>
</g>
<!-- Node11 -->
<g id="node11" class="node"><title>Node11</title>
<polygon fill="none" stroke="#bfbfbf" points="466.639,-112.5 466.639,-131.5 585.639,-131.5 585.639,-112.5 466.639,-112.5"/>
<text text-anchor="middle" x="526.139" y="-119.5" font-family="Helvetica,sans-Serif" font-size="10.00">boost/test/unit_test.hpp</text>
</g>
<!-- Node1&#45;&gt;Node11 -->
<g id="edge11" class="edge"><title>Node1&#45;&gt;Node11</title>
<path fill="none" stroke="midnightblue" d="M410.161,-168.399C435.777,-158.372 469.866,-145.028 494.449,-135.405"/>
<polygon fill="midnightblue" stroke="midnightblue" points="495.985,-138.562 504.021,-131.658 493.434,-132.044 495.985,-138.562"/>
</g>
<!-- Node3 -->
<g id="node3" class="node"><title>Node3</title>
<polygon fill="none" stroke="#bfbfbf" points="86.6387,-0.5 86.6387,-19.5 121.639,-19.5 121.639,-0.5 86.6387,-0.5"/>
<text text-anchor="middle" x="104.139" y="-7.5" font-family="Helvetica,sans-Serif" font-size="10.00">map</text>
</g>
<!-- Node2&#45;&gt;Node3 -->
<g id="edge2" class="edge"><title>Node2&#45;&gt;Node3</title>
<path fill="none" stroke="midnightblue" d="M75.4415,-115.758C48.8968,-109.856 21.5541,-98.2821 5.13872,-76 -16.6166,-46.4695 40.0208,-26.532 76.3608,-17.1575"/>
<polygon fill="midnightblue" stroke="midnightblue" points="77.5534,-20.469 86.4341,-14.6911 75.8886,-13.6698 77.5534,-20.469"/>
</g>
<!-- Node4 -->
<g id="node4" class="node"><title>Node4</title>
<polygon fill="none" stroke="#bfbfbf" points="14.6387,-56.5 14.6387,-75.5 73.6387,-75.5 73.6387,-56.5 14.6387,-56.5"/>
<text text-anchor="middle" x="44.1387" y="-63.5" font-family="Helvetica,sans-Serif" font-size="10.00">TObject.h</text>
</g>
<!-- Node2&#45;&gt;Node4 -->
<g id="edge3" class="edge"><title>Node2&#45;&gt;Node4</title>
<path fill="none" stroke="midnightblue" d="M133.108,-112.324C116.109,-103.664 89.7626,-90.2424 70.1461,-80.249"/>
<polygon fill="midnightblue" stroke="midnightblue" points="71.6264,-77.0752 61.1272,-75.6545 68.4488,-83.3125 71.6264,-77.0752"/>
</g>
<!-- Node5 -->
<g id="node5" class="node"><title>Node5</title>
<polygon fill="none" stroke="#bfbfbf" points="92.1387,-56.5 92.1387,-75.5 208.139,-75.5 208.139,-56.5 92.1387,-56.5"/>
<text text-anchor="middle" x="150.139" y="-63.5" font-family="Helvetica,sans-Serif" font-size="10.00">Common/Exceptions.h</text>
</g>
<!-- Node2&#45;&gt;Node5 -->
<g id="edge4" class="edge"><title>Node2&#45;&gt;Node5</title>
<path fill="none" stroke="midnightblue" d="M150.139,-112.083C150.139,-105.006 150.139,-94.8611 150.139,-85.9865"/>
<polygon fill="midnightblue" stroke="midnightblue" points="153.639,-85.751 150.139,-75.7511 146.639,-85.7511 153.639,-85.751"/>
</g>
<!-- Node6 -->
<g id="node6" class="node"><title>Node6</title>
<g id="a_node6"><a xlink:href="Quality_8h.html" target="_top" xlink:title="QualityControl/Quality.h">
<polygon fill="none" stroke="black" points="226.639,-56.5 226.639,-75.5 347.639,-75.5 347.639,-56.5 226.639,-56.5"/>
<text text-anchor="middle" x="287.139" y="-63.5" font-family="Helvetica,sans-Serif" font-size="10.00">QualityControl/Quality.h</text>
</a>
</g>
</g>
<!-- Node2&#45;&gt;Node6 -->
<g id="edge5" class="edge"><title>Node2&#45;&gt;Node6</title>
<path fill="none" stroke="midnightblue" d="M171.847,-112.444C194.494,-103.517 230.211,-89.4387 255.89,-79.3168"/>
<polygon fill="midnightblue" stroke="midnightblue" points="257.512,-82.4397 265.532,-75.5164 254.945,-75.9273 257.512,-82.4397"/>
</g>
<!-- Node6&#45;&gt;Node3 -->
<g id="edge8" class="edge"><title>Node6&#45;&gt;Node3</title>
<path fill="none" stroke="midnightblue" d="M258.142,-56.4435C223.435,-46.2021 165.745,-29.1789 131.691,-19.1301"/>
<polygon fill="midnightblue" stroke="midnightblue" points="132.514,-15.724 121.933,-16.2506 130.533,-22.4378 132.514,-15.724"/>
</g>
<!-- Node7 -->
<g id="node7" class="node"><title>Node7</title>
<polygon fill="none" stroke="#bfbfbf" points="225.139,-0.5 225.139,-19.5 281.139,-19.5 281.139,-0.5 225.139,-0.5"/>
<text text-anchor="middle" x="253.139" y="-7.5" font-family="Helvetica,sans-Serif" font-size="10.00">Rtypes.h</text>
</g>
<!-- Node6&#45;&gt;Node7 -->
<g id="edge6" class="edge"><title>Node6&#45;&gt;Node7</title>
<path fill="none" stroke="midnightblue" d="M281.524,-56.083C276.771,-48.5341 269.821,-37.4948 263.987,-28.2298"/>
<polygon fill="midnightblue" stroke="midnightblue" points="266.939,-26.3486 258.649,-19.7511 261.015,-30.0783 266.939,-26.3486"/>
</g>
<!-- Node8 -->
<g id="node8" class="node"><title>Node8</title>
<polygon fill="none" stroke="#bfbfbf" points="299.639,-0.5 299.639,-19.5 340.639,-19.5 340.639,-0.5 299.639,-0.5"/>
<text text-anchor="middle" x="320.139" y="-7.5" font-family="Helvetica,sans-Serif" font-size="10.00">string</text>
</g>
<!-- Node6&#45;&gt;Node8 -->
<g id="edge7" class="edge"><title>Node6&#45;&gt;Node8</title>
<path fill="none" stroke="midnightblue" d="M292.588,-56.083C297.153,-48.6127 303.807,-37.7244 309.432,-28.5199"/>
<polygon fill="midnightblue" stroke="midnightblue" points="312.563,-30.109 314.791,-19.7511 306.59,-26.4588 312.563,-30.109"/>
</g>
<!-- Node10 -->
<g id="node10" class="node"><title>Node10</title>
<polygon fill="none" stroke="#bfbfbf" points="366.139,-56.5 366.139,-75.5 496.139,-75.5 496.139,-56.5 366.139,-56.5"/>
<text text-anchor="middle" x="431.139" y="-63.5" font-family="Helvetica,sans-Serif" font-size="10.00">InfoLogger/InfoLogger.hxx</text>
</g>
<!-- Node9&#45;&gt;Node10 -->
<g id="edge10" class="edge"><title>Node9&#45;&gt;Node10</title>
<path fill="none" stroke="midnightblue" d="M383.297,-112.324C391.64,-104.42 404.171,-92.5482 414.316,-82.9377"/>
<polygon fill="midnightblue" stroke="midnightblue" points="416.962,-85.2522 421.814,-75.8339 412.147,-80.1705 416.962,-85.2522"/>
</g>
</g>
</svg>
