<?xml version="1.0" encoding="UTF-8" standalone="no"?>
<!DOCTYPE svg PUBLIC "-//W3C//DTD SVG 1.1//EN"
 "http://www.w3.org/Graphics/SVG/1.1/DTD/svg11.dtd">
<!-- Generated by graphviz version 2.38.0 (20140413.2041)
 -->
<!-- Title: Framework/test/testDbFactory.cxx Pages: 1 -->
<!--zoomable 308 -->
<svg id="main" version="1.1" xmlns="http://www.w3.org/2000/svg" xmlns:xlink="http://www.w3.org/1999/xlink" xml:space="preserve" onload="init(evt)">
<style type="text/css"><![CDATA[
.edge:hover path { stroke: red; }
.edge:hover polygon { stroke: red; fill: red; }
]]></style>
<script type="text/javascript"><![CDATA[
var edges = document.getElementsByTagName('g');
if (edges && edges.length) {
  for (var i=0;i<edges.length;i++) {
    if (edges[i].id.substr(0,4)=='edge') {
      edges[i].setAttribute('class','edge');
    }
  }
}
]]></script>
        <defs>
                <circle id="rim" cx="0" cy="0" r="7"/>
                <circle id="rim2" cx="0" cy="0" r="3.5"/>
                <g id="zoomPlus">
                        <use xlink:href="#rim" fill="#404040">
                                <set attributeName="fill" to="#808080" begin="zoomplus.mouseover" end="zoomplus.mouseout"/>
                        </use>
                        <path d="M-4,0h8M0,-4v8" fill="none" stroke="white" stroke-width="1.5" pointer-events="none"/>
                </g>
                <g id="zoomMin">
                        <use xlink:href="#rim" fill="#404040">
                                <set attributeName="fill" to="#808080" begin="zoomminus.mouseover" end="zoomminus.mouseout"/>
                        </use>
                        <path d="M-4,0h8" fill="none" stroke="white" stroke-width="1.5" pointer-events="none"/>
                </g>
                <g id="dirArrow">
                        <path fill="none" stroke="white" stroke-width="1.5" d="M0,-3.0v7 M-2.5,-0.5L0,-3.0L2.5,-0.5"/>
                </g>
               <g id="resetDef">
                       <use xlink:href="#rim2" fill="#404040">
                               <set attributeName="fill" to="#808080" begin="reset.mouseover" end="reset.mouseout"/>
                       </use>
               </g>
        </defs>

<script type="text/javascript">
var viewWidth = 942;
var viewHeight = 308;
var sectionId = 'dynsection-0';
</script>
<script xlink:href="svgpan.js"/>
<svg id="graph" class="graph">
<g id="viewport">
<title>Framework/test/testDbFactory.cxx</title>
<!-- Node1 -->
<g id="node1" class="node"><title>Node1</title>
<polygon fill="#bfbfbf" stroke="black" points="467,-280.5 467,-299.5 636,-299.5 636,-280.5 467,-280.5"/>
<text text-anchor="middle" x="551.5" y="-287.5" font-family="Helvetica,sans-Serif" font-size="10.00">Framework/test/testDbFactory.cxx</text>
</g>
<!-- Node2 -->
<g id="node2" class="node"><title>Node2</title>
<g id="a_node2"><a xlink:href="DatabaseFactory_8h.html" target="_top" xlink:title="QualityControl/DatabaseFactory.h">
<polygon fill="none" stroke="black" points="0,-224.5 0,-243.5 165,-243.5 165,-224.5 0,-224.5"/>
<text text-anchor="middle" x="82.5" y="-231.5" font-family="Helvetica,sans-Serif" font-size="10.00">QualityControl/DatabaseFactory.h</text>
</a>
</g>
</g>
<!-- Node1&#45;&gt;Node2 -->
<g id="edge1" class="edge"><title>Node1&#45;&gt;Node2</title>
<path fill="none" stroke="midnightblue" d="M477.444,-280.473C392.938,-270.743 255.026,-254.864 166.556,-244.678"/>
<polygon fill="midnightblue" stroke="midnightblue" points="166.888,-241.193 156.554,-243.526 166.088,-248.147 166.888,-241.193"/>
</g>
<!-- Node14 -->
<g id="node14" class="node"><title>Node14</title>
<g id="a_node14"><a xlink:href="MonitorObject_8h.html" target="_top" xlink:title="QualityControl/MonitorObject.h">
<polygon fill="none" stroke="black" points="427,-112.5 427,-131.5 578,-131.5 578,-112.5 427,-112.5"/>
<text text-anchor="middle" x="502.5" y="-119.5" font-family="Helvetica,sans-Serif" font-size="10.00">QualityControl/MonitorObject.h</text>
</a>
</g>
</g>
<!-- Node1&#45;&gt;Node14 -->
<g id="edge30" class="edge"><title>Node1&#45;&gt;Node14</title>
<path fill="none" stroke="midnightblue" d="M548.866,-280.075C541.153,-253.945 518.502,-177.211 507.984,-141.577"/>
<polygon fill="midnightblue" stroke="midnightblue" points="511.217,-140.168 505.029,-131.568 504.503,-142.15 511.217,-140.168"/>
</g>
<!-- Node15 -->
<g id="node15" class="node"><title>Node15</title>
<g id="a_node15"><a xlink:href="QcInfoLogger_8h.html" target="_top" xlink:title="QualityControl/QcInfoLogger.h">
<polygon fill="none" stroke="black" points="579,-224.5 579,-243.5 728,-243.5 728,-224.5 579,-224.5"/>
<text text-anchor="middle" x="653.5" y="-231.5" font-family="Helvetica,sans-Serif" font-size="10.00">QualityControl/QcInfoLogger.h</text>
</a>
</g>
</g>
<!-- Node1&#45;&gt;Node15 -->
<g id="edge22" class="edge"><title>Node1&#45;&gt;Node15</title>
<path fill="none" stroke="midnightblue" d="M567.888,-280.324C584.171,-271.703 609.367,-258.364 628.216,-248.386"/>
<polygon fill="midnightblue" stroke="midnightblue" points="629.952,-251.427 637.153,-243.655 626.677,-245.24 629.952,-251.427"/>
</g>
<!-- Node17 -->
<g id="node17" class="node"><title>Node17</title>
<polygon fill="none" stroke="#bfbfbf" points="746,-224.5 746,-243.5 865,-243.5 865,-224.5 746,-224.5"/>
<text text-anchor="middle" x="805.5" y="-231.5" font-family="Helvetica,sans-Serif" font-size="10.00">boost/test/unit_test.hpp</text>
</g>
<!-- Node1&#45;&gt;Node17 -->
<g id="edge24" class="edge"><title>Node1&#45;&gt;Node17</title>
<path fill="none" stroke="midnightblue" d="M591.747,-280.444C636.15,-271.004 707.653,-255.802 755.588,-245.611"/>
<polygon fill="midnightblue" stroke="midnightblue" points="756.388,-249.02 765.441,-243.516 754.932,-242.173 756.388,-249.02"/>
</g>
<!-- Node18 -->
<g id="node18" class="node"><title>Node18</title>
<g id="a_node18"><a xlink:href="DummyDatabase_8h.html" target="_top" xlink:title="QualityControl/DummyDatabase.h">
<polygon fill="none" stroke="black" points="183,-224.5 183,-243.5 350,-243.5 350,-224.5 183,-224.5"/>
<text text-anchor="middle" x="266.5" y="-231.5" font-family="Helvetica,sans-Serif" font-size="10.00">QualityControl/DummyDatabase.h</text>
</a>
</g>
</g>
<!-- Node1&#45;&gt;Node18 -->
<g id="edge25" class="edge"><title>Node1&#45;&gt;Node18</title>
<path fill="none" stroke="midnightblue" d="M506.341,-280.444C456.206,-270.944 375.28,-255.611 321.494,-245.42"/>
<polygon fill="midnightblue" stroke="midnightblue" points="321.925,-241.939 311.448,-243.516 320.621,-248.817 321.925,-241.939"/>
</g>
<!-- Node19 -->
<g id="node19" class="node"><title>Node19</title>
<g id="a_node19"><a xlink:href="CcdbDatabase_8h.html" target="_top" xlink:title="QualityControl/CcdbDatabase.h">
<polygon fill="none" stroke="black" points="368,-224.5 368,-243.5 523,-243.5 523,-224.5 368,-224.5"/>
<text text-anchor="middle" x="445.5" y="-231.5" font-family="Helvetica,sans-Serif" font-size="10.00">QualityControl/CcdbDatabase.h</text>
</a>
</g>
</g>
<!-- Node1&#45;&gt;Node19 -->
<g id="edge27" class="edge"><title>Node1&#45;&gt;Node19</title>
<path fill="none" stroke="midnightblue" d="M534.469,-280.324C517.47,-271.664 491.124,-258.242 471.507,-248.249"/>
<polygon fill="midnightblue" stroke="midnightblue" points="472.988,-245.075 462.488,-243.655 469.81,-251.312 472.988,-245.075"/>
</g>
<!-- Node21 -->
<g id="node21" class="node"><title>Node21</title>
<polygon fill="none" stroke="#bfbfbf" points="883.5,-224.5 883.5,-243.5 933.5,-243.5 933.5,-224.5 883.5,-224.5"/>
<text text-anchor="middle" x="908.5" y="-231.5" font-family="Helvetica,sans-Serif" font-size="10.00">TH1F.h</text>
</g>
<!-- Node1&#45;&gt;Node21 -->
<g id="edge31" class="edge"><title>Node1&#45;&gt;Node21</title>
<path fill="none" stroke="midnightblue" d="M632.261,-280.481C695.504,-273.179 785.82,-261.368 873.482,-244.001"/>
<polygon fill="midnightblue" stroke="midnightblue" points="874.213,-247.424 883.328,-242.024 872.835,-240.561 874.213,-247.424"/>
</g>
<!-- Node3 -->
<g id="node3" class="node"><title>Node3</title>
<polygon fill="none" stroke="#bfbfbf" points="26.5,-112.5 26.5,-131.5 78.5,-131.5 78.5,-112.5 26.5,-112.5"/>
<text text-anchor="middle" x="52.5" y="-119.5" font-family="Helvetica,sans-Serif" font-size="10.00">memory</text>
</g>
<!-- Node2&#45;&gt;Node3 -->
<g id="edge2" class="edge"><title>Node2&#45;&gt;Node3</title>
<path fill="none" stroke="midnightblue" d="M80.146,-224.368C75.2827,-206.537 64.0351,-165.295 57.4832,-141.272"/>
<polygon fill="midnightblue" stroke="midnightblue" points="60.851,-140.318 54.8431,-131.591 54.0977,-142.16 60.851,-140.318"/>
</g>
<!-- Node4 -->
<g id="node4" class="node"><title>Node4</title>
<g id="a_node4"><a xlink:href="DatabaseInterface_8h.html" target="_top" xlink:title="QualityControl/DatabaseInterface.h">
<polygon fill="none" stroke="black" points="214.5,-168.5 214.5,-187.5 384.5,-187.5 384.5,-168.5 214.5,-168.5"/>
<text text-anchor="middle" x="299.5" y="-175.5" font-family="Helvetica,sans-Serif" font-size="10.00">QualityControl/DatabaseInterface.h</text>
</a>
</g>
</g>
<!-- Node2&#45;&gt;Node4 -->
<g id="edge3" class="edge"><title>Node2&#45;&gt;Node4</title>
<path fill="none" stroke="midnightblue" d="M116.884,-224.444C154.422,-215.102 214.631,-200.119 255.567,-189.933"/>
<polygon fill="midnightblue" stroke="midnightblue" points="256.418,-193.328 265.277,-187.516 254.727,-186.535 256.418,-193.328"/>
</g>
<!-- Node4&#45;&gt;Node3 -->
<g id="edge5" class="edge"><title>Node4&#45;&gt;Node3</title>
<path fill="none" stroke="midnightblue" d="M255.706,-168.421C214.735,-160.245 151.599,-147.263 88.8829,-132.494"/>
<polygon fill="midnightblue" stroke="midnightblue" points="89.3622,-129.011 78.8244,-130.109 87.747,-135.822 89.3622,-129.011"/>
</g>
<!-- Node5 -->
<g id="node5" class="node"><title>Node5</title>
<polygon fill="none" stroke="#bfbfbf" points="553,-0.5 553,-19.5 594,-19.5 594,-0.5 553,-0.5"/>
<text text-anchor="middle" x="573.5" y="-7.5" font-family="Helvetica,sans-Serif" font-size="10.00">string</text>
</g>
<!-- Node4&#45;&gt;Node5 -->
<g id="edge4" class="edge"><title>Node4&#45;&gt;Node5</title>
<path fill="none" stroke="midnightblue" d="M368.208,-168.49C450.836,-157.925 579.41,-140.288 586.5,-132 611.355,-102.944 594.571,-54.4983 582.599,-28.5987"/>
<polygon fill="midnightblue" stroke="midnightblue" points="585.726,-27.026 578.194,-19.5746 579.436,-30.0965 585.726,-27.026"/>
</g>
<!-- Node6 -->
<g id="node6" class="node"><title>Node6</title>
<polygon fill="none" stroke="#bfbfbf" points="364.5,-112.5 364.5,-131.5 408.5,-131.5 408.5,-112.5 364.5,-112.5"/>
<text text-anchor="middle" x="386.5" y="-119.5" font-family="Helvetica,sans-Serif" font-size="10.00">vector</text>
</g>
<!-- Node4&#45;&gt;Node6 -->
<g id="edge6" class="edge"><title>Node4&#45;&gt;Node6</title>
<path fill="none" stroke="midnightblue" d="M313.478,-168.324C327.05,-159.9 347.88,-146.971 363.825,-137.074"/>
<polygon fill="midnightblue" stroke="midnightblue" points="365.906,-139.902 372.557,-131.655 362.214,-133.954 365.906,-139.902"/>
</g>
<!-- Node7 -->
<g id="node7" class="node"><title>Node7</title>
<polygon fill="none" stroke="#bfbfbf" points="263,-112.5 263,-131.5 346,-131.5 346,-112.5 263,-112.5"/>
<text text-anchor="middle" x="304.5" y="-119.5" font-family="Helvetica,sans-Serif" font-size="10.00">unordered_map</text>
</g>
<!-- Node4&#45;&gt;Node7 -->
<g id="edge7" class="edge"><title>Node4&#45;&gt;Node7</title>
<path fill="none" stroke="midnightblue" d="M300.326,-168.083C300.981,-161.006 301.92,-150.861 302.742,-141.986"/>
<polygon fill="midnightblue" stroke="midnightblue" points="306.253,-142.031 303.69,-131.751 299.283,-141.386 306.253,-142.031"/>
</g>
<!-- Node8 -->
<g id="node8" class="node"><title>Node8</title>
<g id="a_node8"><a xlink:href="QualityObject_8h_source.html" target="_top" xlink:title="QualityControl/QualityObject.h">
<polygon fill="none" stroke="black" points="96,-112.5 96,-131.5 245,-131.5 245,-112.5 96,-112.5"/>
<text text-anchor="middle" x="170.5" y="-119.5" font-family="Helvetica,sans-Serif" font-size="10.00">QualityControl/QualityObject.h</text>
</a>
</g>
</g>
<!-- Node4&#45;&gt;Node8 -->
<g id="edge8" class="edge"><title>Node4&#45;&gt;Node8</title>
<path fill="none" stroke="midnightblue" d="M279.06,-168.444C257.83,-159.557 224.401,-145.563 200.245,-135.451"/>
<polygon fill="midnightblue" stroke="midnightblue" points="201.421,-132.149 190.845,-131.516 198.718,-138.606 201.421,-132.149"/>
</g>
<!-- Node4&#45;&gt;Node14 -->
<g id="edge16" class="edge"><title>Node4&#45;&gt;Node14</title>
<path fill="none" stroke="midnightblue" d="M331.666,-168.444C366.559,-159.162 422.393,-144.309 460.671,-134.127"/>
<polygon fill="midnightblue" stroke="midnightblue" points="461.72,-137.47 470.485,-131.516 459.921,-130.705 461.72,-137.47"/>
</g>
<!-- Node9 -->
<g id="node9" class="node"><title>Node9</title>
<polygon fill="none" stroke="#bfbfbf" points="206,-0.5 206,-19.5 241,-19.5 241,-0.5 206,-0.5"/>
<text text-anchor="middle" x="223.5" y="-7.5" font-family="Helvetica,sans-Serif" font-size="10.00">map</text>
</g>
<!-- Node8&#45;&gt;Node9 -->
<g id="edge9" class="edge"><title>Node8&#45;&gt;Node9</title>
<path fill="none" stroke="midnightblue" d="M157.39,-112.476C140.116,-100.147 113.374,-76.5595 126.5,-56 141.66,-32.2543 172.934,-20.848 195.889,-15.4959"/>
<polygon fill="midnightblue" stroke="midnightblue" points="196.686,-18.9051 205.763,-13.4404 195.26,-12.0521 196.686,-18.9051"/>
</g>
<!-- Node10 -->
<g id="node10" class="node"><title>Node10</title>
<polygon fill="none" stroke="#bfbfbf" points="136,-56.5 136,-75.5 195,-75.5 195,-56.5 136,-56.5"/>
<text text-anchor="middle" x="165.5" y="-63.5" font-family="Helvetica,sans-Serif" font-size="10.00">TObject.h</text>
</g>
<!-- Node8&#45;&gt;Node10 -->
<g id="edge10" class="edge"><title>Node8&#45;&gt;Node10</title>
<path fill="none" stroke="midnightblue" d="M169.674,-112.083C169.019,-105.006 168.08,-94.8611 167.258,-85.9865"/>
<polygon fill="midnightblue" stroke="midnightblue" points="170.717,-85.3858 166.31,-75.7511 163.747,-86.0312 170.717,-85.3858"/>
</g>
<!-- Node11 -->
<g id="node11" class="node"><title>Node11</title>
<polygon fill="none" stroke="#bfbfbf" points="391.5,-56.5 391.5,-75.5 507.5,-75.5 507.5,-56.5 391.5,-56.5"/>
<text text-anchor="middle" x="449.5" y="-63.5" font-family="Helvetica,sans-Serif" font-size="10.00">Common/Exceptions.h</text>
</g>
<!-- Node8&#45;&gt;Node11 -->
<g id="edge11" class="edge"><title>Node8&#45;&gt;Node11</title>
<path fill="none" stroke="midnightblue" d="M214.708,-112.444C263.787,-102.944 343.01,-87.611 395.664,-77.4198"/>
<polygon fill="midnightblue" stroke="midnightblue" points="396.346,-80.853 405.498,-75.5164 395.016,-73.9805 396.346,-80.853"/>
</g>
<!-- Node12 -->
<g id="node12" class="node"><title>Node12</title>
<g id="a_node12"><a xlink:href="Quality_8h.html" target="_top" xlink:title="QualityControl/Quality.h">
<polygon fill="none" stroke="black" points="252,-56.5 252,-75.5 373,-75.5 373,-56.5 252,-56.5"/>
<text text-anchor="middle" x="312.5" y="-63.5" font-family="Helvetica,sans-Serif" font-size="10.00">QualityControl/Quality.h</text>
</a>
</g>
</g>
<!-- Node8&#45;&gt;Node12 -->
<g id="edge12" class="edge"><title>Node8&#45;&gt;Node12</title>
<path fill="none" stroke="midnightblue" d="M193,-112.444C216.577,-103.478 253.822,-89.314 280.464,-79.1827"/>
<polygon fill="midnightblue" stroke="midnightblue" points="282.002,-82.3424 290.105,-75.5164 279.514,-75.7995 282.002,-82.3424"/>
</g>
<!-- Node12&#45;&gt;Node5 -->
<g id="edge14" class="edge"><title>Node12&#45;&gt;Node5</title>
<path fill="none" stroke="midnightblue" d="M353.856,-56.4435C406.508,-45.5501 496.243,-26.9841 543.053,-17.2994"/>
<polygon fill="midnightblue" stroke="midnightblue" points="543.819,-20.7151 552.902,-15.2616 542.401,-13.8603 543.819,-20.7151"/>
</g>
<!-- Node12&#45;&gt;Node9 -->
<g id="edge15" class="edge"><title>Node12&#45;&gt;Node9</title>
<path fill="none" stroke="midnightblue" d="M298.201,-56.324C284.317,-47.9002 263.008,-34.9709 246.696,-25.0741"/>
<polygon fill="midnightblue" stroke="midnightblue" points="248.129,-21.8495 237.764,-19.6545 244.498,-27.8341 248.129,-21.8495"/>
</g>
<!-- Node13 -->
<g id="node13" class="node"><title>Node13</title>
<polygon fill="none" stroke="#bfbfbf" points="381.5,-0.5 381.5,-19.5 437.5,-19.5 437.5,-0.5 381.5,-0.5"/>
<text text-anchor="middle" x="409.5" y="-7.5" font-family="Helvetica,sans-Serif" font-size="10.00">Rtypes.h</text>
</g>
<!-- Node12&#45;&gt;Node13 -->
<g id="edge13" class="edge"><title>Node12&#45;&gt;Node13</title>
<path fill="none" stroke="midnightblue" d="M328.085,-56.324C343.499,-47.7428 367.312,-34.486 385.21,-24.5224"/>
<polygon fill="midnightblue" stroke="midnightblue" points="386.919,-27.5767 393.954,-19.6545 383.514,-21.4606 386.919,-27.5767"/>
</g>
<!-- Node14&#45;&gt;Node5 -->
<g id="edge17" class="edge"><title>Node14&#45;&gt;Node5</title>
<path fill="none" stroke="midnightblue" d="M514.395,-112.19C524.89,-103.877 539.96,-90.5479 549.5,-76 558.88,-61.6968 565.244,-43.2303 569.049,-29.6376"/>
<polygon fill="midnightblue" stroke="midnightblue" points="572.538,-30.1222 571.653,-19.5644 565.761,-28.37 572.538,-30.1222"/>
</g>
<!-- Node14&#45;&gt;Node9 -->
<g id="edge18" class="edge"><title>Node14&#45;&gt;Node9</title>
<path fill="none" stroke="midnightblue" d="M430.335,-112.463C358.336,-103.323 256.446,-88.4525 242.5,-76 229.502,-64.3935 225.186,-44.4377 223.856,-29.6915"/>
<polygon fill="midnightblue" stroke="midnightblue" points="227.348,-29.4567 223.326,-19.655 220.358,-29.8255 227.348,-29.4567"/>
</g>
<!-- Node14&#45;&gt;Node10 -->
<g id="edge20" class="edge"><title>Node14&#45;&gt;Node10</title>
<path fill="none" stroke="midnightblue" d="M441.186,-112.482C381.805,-104.021 289.289,-90.2784 209.5,-76 208.061,-75.7425 206.597,-75.4744 205.118,-75.1987"/>
<polygon fill="midnightblue" stroke="midnightblue" points="205.766,-71.7591 195.284,-73.2994 204.439,-78.6321 205.766,-71.7591"/>
</g>
<!-- Node14&#45;&gt;Node11 -->
<g id="edge21" class="edge"><title>Node14&#45;&gt;Node11</title>
<path fill="none" stroke="midnightblue" d="M493.748,-112.083C486.03,-104.22 474.595,-92.5688 465.283,-83.0813"/>
<polygon fill="midnightblue" stroke="midnightblue" points="467.592,-80.4363 458.089,-75.7511 462.596,-85.3396 467.592,-80.4363"/>
</g>
<!-- Node14&#45;&gt;Node13 -->
<g id="edge19" class="edge"><title>Node14&#45;&gt;Node13</title>
<path fill="none" stroke="midnightblue" d="M508.247,-112.233C516.145,-98.9703 528.125,-73.5 516.5,-56 501.279,-33.0867 471.869,-21.8146 447.729,-16.2837"/>
<polygon fill="midnightblue" stroke="midnightblue" points="448.261,-12.8201 437.762,-14.2477 446.86,-19.6785 448.261,-12.8201"/>
</g>
<!-- Node16 -->
<g id="node16" class="node"><title>Node16</title>
<polygon fill="none" stroke="#bfbfbf" points="588.5,-168.5 588.5,-187.5 718.5,-187.5 718.5,-168.5 588.5,-168.5"/>
<text text-anchor="middle" x="653.5" y="-175.5" font-family="Helvetica,sans-Serif" font-size="10.00">InfoLogger/InfoLogger.hxx</text>
</g>
<!-- Node15&#45;&gt;Node16 -->
<g id="edge23" class="edge"><title>Node15&#45;&gt;Node16</title>
<path fill="none" stroke="midnightblue" d="M653.5,-224.083C653.5,-217.006 653.5,-206.861 653.5,-197.986"/>
<polygon fill="midnightblue" stroke="midnightblue" points="657,-197.751 653.5,-187.751 650,-197.751 657,-197.751"/>
</g>
<!-- Node18&#45;&gt;Node4 -->
<g id="edge26" class="edge"><title>Node18&#45;&gt;Node4</title>
<path fill="none" stroke="midnightblue" d="M271.949,-224.083C276.514,-216.613 283.168,-205.724 288.793,-196.52"/>
<polygon fill="midnightblue" stroke="midnightblue" points="291.924,-198.109 294.152,-187.751 285.951,-194.459 291.924,-198.109"/>
</g>
<!-- Node19&#45;&gt;Node4 -->
<g id="edge29" class="edge"><title>Node19&#45;&gt;Node4</title>
<path fill="none" stroke="midnightblue" d="M422.366,-224.444C398.018,-215.438 359.493,-201.189 332.077,-191.049"/>
<polygon fill="midnightblue" stroke="midnightblue" points="333.119,-187.703 322.526,-187.516 330.691,-194.268 333.119,-187.703"/>
</g>
<!-- Node20 -->
<g id="node20" class="node"><title>Node20</title>
<polygon fill="none" stroke="#bfbfbf" points="403,-168.5 403,-187.5 498,-187.5 498,-168.5 403,-168.5"/>
<text text-anchor="middle" x="450.5" y="-175.5" font-family="Helvetica,sans-Serif" font-size="10.00">CCDB/CcdbApi.h</text>
</g>
<!-- Node19&#45;&gt;Node20 -->
<g id="edge28" class="edge"><title>Node19&#45;&gt;Node20</title>
<path fill="none" stroke="midnightblue" d="M446.326,-224.083C446.981,-217.006 447.92,-206.861 448.742,-197.986"/>
<polygon fill="midnightblue" stroke="midnightblue" points="452.253,-198.031 449.69,-187.751 445.283,-197.386 452.253,-198.031"/>
</g>
</g>
</svg>
        <g id="navigator" transform="translate(0 0)" fill="#404254">
                <rect fill="#f2f5e9" fill-opacity="0.5" stroke="#606060" stroke-width=".5" x="0" y="0" width="60" height="60"/>
                <use id="zoomplus" xlink:href="#zoomPlus" x="17" y="9" onmousedown="handleZoom(evt,'in')"/>
                <use id="zoomminus" xlink:href="#zoomMin" x="42" y="9" onmousedown="handleZoom(evt,'out')"/>
                <use id="reset" xlink:href="#resetDef" x="30" y="36" onmousedown="handleReset()"/>
                <g id="arrowUp" xlink:href="#dirArrow" transform="translate(30 24)" onmousedown="handlePan(0,-1)">
                  <use xlink:href="#rim" fill="#404040">
                        <set attributeName="fill" to="#808080" begin="arrowUp.mouseover" end="arrowUp.mouseout"/>
                  </use>
                  <path fill="none" stroke="white" stroke-width="1.5" d="M0,-3.0v7 M-2.5,-0.5L0,-3.0L2.5,-0.5"/>
                </g>
                <g id="arrowRight" xlink:href="#dirArrow" transform="rotate(90) translate(36 -43)" onmousedown="handlePan(1,0)">
                  <use xlink:href="#rim" fill="#404040">
                        <set attributeName="fill" to="#808080" begin="arrowRight.mouseover" end="arrowRight.mouseout"/>
                  </use>
                  <path fill="none" stroke="white" stroke-width="1.5" d="M0,-3.0v7 M-2.5,-0.5L0,-3.0L2.5,-0.5"/>
                </g>
                <g id="arrowDown" xlink:href="#dirArrow" transform="rotate(180) translate(-30 -48)" onmousedown="handlePan(0,1)">
                  <use xlink:href="#rim" fill="#404040">
                        <set attributeName="fill" to="#808080" begin="arrowDown.mouseover" end="arrowDown.mouseout"/>
                  </use>
                  <path fill="none" stroke="white" stroke-width="1.5" d="M0,-3.0v7 M-2.5,-0.5L0,-3.0L2.5,-0.5"/>
                </g>
                <g id="arrowLeft" xlink:href="#dirArrow" transform="rotate(270) translate(-36 17)" onmousedown="handlePan(-1,0)">
                  <use xlink:href="#rim" fill="#404040">
                        <set attributeName="fill" to="#808080" begin="arrowLeft.mouseover" end="arrowLeft.mouseout"/>
                  </use>
                  <path fill="none" stroke="white" stroke-width="1.5" d="M0,-3.0v7 M-2.5,-0.5L0,-3.0L2.5,-0.5"/>
                </g>
        </g>
        <svg viewBox="0 0 15 15" width="100%" height="30px" preserveAspectRatio="xMaxYMin meet">
         <g id="arrow_out" transform="scale(0.3 0.3)">
          <a xlink:href="testDbFactory_8cxx__incl_org.svg" target="_base">
           <rect id="button" ry="5" rx="5" y="6" x="6" height="38" width="38"
                fill="#f2f5e9" fill-opacity="0.5" stroke="#606060" stroke-width="1.0"/>
           <path id="arrow"
             d="M 11.500037,31.436501 C 11.940474,20.09759 22.043105,11.32322 32.158766,21.979434 L 37.068811,17.246167 C 37.068811,17.246167 37.088388,32 37.088388,32 L 22.160133,31.978069 C 22.160133,31.978069 26.997745,27.140456 26.997745,27.140456 C 18.528582,18.264221 13.291696,25.230495 11.500037,31.436501 z"
             style="fill:#404040;"/>
          </a>
         </g>
        </svg>
</svg>
