<?xml version="1.0" encoding="UTF-8" standalone="no"?>
<!DOCTYPE svg PUBLIC "-//W3C//DTD SVG 1.1//EN"
 "http://www.w3.org/Graphics/SVG/1.1/DTD/svg11.dtd">
<!-- Generated by graphviz version 2.38.0 (20140413.2041)
 -->
<!-- Title: Framework/test/testCcdbDatabase.cxx Pages: 1 -->
<!--zoomable 308 -->
<svg id="main" version="1.1" xmlns="http://www.w3.org/2000/svg" xmlns:xlink="http://www.w3.org/1999/xlink" xml:space="preserve" onload="init(evt)">
<style type="text/css"><![CDATA[
.edge:hover path { stroke: red; }
.edge:hover polygon { stroke: red; fill: red; }
]]></style>
<script type="text/javascript"><![CDATA[
var edges = document.getElementsByTagName('g');
if (edges && edges.length) {
  for (var i=0;i<edges.length;i++) {
    if (edges[i].id.substr(0,4)=='edge') {
      edges[i].setAttribute('class','edge');
    }
  }
}
]]></script>
        <defs>
                <circle id="rim" cx="0" cy="0" r="7"/>
                <circle id="rim2" cx="0" cy="0" r="3.5"/>
                <g id="zoomPlus">
                        <use xlink:href="#rim" fill="#404040">
                                <set attributeName="fill" to="#808080" begin="zoomplus.mouseover" end="zoomplus.mouseout"/>
                        </use>
                        <path d="M-4,0h8M0,-4v8" fill="none" stroke="white" stroke-width="1.5" pointer-events="none"/>
                </g>
                <g id="zoomMin">
                        <use xlink:href="#rim" fill="#404040">
                                <set attributeName="fill" to="#808080" begin="zoomminus.mouseover" end="zoomminus.mouseout"/>
                        </use>
                        <path d="M-4,0h8" fill="none" stroke="white" stroke-width="1.5" pointer-events="none"/>
                </g>
                <g id="dirArrow">
                        <path fill="none" stroke="white" stroke-width="1.5" d="M0,-3.0v7 M-2.5,-0.5L0,-3.0L2.5,-0.5"/>
                </g>
               <g id="resetDef">
                       <use xlink:href="#rim2" fill="#404040">
                               <set attributeName="fill" to="#808080" begin="reset.mouseover" end="reset.mouseout"/>
                       </use>
               </g>
        </defs>

<script type="text/javascript">
var viewWidth = 1076;
var viewHeight = 308;
var sectionId = 'dynsection-0';
</script>
<script xlink:href="svgpan.js"/>
<svg id="graph" class="graph">
<g id="viewport">
<title>Framework/test/testCcdbDatabase.cxx</title>
<!-- Node1 -->
<g id="node1" class="node"><title>Node1</title>
<polygon fill="#bfbfbf" stroke="black" points="501.5,-280.5 501.5,-299.5 689.5,-299.5 689.5,-280.5 501.5,-280.5"/>
<text text-anchor="middle" x="595.5" y="-287.5" font-family="Helvetica,sans-Serif" font-size="10.00">Framework/test/testCcdbDatabase.cxx</text>
</g>
<!-- Node2 -->
<g id="node2" class="node"><title>Node2</title>
<g id="a_node2"><a xlink:href="DatabaseFactory_8h.html" target="_top" xlink:title="QualityControl/DatabaseFactory.h">
<polygon fill="none" stroke="black" points="88,-224.5 88,-243.5 253,-243.5 253,-224.5 88,-224.5"/>
<text text-anchor="middle" x="170.5" y="-231.5" font-family="Helvetica,sans-Serif" font-size="10.00">QualityControl/DatabaseFactory.h</text>
</a>
</g>
</g>
<!-- Node1&#45;&gt;Node2 -->
<g id="edge1" class="edge"><title>Node1&#45;&gt;Node2</title>
<path fill="none" stroke="midnightblue" d="M528.157,-280.444C451.841,-270.747 327.678,-254.971 247.559,-244.791"/>
<polygon fill="midnightblue" stroke="midnightblue" points="247.889,-241.305 237.527,-243.516 247.007,-248.249 247.889,-241.305"/>
</g>
<!-- Node7 -->
<g id="node7" class="node"><title>Node7</title>
<polygon fill="none" stroke="#bfbfbf" points="0,-112.5 0,-131.5 83,-131.5 83,-112.5 0,-112.5"/>
<text text-anchor="middle" x="41.5" y="-119.5" font-family="Helvetica,sans-Serif" font-size="10.00">unordered_map</text>
</g>
<!-- Node1&#45;&gt;Node7 -->
<g id="edge22" class="edge"><title>Node1&#45;&gt;Node7</title>
<path fill="none" stroke="midnightblue" d="M501.46,-286.445C361.303,-281.801 110.562,-269.95 78.5,-244 47.7222,-219.089 41.9427,-169.271 41.2172,-141.97"/>
<polygon fill="midnightblue" stroke="midnightblue" points="44.7162,-141.766 41.1576,-131.786 37.7163,-141.807 44.7162,-141.766"/>
</g>
<!-- Node15 -->
<g id="node15" class="node"><title>Node15</title>
<g id="a_node15"><a xlink:href="CcdbDatabase_8h.html" target="_top" xlink:title="QualityControl/CcdbDatabase.h">
<polygon fill="none" stroke="black" points="271,-224.5 271,-243.5 426,-243.5 426,-224.5 271,-224.5"/>
<text text-anchor="middle" x="348.5" y="-231.5" font-family="Helvetica,sans-Serif" font-size="10.00">QualityControl/CcdbDatabase.h</text>
</a>
</g>
</g>
<!-- Node1&#45;&gt;Node15 -->
<g id="edge23" class="edge"><title>Node1&#45;&gt;Node15</title>
<path fill="none" stroke="midnightblue" d="M556.362,-280.444C513.274,-271.023 443.941,-255.866 397.329,-245.675"/>
<polygon fill="midnightblue" stroke="midnightblue" points="397.972,-242.233 387.455,-243.516 396.476,-249.072 397.972,-242.233"/>
</g>
<!-- Node17 -->
<g id="node17" class="node"><title>Node17</title>
<g id="a_node17"><a xlink:href="QcInfoLogger_8h.html" target="_top" xlink:title="QualityControl/QcInfoLogger.h">
<polygon fill="none" stroke="black" points="444,-224.5 444,-243.5 593,-243.5 593,-224.5 444,-224.5"/>
<text text-anchor="middle" x="518.5" y="-231.5" font-family="Helvetica,sans-Serif" font-size="10.00">QualityControl/QcInfoLogger.h</text>
</a>
</g>
</g>
<!-- Node1&#45;&gt;Node17 -->
<g id="edge26" class="edge"><title>Node1&#45;&gt;Node17</title>
<path fill="none" stroke="midnightblue" d="M583.129,-280.324C571.342,-272.058 553.368,-259.453 539.364,-249.632"/>
<polygon fill="midnightblue" stroke="midnightblue" points="541.038,-246.531 530.841,-243.655 537.018,-252.262 541.038,-246.531"/>
</g>
<!-- Node19 -->
<g id="node19" class="node"><title>Node19</title>
<polygon fill="none" stroke="#bfbfbf" points="611,-224.5 611,-243.5 734,-243.5 734,-224.5 611,-224.5"/>
<text text-anchor="middle" x="672.5" y="-231.5" font-family="Helvetica,sans-Serif" font-size="10.00">QualityControl/Version.h</text>
</g>
<!-- Node1&#45;&gt;Node19 -->
<g id="edge28" class="edge"><title>Node1&#45;&gt;Node19</title>
<path fill="none" stroke="midnightblue" d="M607.871,-280.324C619.658,-272.058 637.632,-259.453 651.636,-249.632"/>
<polygon fill="midnightblue" stroke="midnightblue" points="653.982,-252.262 660.159,-243.655 649.962,-246.531 653.982,-252.262"/>
</g>
<!-- Node20 -->
<g id="node20" class="node"><title>Node20</title>
<polygon fill="none" stroke="#bfbfbf" points="752,-224.5 752,-243.5 871,-243.5 871,-224.5 752,-224.5"/>
<text text-anchor="middle" x="811.5" y="-231.5" font-family="Helvetica,sans-Serif" font-size="10.00">boost/test/unit_test.hpp</text>
</g>
<!-- Node1&#45;&gt;Node20 -->
<g id="edge29" class="edge"><title>Node1&#45;&gt;Node20</title>
<path fill="none" stroke="midnightblue" d="M629.726,-280.444C667.012,-271.122 726.769,-256.183 767.511,-245.997"/>
<polygon fill="midnightblue" stroke="midnightblue" points="768.582,-249.337 777.434,-243.516 766.884,-242.546 768.582,-249.337"/>
</g>
<!-- Node21 -->
<g id="node21" class="node"><title>Node21</title>
<polygon fill="none" stroke="#bfbfbf" points="889.5,-224.5 889.5,-243.5 939.5,-243.5 939.5,-224.5 889.5,-224.5"/>
<text text-anchor="middle" x="914.5" y="-231.5" font-family="Helvetica,sans-Serif" font-size="10.00">TH1F.h</text>
</g>
<!-- Node1&#45;&gt;Node21 -->
<g id="edge30" class="edge"><title>Node1&#45;&gt;Node21</title>
<path fill="none" stroke="midnightblue" d="M661.79,-280.488C717.398,-272.902 799.084,-260.724 879.066,-244.126"/>
<polygon fill="midnightblue" stroke="midnightblue" points="880.251,-247.454 889.318,-241.973 878.812,-240.604 880.251,-247.454"/>
</g>
<!-- Node22 -->
<g id="node22" class="node"><title>Node22</title>
<polygon fill="none" stroke="#bfbfbf" points="957.5,-224.5 957.5,-243.5 1067.5,-243.5 1067.5,-224.5 957.5,-224.5"/>
<text text-anchor="middle" x="1012.5" y="-231.5" font-family="Helvetica,sans-Serif" font-size="10.00">rapidjson/document.h</text>
</g>
<!-- Node1&#45;&gt;Node22 -->
<g id="edge31" class="edge"><title>Node1&#45;&gt;Node22</title>
<path fill="none" stroke="midnightblue" d="M664.528,-280.468C733.487,-271.883 842.819,-258.109 947.258,-244.153"/>
<polygon fill="midnightblue" stroke="midnightblue" points="947.901,-247.598 957.348,-242.802 946.972,-240.66 947.901,-247.598"/>
</g>
<!-- Node3 -->
<g id="node3" class="node"><title>Node3</title>
<polygon fill="none" stroke="#bfbfbf" points="101.5,-112.5 101.5,-131.5 153.5,-131.5 153.5,-112.5 101.5,-112.5"/>
<text text-anchor="middle" x="127.5" y="-119.5" font-family="Helvetica,sans-Serif" font-size="10.00">memory</text>
</g>
<!-- Node2&#45;&gt;Node3 -->
<g id="edge2" class="edge"><title>Node2&#45;&gt;Node3</title>
<path fill="none" stroke="midnightblue" d="M166.188,-224.497C161.728,-215.54 154.7,-200.962 149.5,-188 143.263,-172.451 137.239,-154.371 133.077,-141.232"/>
<polygon fill="midnightblue" stroke="midnightblue" points="136.369,-140.03 130.055,-131.522 129.685,-142.111 136.369,-140.03"/>
</g>
<!-- Node4 -->
<g id="node4" class="node"><title>Node4</title>
<g id="a_node4"><a xlink:href="DatabaseInterface_8h.html" target="_top" xlink:title="QualityControl/DatabaseInterface.h">
<polygon fill="none" stroke="black" points="158.5,-168.5 158.5,-187.5 328.5,-187.5 328.5,-168.5 158.5,-168.5"/>
<text text-anchor="middle" x="243.5" y="-175.5" font-family="Helvetica,sans-Serif" font-size="10.00">QualityControl/DatabaseInterface.h</text>
</a>
</g>
</g>
<!-- Node2&#45;&gt;Node4 -->
<g id="edge3" class="edge"><title>Node2&#45;&gt;Node4</title>
<path fill="none" stroke="midnightblue" d="M182.229,-224.324C193.337,-216.107 210.242,-203.602 223.483,-193.807"/>
<polygon fill="midnightblue" stroke="midnightblue" points="225.6,-196.595 231.558,-187.834 221.437,-190.967 225.6,-196.595"/>
</g>
<!-- Node4&#45;&gt;Node3 -->
<g id="edge5" class="edge"><title>Node4&#45;&gt;Node3</title>
<path fill="none" stroke="midnightblue" d="M225.119,-168.444C206.284,-159.675 176.769,-145.935 155.121,-135.858"/>
<polygon fill="midnightblue" stroke="midnightblue" points="156.338,-132.564 145.795,-131.516 153.383,-138.91 156.338,-132.564"/>
</g>
<!-- Node5 -->
<g id="node5" class="node"><title>Node5</title>
<polygon fill="none" stroke="#bfbfbf" points="465,-0.5 465,-19.5 506,-19.5 506,-0.5 465,-0.5"/>
<text text-anchor="middle" x="485.5" y="-7.5" font-family="Helvetica,sans-Serif" font-size="10.00">string</text>
</g>
<!-- Node4&#45;&gt;Node5 -->
<g id="edge4" class="edge"><title>Node4&#45;&gt;Node5</title>
<path fill="none" stroke="midnightblue" d="M319.675,-168.471C390.251,-159.785 486.027,-145.684 497.5,-132 521.937,-102.853 506.031,-54.7968 494.466,-28.8861"/>
<polygon fill="midnightblue" stroke="midnightblue" points="497.488,-27.0894 490.049,-19.5449 491.16,-30.0815 497.488,-27.0894"/>
</g>
<!-- Node6 -->
<g id="node6" class="node"><title>Node6</title>
<polygon fill="none" stroke="#bfbfbf" points="551.5,-112.5 551.5,-131.5 595.5,-131.5 595.5,-112.5 551.5,-112.5"/>
<text text-anchor="middle" x="573.5" y="-119.5" font-family="Helvetica,sans-Serif" font-size="10.00">vector</text>
</g>
<!-- Node4&#45;&gt;Node6 -->
<g id="edge6" class="edge"><title>Node4&#45;&gt;Node6</title>
<path fill="none" stroke="midnightblue" d="M310.954,-168.493C370.747,-160.521 460.3,-147.523 537.5,-132 538.779,-131.743 540.081,-131.47 541.394,-131.186"/>
<polygon fill="midnightblue" stroke="midnightblue" points="542.537,-134.514 551.489,-128.848 540.957,-127.694 542.537,-134.514"/>
</g>
<!-- Node4&#45;&gt;Node7 -->
<g id="edge7" class="edge"><title>Node4&#45;&gt;Node7</title>
<path fill="none" stroke="midnightblue" d="M211.492,-168.444C176.771,-159.162 121.212,-144.309 83.1231,-134.127"/>
<polygon fill="midnightblue" stroke="midnightblue" points="83.9224,-130.718 73.3578,-131.516 82.1146,-137.48 83.9224,-130.718"/>
</g>
<!-- Node8 -->
<g id="node8" class="node"><title>Node8</title>
<g id="a_node8"><a xlink:href="QualityObject_8h_source.html" target="_top" xlink:title="QualityControl/QualityObject.h">
<polygon fill="none" stroke="black" points="171,-112.5 171,-131.5 320,-131.5 320,-112.5 171,-112.5"/>
<text text-anchor="middle" x="245.5" y="-119.5" font-family="Helvetica,sans-Serif" font-size="10.00">QualityControl/QualityObject.h</text>
</a>
</g>
</g>
<!-- Node4&#45;&gt;Node8 -->
<g id="edge8" class="edge"><title>Node4&#45;&gt;Node8</title>
<path fill="none" stroke="midnightblue" d="M243.83,-168.083C244.092,-161.006 244.468,-150.861 244.797,-141.986"/>
<polygon fill="midnightblue" stroke="midnightblue" points="248.303,-141.874 245.176,-131.751 241.308,-141.615 248.303,-141.874"/>
</g>
<!-- Node14 -->
<g id="node14" class="node"><title>Node14</title>
<g id="a_node14"><a xlink:href="MonitorObject_8h.html" target="_top" xlink:title="QualityControl/MonitorObject.h">
<polygon fill="none" stroke="black" points="338,-112.5 338,-131.5 489,-131.5 489,-112.5 338,-112.5"/>
<text text-anchor="middle" x="413.5" y="-119.5" font-family="Helvetica,sans-Serif" font-size="10.00">QualityControl/MonitorObject.h</text>
</a>
</g>
</g>
<!-- Node4&#45;&gt;Node14 -->
<g id="edge16" class="edge"><title>Node4&#45;&gt;Node14</title>
<path fill="none" stroke="midnightblue" d="M270.437,-168.444C299.16,-159.32 344.829,-144.813 376.821,-134.651"/>
<polygon fill="midnightblue" stroke="midnightblue" points="378.218,-137.88 386.689,-131.516 376.099,-131.208 378.218,-137.88"/>
</g>
<!-- Node9 -->
<g id="node9" class="node"><title>Node9</title>
<polygon fill="none" stroke="#bfbfbf" points="91,-0.5 91,-19.5 126,-19.5 126,-0.5 91,-0.5"/>
<text text-anchor="middle" x="108.5" y="-7.5" font-family="Helvetica,sans-Serif" font-size="10.00">map</text>
</g>
<!-- Node8&#45;&gt;Node9 -->
<g id="edge9" class="edge"><title>Node8&#45;&gt;Node9</title>
<path fill="none" stroke="midnightblue" d="M189.236,-112.462C131.26,-103.091 48.0198,-87.8117 38.5,-76 21.3529,-54.7248 55.275,-33.91 81.6314,-21.7761"/>
<polygon fill="midnightblue" stroke="midnightblue" points="83.1396,-24.9365 90.8908,-17.7137 80.3271,-18.5263 83.1396,-24.9365"/>
</g>
<!-- Node10 -->
<g id="node10" class="node"><title>Node10</title>
<polygon fill="none" stroke="#bfbfbf" points="322,-56.5 322,-75.5 381,-75.5 381,-56.5 322,-56.5"/>
<text text-anchor="middle" x="351.5" y="-63.5" font-family="Helvetica,sans-Serif" font-size="10.00">TObject.h</text>
</g>
<!-- Node8&#45;&gt;Node10 -->
<g id="edge10" class="edge"><title>Node8&#45;&gt;Node10</title>
<path fill="none" stroke="midnightblue" d="M262.531,-112.324C279.53,-103.664 305.876,-90.2424 325.493,-80.249"/>
<polygon fill="midnightblue" stroke="midnightblue" points="327.19,-83.3125 334.512,-75.6545 324.012,-77.0752 327.19,-83.3125"/>
</g>
<!-- Node11 -->
<g id="node11" class="node"><title>Node11</title>
<polygon fill="none" stroke="#bfbfbf" points="187.5,-56.5 187.5,-75.5 303.5,-75.5 303.5,-56.5 187.5,-56.5"/>
<text text-anchor="middle" x="245.5" y="-63.5" font-family="Helvetica,sans-Serif" font-size="10.00">Common/Exceptions.h</text>
</g>
<!-- Node8&#45;&gt;Node11 -->
<g id="edge11" class="edge"><title>Node8&#45;&gt;Node11</title>
<path fill="none" stroke="midnightblue" d="M245.5,-112.083C245.5,-105.006 245.5,-94.8611 245.5,-85.9865"/>
<polygon fill="midnightblue" stroke="midnightblue" points="249,-85.751 245.5,-75.7511 242,-85.7511 249,-85.751"/>
</g>
<!-- Node12 -->
<g id="node12" class="node"><title>Node12</title>
<g id="a_node12"><a xlink:href="Quality_8h.html" target="_top" xlink:title="QualityControl/Quality.h">
<polygon fill="none" stroke="black" points="48,-56.5 48,-75.5 169,-75.5 169,-56.5 48,-56.5"/>
<text text-anchor="middle" x="108.5" y="-63.5" font-family="Helvetica,sans-Serif" font-size="10.00">QualityControl/Quality.h</text>
</a>
</g>
</g>
<!-- Node8&#45;&gt;Node12 -->
<g id="edge12" class="edge"><title>Node8&#45;&gt;Node12</title>
<path fill="none" stroke="midnightblue" d="M223.792,-112.444C201.145,-103.517 165.428,-89.4387 139.748,-79.3168"/>
<polygon fill="midnightblue" stroke="midnightblue" points="140.693,-75.9273 130.106,-75.5164 138.126,-82.4397 140.693,-75.9273"/>
</g>
<!-- Node12&#45;&gt;Node5 -->
<g id="edge14" class="edge"><title>Node12&#45;&gt;Node5</title>
<path fill="none" stroke="midnightblue" d="M168.237,-56.4435C249.689,-44.7767 392.584,-24.309 454.944,-15.3767"/>
<polygon fill="midnightblue" stroke="midnightblue" points="455.528,-18.8289 464.931,-13.9463 454.535,-11.8996 455.528,-18.8289"/>
</g>
<!-- Node12&#45;&gt;Node9 -->
<g id="edge15" class="edge"><title>Node12&#45;&gt;Node9</title>
<path fill="none" stroke="midnightblue" d="M108.5,-56.083C108.5,-49.0059 108.5,-38.8611 108.5,-29.9865"/>
<polygon fill="midnightblue" stroke="midnightblue" points="112,-29.751 108.5,-19.7511 105,-29.7511 112,-29.751"/>
</g>
<!-- Node13 -->
<g id="node13" class="node"><title>Node13</title>
<polygon fill="none" stroke="#bfbfbf" points="267.5,-0.5 267.5,-19.5 323.5,-19.5 323.5,-0.5 267.5,-0.5"/>
<text text-anchor="middle" x="295.5" y="-7.5" font-family="Helvetica,sans-Serif" font-size="10.00">Rtypes.h</text>
</g>
<!-- Node12&#45;&gt;Node13 -->
<g id="edge13" class="edge"><title>Node12&#45;&gt;Node13</title>
<path fill="none" stroke="midnightblue" d="M138.131,-56.4435C170.375,-47.1323 222.031,-32.2155 257.301,-22.0308"/>
<polygon fill="midnightblue" stroke="midnightblue" points="258.596,-25.3 267.232,-19.1629 256.654,-18.5748 258.596,-25.3"/>
</g>
<!-- Node14&#45;&gt;Node5 -->
<g id="edge17" class="edge"><title>Node14&#45;&gt;Node5</title>
<path fill="none" stroke="midnightblue" d="M425.657,-112.243C436.381,-103.966 451.776,-90.6593 461.5,-76 470.955,-61.7463 477.31,-43.2743 481.093,-29.6669"/>
<polygon fill="midnightblue" stroke="midnightblue" points="484.586,-30.1361 483.677,-19.5803 477.805,-28.399 484.586,-30.1361"/>
</g>
<!-- Node14&#45;&gt;Node9 -->
<g id="edge18" class="edge"><title>Node14&#45;&gt;Node9</title>
<path fill="none" stroke="midnightblue" d="M412.975,-112.265C411.623,-98.0824 406.786,-70.2068 389.5,-56 351.073,-24.4175 199.259,-14.6778 136.195,-11.9588"/>
<polygon fill="midnightblue" stroke="midnightblue" points="136.313,-8.4608 126.18,-11.5545 136.031,-15.4551 136.313,-8.4608"/>
</g>
<!-- Node14&#45;&gt;Node10 -->
<g id="edge20" class="edge"><title>Node14&#45;&gt;Node10</title>
<path fill="none" stroke="midnightblue" d="M403.539,-112.324C394.373,-104.341 380.563,-92.3128 369.472,-82.6529"/>
<polygon fill="midnightblue" stroke="midnightblue" points="371.482,-79.7624 361.643,-75.8339 366.885,-85.041 371.482,-79.7624"/>
</g>
<!-- Node14&#45;&gt;Node11 -->
<g id="edge21" class="edge"><title>Node14&#45;&gt;Node11</title>
<path fill="none" stroke="midnightblue" d="M386.88,-112.444C358.494,-103.32 313.363,-88.8133 281.747,-78.6509"/>
<polygon fill="midnightblue" stroke="midnightblue" points="282.587,-75.2445 271.996,-75.5164 280.445,-81.9087 282.587,-75.2445"/>
</g>
<!-- Node14&#45;&gt;Node13 -->
<g id="edge19" class="edge"><title>Node14&#45;&gt;Node13</title>
<path fill="none" stroke="midnightblue" d="M418.535,-112.097C425.39,-98.6558 435.512,-72.956 423.5,-56 403.341,-27.5444 363.691,-16.9511 333.835,-13.0771"/>
<polygon fill="midnightblue" stroke="midnightblue" points="334.053,-9.58009 323.731,-11.9687 333.289,-16.5384 334.053,-9.58009"/>
</g>
<!-- Node15&#45;&gt;Node4 -->
<g id="edge25" class="edge"><title>Node15&#45;&gt;Node4</title>
<path fill="none" stroke="midnightblue" d="M331.63,-224.324C314.791,-215.664 288.693,-202.242 269.262,-192.249"/>
<polygon fill="midnightblue" stroke="midnightblue" points="270.822,-189.116 260.328,-187.655 267.62,-195.341 270.822,-189.116"/>
</g>
<!-- Node16 -->
<g id="node16" class="node"><title>Node16</title>
<polygon fill="none" stroke="#bfbfbf" points="347,-168.5 347,-187.5 442,-187.5 442,-168.5 347,-168.5"/>
<text text-anchor="middle" x="394.5" y="-175.5" font-family="Helvetica,sans-Serif" font-size="10.00">CCDB/CcdbApi.h</text>
</g>
<!-- Node15&#45;&gt;Node16 -->
<g id="edge24" class="edge"><title>Node15&#45;&gt;Node16</title>
<path fill="none" stroke="midnightblue" d="M356.096,-224.083C362.727,-216.298 372.521,-204.801 380.558,-195.367"/>
<polygon fill="midnightblue" stroke="midnightblue" points="383.225,-197.633 387.045,-187.751 377.896,-193.094 383.225,-197.633"/>
</g>
<!-- Node18 -->
<g id="node18" class="node"><title>Node18</title>
<polygon fill="none" stroke="#bfbfbf" points="460.5,-168.5 460.5,-187.5 590.5,-187.5 590.5,-168.5 460.5,-168.5"/>
<text text-anchor="middle" x="525.5" y="-175.5" font-family="Helvetica,sans-Serif" font-size="10.00">InfoLogger/InfoLogger.hxx</text>
</g>
<!-- Node17&#45;&gt;Node18 -->
<g id="edge27" class="edge"><title>Node17&#45;&gt;Node18</title>
<path fill="none" stroke="midnightblue" d="M519.656,-224.083C520.584,-216.927 521.918,-206.635 523.077,-197.691"/>
<polygon fill="midnightblue" stroke="midnightblue" points="526.551,-198.118 524.366,-187.751 519.609,-197.218 526.551,-198.118"/>
</g>
</g>
</svg>
        <g id="navigator" transform="translate(0 0)" fill="#404254">
                <rect fill="#f2f5e9" fill-opacity="0.5" stroke="#606060" stroke-width=".5" x="0" y="0" width="60" height="60"/>
                <use id="zoomplus" xlink:href="#zoomPlus" x="17" y="9" onmousedown="handleZoom(evt,'in')"/>
                <use id="zoomminus" xlink:href="#zoomMin" x="42" y="9" onmousedown="handleZoom(evt,'out')"/>
                <use id="reset" xlink:href="#resetDef" x="30" y="36" onmousedown="handleReset()"/>
                <g id="arrowUp" xlink:href="#dirArrow" transform="translate(30 24)" onmousedown="handlePan(0,-1)">
                  <use xlink:href="#rim" fill="#404040">
                        <set attributeName="fill" to="#808080" begin="arrowUp.mouseover" end="arrowUp.mouseout"/>
                  </use>
                  <path fill="none" stroke="white" stroke-width="1.5" d="M0,-3.0v7 M-2.5,-0.5L0,-3.0L2.5,-0.5"/>
                </g>
                <g id="arrowRight" xlink:href="#dirArrow" transform="rotate(90) translate(36 -43)" onmousedown="handlePan(1,0)">
                  <use xlink:href="#rim" fill="#404040">
                        <set attributeName="fill" to="#808080" begin="arrowRight.mouseover" end="arrowRight.mouseout"/>
                  </use>
                  <path fill="none" stroke="white" stroke-width="1.5" d="M0,-3.0v7 M-2.5,-0.5L0,-3.0L2.5,-0.5"/>
                </g>
                <g id="arrowDown" xlink:href="#dirArrow" transform="rotate(180) translate(-30 -48)" onmousedown="handlePan(0,1)">
                  <use xlink:href="#rim" fill="#404040">
                        <set attributeName="fill" to="#808080" begin="arrowDown.mouseover" end="arrowDown.mouseout"/>
                  </use>
                  <path fill="none" stroke="white" stroke-width="1.5" d="M0,-3.0v7 M-2.5,-0.5L0,-3.0L2.5,-0.5"/>
                </g>
                <g id="arrowLeft" xlink:href="#dirArrow" transform="rotate(270) translate(-36 17)" onmousedown="handlePan(-1,0)">
                  <use xlink:href="#rim" fill="#404040">
                        <set attributeName="fill" to="#808080" begin="arrowLeft.mouseover" end="arrowLeft.mouseout"/>
                  </use>
                  <path fill="none" stroke="white" stroke-width="1.5" d="M0,-3.0v7 M-2.5,-0.5L0,-3.0L2.5,-0.5"/>
                </g>
        </g>
        <svg viewBox="0 0 15 15" width="100%" height="30px" preserveAspectRatio="xMaxYMin meet">
         <g id="arrow_out" transform="scale(0.3 0.3)">
          <a xlink:href="testCcdbDatabase_8cxx__incl_org.svg" target="_base">
           <rect id="button" ry="5" rx="5" y="6" x="6" height="38" width="38"
                fill="#f2f5e9" fill-opacity="0.5" stroke="#606060" stroke-width="1.0"/>
           <path id="arrow"
             d="M 11.500037,31.436501 C 11.940474,20.09759 22.043105,11.32322 32.158766,21.979434 L 37.068811,17.246167 C 37.068811,17.246167 37.088388,32 37.088388,32 L 22.160133,31.978069 C 22.160133,31.978069 26.997745,27.140456 26.997745,27.140456 C 18.528582,18.264221 13.291696,25.230495 11.500037,31.436501 z"
             style="fill:#404040;"/>
          </a>
         </g>
        </svg>
</svg>
