<?xml version="1.0" encoding="UTF-8" standalone="no"?>
<!DOCTYPE svg PUBLIC "-//W3C//DTD SVG 1.1//EN"
 "http://www.w3.org/Graphics/SVG/1.1/DTD/svg11.dtd">
<!-- Generated by graphviz version 2.38.0 (20140413.2041)
 -->
<!-- Title: Modules/TOF/src/TOFCheckRawsMulti.cxx Pages: 1 -->
<!--zoomable 263 -->
<svg id="main" version="1.1" xmlns="http://www.w3.org/2000/svg" xmlns:xlink="http://www.w3.org/1999/xlink" xml:space="preserve" onload="init(evt)">
<style type="text/css"><![CDATA[
.edge:hover path { stroke: red; }
.edge:hover polygon { stroke: red; fill: red; }
]]></style>
<script type="text/javascript"><![CDATA[
var edges = document.getElementsByTagName('g');
if (edges && edges.length) {
  for (var i=0;i<edges.length;i++) {
    if (edges[i].id.substr(0,4)=='edge') {
      edges[i].setAttribute('class','edge');
    }
  }
}
]]></script>
        <defs>
                <circle id="rim" cx="0" cy="0" r="7"/>
                <circle id="rim2" cx="0" cy="0" r="3.5"/>
                <g id="zoomPlus">
                        <use xlink:href="#rim" fill="#404040">
                                <set attributeName="fill" to="#808080" begin="zoomplus.mouseover" end="zoomplus.mouseout"/>
                        </use>
                        <path d="M-4,0h8M0,-4v8" fill="none" stroke="white" stroke-width="1.5" pointer-events="none"/>
                </g>
                <g id="zoomMin">
                        <use xlink:href="#rim" fill="#404040">
                                <set attributeName="fill" to="#808080" begin="zoomminus.mouseover" end="zoomminus.mouseout"/>
                        </use>
                        <path d="M-4,0h8" fill="none" stroke="white" stroke-width="1.5" pointer-events="none"/>
                </g>
                <g id="dirArrow">
                        <path fill="none" stroke="white" stroke-width="1.5" d="M0,-3.0v7 M-2.5,-0.5L0,-3.0L2.5,-0.5"/>
                </g>
               <g id="resetDef">
                       <use xlink:href="#rim2" fill="#404040">
                               <set attributeName="fill" to="#808080" begin="reset.mouseover" end="reset.mouseout"/>
                       </use>
               </g>
        </defs>

<script type="text/javascript">
var viewWidth = 913;
var viewHeight = 263;
var sectionId = 'dynsection-0';
</script>
<script xlink:href="svgpan.js"/>
<svg id="graph" class="graph">
<g id="viewport">
<title>Modules/TOF/src/TOFCheckRawsMulti.cxx</title>
<!-- Node1 -->
<g id="node1" class="node"><title>Node1</title>
<polygon fill="#bfbfbf" stroke="black" points="524,-224.5 524,-254.5 667,-254.5 667,-224.5 524,-224.5"/>
<text text-anchor="start" x="532" y="-242.5" font-family="Helvetica,sans-Serif" font-size="10.00">Modules/TOF/src/TOFCheck</text>
<text text-anchor="middle" x="595.5" y="-231.5" font-family="Helvetica,sans-Serif" font-size="10.00">RawsMulti.cxx</text>
</g>
<!-- Node2 -->
<g id="node2" class="node"><title>Node2</title>
<g id="a_node2"><a xlink:href="TOFCheckRawsMulti_8h.html" target="_top" xlink:title="TOF/TOFCheckRawsMulti.h">
<polygon fill="none" stroke="black" points="304.5,-168.5 304.5,-187.5 446.5,-187.5 446.5,-168.5 304.5,-168.5"/>
<text text-anchor="middle" x="375.5" y="-175.5" font-family="Helvetica,sans-Serif" font-size="10.00">TOF/TOFCheckRawsMulti.h</text>
</a>
</g>
</g>
<!-- Node1&#45;&gt;Node2 -->
<g id="edge1" class="edge"><title>Node1&#45;&gt;Node2</title>
<path fill="none" stroke="midnightblue" d="M543.642,-224.475C504.858,-213.986 452.543,-199.837 416.624,-190.122"/>
<polygon fill="midnightblue" stroke="midnightblue" points="417.519,-186.739 406.952,-187.506 415.692,-193.496 417.519,-186.739"/>
</g>
<!-- Node8 -->
<g id="node8" class="node"><title>Node8</title>
<g id="a_node8"><a xlink:href="MonitorObject_8h.html" target="_top" xlink:title="QualityControl/MonitorObject.h">
<polygon fill="none" stroke="black" points="55,-56.5 55,-75.5 206,-75.5 206,-56.5 55,-56.5"/>
<text text-anchor="middle" x="130.5" y="-63.5" font-family="Helvetica,sans-Serif" font-size="10.00">QualityControl/MonitorObject.h</text>
</a>
</g>
</g>
<!-- Node1&#45;&gt;Node8 -->
<g id="edge18" class="edge"><title>Node1&#45;&gt;Node8</title>
<path fill="none" stroke="midnightblue" d="M523.756,-234.279C461.666,-228.802 370.339,-216.314 295.5,-188 232.904,-164.318 173.076,-109.958 145.845,-82.9009"/>
<polygon fill="midnightblue" stroke="midnightblue" points="148.283,-80.3893 138.762,-75.7422 143.307,-85.3126 148.283,-80.3893"/>
</g>
<!-- Node11 -->
<g id="node11" class="node"><title>Node11</title>
<g id="a_node11"><a xlink:href="Quality_8h.html" target="_top" xlink:title="QualityControl/Quality.h">
<polygon fill="none" stroke="black" points="403,-56.5 403,-75.5 524,-75.5 524,-56.5 403,-56.5"/>
<text text-anchor="middle" x="463.5" y="-63.5" font-family="Helvetica,sans-Serif" font-size="10.00">QualityControl/Quality.h</text>
</a>
</g>
</g>
<!-- Node1&#45;&gt;Node11 -->
<g id="edge19" class="edge"><title>Node1&#45;&gt;Node11</title>
<path fill="none" stroke="midnightblue" d="M547.892,-224.441C528.782,-216.572 508.104,-204.858 494.5,-188 470.408,-158.145 464.81,-111.77 463.65,-85.9641"/>
<polygon fill="midnightblue" stroke="midnightblue" points="467.141,-85.592 463.379,-75.6878 460.144,-85.7766 467.141,-85.592"/>
</g>
<!-- Node13 -->
<g id="node13" class="node"><title>Node13</title>
<polygon fill="none" stroke="#bfbfbf" points="503,-168.5 503,-187.5 600,-187.5 600,-168.5 503,-168.5"/>
<text text-anchor="middle" x="551.5" y="-175.5" font-family="Helvetica,sans-Serif" font-size="10.00">fairlogger/Logger.h</text>
</g>
<!-- Node1&#45;&gt;Node13 -->
<g id="edge20" class="edge"><title>Node1&#45;&gt;Node13</title>
<path fill="none" stroke="midnightblue" d="M585.073,-224.399C578.745,-215.842 570.631,-204.871 563.966,-195.857"/>
<polygon fill="midnightblue" stroke="midnightblue" points="566.662,-193.617 557.902,-187.658 561.034,-197.779 566.662,-193.617"/>
</g>
<!-- Node14 -->
<g id="node14" class="node"><title>Node14</title>
<polygon fill="none" stroke="#bfbfbf" points="617.5,-168.5 617.5,-187.5 661.5,-187.5 661.5,-168.5 617.5,-168.5"/>
<text text-anchor="middle" x="639.5" y="-175.5" font-family="Helvetica,sans-Serif" font-size="10.00">TH1.h</text>
</g>
<!-- Node1&#45;&gt;Node14 -->
<g id="edge21" class="edge"><title>Node1&#45;&gt;Node14</title>
<path fill="none" stroke="midnightblue" d="M605.927,-224.399C612.255,-215.842 620.369,-204.871 627.034,-195.857"/>
<polygon fill="midnightblue" stroke="midnightblue" points="629.966,-197.779 633.098,-187.658 624.338,-193.617 629.966,-197.779"/>
</g>
<!-- Node15 -->
<g id="node15" class="node"><title>Node15</title>
<polygon fill="none" stroke="#bfbfbf" points="680,-168.5 680,-187.5 753,-187.5 753,-168.5 680,-168.5"/>
<text text-anchor="middle" x="716.5" y="-175.5" font-family="Helvetica,sans-Serif" font-size="10.00">TPaveText.h</text>
</g>
<!-- Node1&#45;&gt;Node15 -->
<g id="edge22" class="edge"><title>Node1&#45;&gt;Node15</title>
<path fill="none" stroke="midnightblue" d="M624.175,-224.399C644.024,-214.639 670.261,-201.737 689.692,-192.183"/>
<polygon fill="midnightblue" stroke="midnightblue" points="691.464,-195.211 698.893,-187.658 688.375,-188.93 691.464,-195.211"/>
</g>
<!-- Node16 -->
<g id="node16" class="node"><title>Node16</title>
<polygon fill="none" stroke="#bfbfbf" points="771,-168.5 771,-187.5 818,-187.5 818,-168.5 771,-168.5"/>
<text text-anchor="middle" x="794.5" y="-175.5" font-family="Helvetica,sans-Serif" font-size="10.00">TList.h</text>
</g>
<!-- Node1&#45;&gt;Node16 -->
<g id="edge23" class="edge"><title>Node1&#45;&gt;Node16</title>
<path fill="none" stroke="midnightblue" d="M642.408,-224.475C678.802,-213.593 728.37,-198.773 760.886,-189.05"/>
<polygon fill="midnightblue" stroke="midnightblue" points="762.227,-192.303 770.806,-186.084 760.222,-185.596 762.227,-192.303"/>
</g>
<!-- Node17 -->
<g id="node17" class="node"><title>Node17</title>
<polygon fill="none" stroke="#bfbfbf" points="836,-168.5 836,-187.5 905,-187.5 905,-168.5 836,-168.5"/>
<text text-anchor="middle" x="870.5" y="-175.5" font-family="Helvetica,sans-Serif" font-size="10.00">TObjArray.h</text>
</g>
<!-- Node1&#45;&gt;Node17 -->
<g id="edge24" class="edge"><title>Node1&#45;&gt;Node17</title>
<path fill="none" stroke="midnightblue" d="M660.323,-224.475C711.295,-213.446 780.966,-198.372 825.854,-188.66"/>
<polygon fill="midnightblue" stroke="midnightblue" points="826.839,-192.028 835.872,-186.492 825.358,-185.186 826.839,-192.028"/>
</g>
<!-- Node3 -->
<g id="node3" class="node"><title>Node3</title>
<g id="a_node3"><a xlink:href="CheckInterface_8h.html" target="_top" xlink:title="QualityControl/CheckInterface.h">
<polygon fill="none" stroke="black" points="215,-112.5 215,-131.5 372,-131.5 372,-112.5 215,-112.5"/>
<text text-anchor="middle" x="293.5" y="-119.5" font-family="Helvetica,sans-Serif" font-size="10.00">QualityControl/CheckInterface.h</text>
</a>
</g>
</g>
<!-- Node2&#45;&gt;Node3 -->
<g id="edge2" class="edge"><title>Node2&#45;&gt;Node3</title>
<path fill="none" stroke="midnightblue" d="M362.325,-168.324C349.653,-159.979 330.267,-147.212 315.294,-137.352"/>
<polygon fill="midnightblue" stroke="midnightblue" points="316.919,-134.231 306.642,-131.655 313.069,-140.078 316.919,-134.231"/>
</g>
<!-- Node12 -->
<g id="node12" class="node"><title>Node12</title>
<polygon fill="none" stroke="#bfbfbf" points="390.5,-112.5 390.5,-131.5 446.5,-131.5 446.5,-112.5 390.5,-112.5"/>
<text text-anchor="middle" x="418.5" y="-119.5" font-family="Helvetica,sans-Serif" font-size="10.00">TString.h</text>
</g>
<!-- Node2&#45;&gt;Node12 -->
<g id="edge17" class="edge"><title>Node2&#45;&gt;Node12</title>
<path fill="none" stroke="midnightblue" d="M382.601,-168.083C388.737,-160.377 397.77,-149.033 405.239,-139.653"/>
<polygon fill="midnightblue" stroke="midnightblue" points="408.04,-141.754 411.532,-131.751 402.564,-137.394 408.04,-141.754"/>
</g>
<!-- Node4 -->
<g id="node4" class="node"><title>Node4</title>
<polygon fill="none" stroke="#bfbfbf" points="443,-0.5 443,-19.5 484,-19.5 484,-0.5 443,-0.5"/>
<text text-anchor="middle" x="463.5" y="-7.5" font-family="Helvetica,sans-Serif" font-size="10.00">string</text>
</g>
<!-- Node3&#45;&gt;Node4 -->
<g id="edge3" class="edge"><title>Node3&#45;&gt;Node4</title>
<path fill="none" stroke="midnightblue" d="M362.71,-112.496C429.348,-103.597 521.618,-89.1221 532.5,-76 549.154,-55.9171 518.721,-35.7808 493.133,-23.3587"/>
<polygon fill="midnightblue" stroke="midnightblue" points="494.567,-20.1657 484.021,-19.1456 491.629,-26.5194 494.567,-20.1657"/>
</g>
<!-- Node5 -->
<g id="node5" class="node"><title>Node5</title>
<polygon fill="none" stroke="#bfbfbf" points="217,-0.5 217,-19.5 252,-19.5 252,-0.5 217,-0.5"/>
<text text-anchor="middle" x="234.5" y="-7.5" font-family="Helvetica,sans-Serif" font-size="10.00">map</text>
</g>
<!-- Node3&#45;&gt;Node5 -->
<g id="edge4" class="edge"><title>Node3&#45;&gt;Node5</title>
<path fill="none" stroke="midnightblue" d="M283.573,-112.296C274.523,-103.856 261.396,-90.2668 253.5,-76 245.494,-61.5347 240.55,-43.3478 237.72,-29.8928"/>
<polygon fill="midnightblue" stroke="midnightblue" points="241.125,-29.0601 235.82,-19.8892 234.248,-30.3668 241.125,-29.0601"/>
</g>
<!-- Node6 -->
<g id="node6" class="node"><title>Node6</title>
<polygon fill="none" stroke="#bfbfbf" points="263,-56.5 263,-75.5 346,-75.5 346,-56.5 263,-56.5"/>
<text text-anchor="middle" x="304.5" y="-63.5" font-family="Helvetica,sans-Serif" font-size="10.00">unordered_map</text>
</g>
<!-- Node3&#45;&gt;Node6 -->
<g id="edge5" class="edge"><title>Node3&#45;&gt;Node6</title>
<path fill="none" stroke="midnightblue" d="M295.316,-112.083C296.774,-104.927 298.871,-94.6353 300.693,-85.6911"/>
<polygon fill="midnightblue" stroke="midnightblue" points="304.151,-86.2485 302.717,-75.7511 297.292,-84.8512 304.151,-86.2485"/>
</g>
<!-- Node7 -->
<g id="node7" class="node"><title>Node7</title>
<polygon fill="none" stroke="#bfbfbf" points="346.5,-0.5 346.5,-19.5 402.5,-19.5 402.5,-0.5 346.5,-0.5"/>
<text text-anchor="middle" x="374.5" y="-7.5" font-family="Helvetica,sans-Serif" font-size="10.00">Rtypes.h</text>
</g>
<!-- Node3&#45;&gt;Node7 -->
<g id="edge6" class="edge"><title>Node3&#45;&gt;Node7</title>
<path fill="none" stroke="midnightblue" d="M310.617,-112.37C324.354,-104.615 343.157,-91.9948 354.5,-76 364.211,-62.3061 369.305,-43.772 371.914,-29.9988"/>
<polygon fill="midnightblue" stroke="midnightblue" points="375.429,-30.1902 373.569,-19.7599 368.518,-29.0735 375.429,-30.1902"/>
</g>
<!-- Node3&#45;&gt;Node8 -->
<g id="edge7" class="edge"><title>Node3&#45;&gt;Node8</title>
<path fill="none" stroke="midnightblue" d="M267.672,-112.444C240.251,-103.359 196.723,-88.9388 166.068,-78.7831"/>
<polygon fill="midnightblue" stroke="midnightblue" points="166.8,-75.3389 156.207,-75.5164 164.599,-81.9837 166.8,-75.3389"/>
</g>
<!-- Node3&#45;&gt;Node11 -->
<g id="edge13" class="edge"><title>Node3&#45;&gt;Node11</title>
<path fill="none" stroke="midnightblue" d="M320.437,-112.444C349.16,-103.32 394.829,-88.8133 426.821,-78.6509"/>
<polygon fill="midnightblue" stroke="midnightblue" points="428.218,-81.8797 436.689,-75.5164 426.099,-75.2081 428.218,-81.8797"/>
</g>
<!-- Node8&#45;&gt;Node4 -->
<g id="edge8" class="edge"><title>Node8&#45;&gt;Node4</title>
<path fill="none" stroke="midnightblue" d="M184.927,-56.4917C241.559,-47.5901 332.794,-33.1127 411.5,-20 418.422,-18.8468 425.857,-17.5779 432.878,-16.366"/>
<polygon fill="midnightblue" stroke="midnightblue" points="433.507,-19.8093 442.761,-14.651 432.31,-12.9123 433.507,-19.8093"/>
</g>
<!-- Node8&#45;&gt;Node5 -->
<g id="edge9" class="edge"><title>Node8&#45;&gt;Node5</title>
<path fill="none" stroke="midnightblue" d="M147.209,-56.324C163.812,-47.7034 189.502,-34.3643 208.72,-24.3855"/>
<polygon fill="midnightblue" stroke="midnightblue" points="210.57,-27.3689 217.832,-19.6545 207.344,-21.1565 210.57,-27.3689"/>
</g>
<!-- Node8&#45;&gt;Node7 -->
<g id="edge10" class="edge"><title>Node8&#45;&gt;Node7</title>
<path fill="none" stroke="midnightblue" d="M169.163,-56.4435C215.012,-46.2966 290.941,-29.4927 336.498,-19.4102"/>
<polygon fill="midnightblue" stroke="midnightblue" points="337.28,-22.822 346.288,-17.2437 335.768,-15.9873 337.28,-22.822"/>
</g>
<!-- Node9 -->
<g id="node9" class="node"><title>Node9</title>
<polygon fill="none" stroke="#bfbfbf" points="0,-0.5 0,-19.5 59,-19.5 59,-0.5 0,-0.5"/>
<text text-anchor="middle" x="29.5" y="-7.5" font-family="Helvetica,sans-Serif" font-size="10.00">TObject.h</text>
</g>
<!-- Node8&#45;&gt;Node9 -->
<g id="edge11" class="edge"><title>Node8&#45;&gt;Node9</title>
<path fill="none" stroke="midnightblue" d="M114.273,-56.324C98.149,-47.7034 73.1998,-34.3643 54.5359,-24.3855"/>
<polygon fill="midnightblue" stroke="midnightblue" points="56.1561,-21.283 45.6871,-19.6545 52.8556,-27.456 56.1561,-21.283"/>
</g>
<!-- Node10 -->
<g id="node10" class="node"><title>Node10</title>
<polygon fill="none" stroke="#bfbfbf" points="77.5,-0.5 77.5,-19.5 193.5,-19.5 193.5,-0.5 77.5,-0.5"/>
<text text-anchor="middle" x="135.5" y="-7.5" font-family="Helvetica,sans-Serif" font-size="10.00">Common/Exceptions.h</text>
</g>
<!-- Node8&#45;&gt;Node10 -->
<g id="edge12" class="edge"><title>Node8&#45;&gt;Node10</title>
<path fill="none" stroke="midnightblue" d="M131.326,-56.083C131.981,-49.0059 132.92,-38.8611 133.742,-29.9865"/>
<polygon fill="midnightblue" stroke="midnightblue" points="137.253,-30.0312 134.69,-19.7511 130.283,-29.3858 137.253,-30.0312"/>
</g>
<!-- Node11&#45;&gt;Node4 -->
<g id="edge15" class="edge"><title>Node11&#45;&gt;Node4</title>
<path fill="none" stroke="midnightblue" d="M463.5,-56.083C463.5,-49.0059 463.5,-38.8611 463.5,-29.9865"/>
<polygon fill="midnightblue" stroke="midnightblue" points="467,-29.751 463.5,-19.7511 460,-29.7511 467,-29.751"/>
</g>
<!-- Node11&#45;&gt;Node5 -->
<g id="edge16" class="edge"><title>Node11&#45;&gt;Node5</title>
<path fill="none" stroke="midnightblue" d="M427.214,-56.4435C381.271,-45.6098 303.147,-27.1874 261.893,-17.4595"/>
<polygon fill="midnightblue" stroke="midnightblue" points="262.54,-14.0161 252.003,-15.1274 260.933,-20.8292 262.54,-14.0161"/>
</g>
<!-- Node11&#45;&gt;Node7 -->
<g id="edge14" class="edge"><title>Node11&#45;&gt;Node7</title>
<path fill="none" stroke="midnightblue" d="M449.201,-56.324C435.317,-47.9002 414.008,-34.9709 397.696,-25.0741"/>
<polygon fill="midnightblue" stroke="midnightblue" points="399.129,-21.8495 388.764,-19.6545 395.498,-27.8341 399.129,-21.8495"/>
</g>
</g>
</svg>
        <g id="navigator" transform="translate(0 0)" fill="#404254">
                <rect fill="#f2f5e9" fill-opacity="0.5" stroke="#606060" stroke-width=".5" x="0" y="0" width="60" height="60"/>
                <use id="zoomplus" xlink:href="#zoomPlus" x="17" y="9" onmousedown="handleZoom(evt,'in')"/>
                <use id="zoomminus" xlink:href="#zoomMin" x="42" y="9" onmousedown="handleZoom(evt,'out')"/>
                <use id="reset" xlink:href="#resetDef" x="30" y="36" onmousedown="handleReset()"/>
                <g id="arrowUp" xlink:href="#dirArrow" transform="translate(30 24)" onmousedown="handlePan(0,-1)">
                  <use xlink:href="#rim" fill="#404040">
                        <set attributeName="fill" to="#808080" begin="arrowUp.mouseover" end="arrowUp.mouseout"/>
                  </use>
                  <path fill="none" stroke="white" stroke-width="1.5" d="M0,-3.0v7 M-2.5,-0.5L0,-3.0L2.5,-0.5"/>
                </g>
                <g id="arrowRight" xlink:href="#dirArrow" transform="rotate(90) translate(36 -43)" onmousedown="handlePan(1,0)">
                  <use xlink:href="#rim" fill="#404040">
                        <set attributeName="fill" to="#808080" begin="arrowRight.mouseover" end="arrowRight.mouseout"/>
                  </use>
                  <path fill="none" stroke="white" stroke-width="1.5" d="M0,-3.0v7 M-2.5,-0.5L0,-3.0L2.5,-0.5"/>
                </g>
                <g id="arrowDown" xlink:href="#dirArrow" transform="rotate(180) translate(-30 -48)" onmousedown="handlePan(0,1)">
                  <use xlink:href="#rim" fill="#404040">
                        <set attributeName="fill" to="#808080" begin="arrowDown.mouseover" end="arrowDown.mouseout"/>
                  </use>
                  <path fill="none" stroke="white" stroke-width="1.5" d="M0,-3.0v7 M-2.5,-0.5L0,-3.0L2.5,-0.5"/>
                </g>
                <g id="arrowLeft" xlink:href="#dirArrow" transform="rotate(270) translate(-36 17)" onmousedown="handlePan(-1,0)">
                  <use xlink:href="#rim" fill="#404040">
                        <set attributeName="fill" to="#808080" begin="arrowLeft.mouseover" end="arrowLeft.mouseout"/>
                  </use>
                  <path fill="none" stroke="white" stroke-width="1.5" d="M0,-3.0v7 M-2.5,-0.5L0,-3.0L2.5,-0.5"/>
                </g>
        </g>
        <svg viewBox="0 0 15 15" width="100%" height="30px" preserveAspectRatio="xMaxYMin meet">
         <g id="arrow_out" transform="scale(0.3 0.3)">
          <a xlink:href="TOFCheckRawsMulti_8cxx__incl_org.svg" target="_base">
           <rect id="button" ry="5" rx="5" y="6" x="6" height="38" width="38"
                fill="#f2f5e9" fill-opacity="0.5" stroke="#606060" stroke-width="1.0"/>
           <path id="arrow"
             d="M 11.500037,31.436501 C 11.940474,20.09759 22.043105,11.32322 32.158766,21.979434 L 37.068811,17.246167 C 37.068811,17.246167 37.088388,32 37.088388,32 L 22.160133,31.978069 C 22.160133,31.978069 26.997745,27.140456 26.997745,27.140456 C 18.528582,18.264221 13.291696,25.230495 11.500037,31.436501 z"
             style="fill:#404040;"/>
          </a>
         </g>
        </svg>
</svg>
