<?xml version="1.0" encoding="UTF-8" standalone="no"?>
<!DOCTYPE svg PUBLIC "-//W3C//DTD SVG 1.1//EN"
 "http://www.w3.org/Graphics/SVG/1.1/DTD/svg11.dtd">
<!-- Generated by graphviz version 2.38.0 (20140413.2041)
 -->
<!-- Title: Modules/TOF/src/TOFCheckRawsToT.cxx Pages: 1 -->
<!--zoomable 263 -->
<svg id="main" version="1.1" xmlns="http://www.w3.org/2000/svg" xmlns:xlink="http://www.w3.org/1999/xlink" xml:space="preserve" onload="init(evt)">
<style type="text/css"><![CDATA[
.edge:hover path { stroke: red; }
.edge:hover polygon { stroke: red; fill: red; }
]]></style>
<script type="text/javascript"><![CDATA[
var edges = document.getElementsByTagName('g');
if (edges && edges.length) {
  for (var i=0;i<edges.length;i++) {
    if (edges[i].id.substr(0,4)=='edge') {
      edges[i].setAttribute('class','edge');
    }
  }
}
]]></script>
        <defs>
                <circle id="rim" cx="0" cy="0" r="7"/>
                <circle id="rim2" cx="0" cy="0" r="3.5"/>
                <g id="zoomPlus">
                        <use xlink:href="#rim" fill="#404040">
                                <set attributeName="fill" to="#808080" begin="zoomplus.mouseover" end="zoomplus.mouseout"/>
                        </use>
                        <path d="M-4,0h8M0,-4v8" fill="none" stroke="white" stroke-width="1.5" pointer-events="none"/>
                </g>
                <g id="zoomMin">
                        <use xlink:href="#rim" fill="#404040">
                                <set attributeName="fill" to="#808080" begin="zoomminus.mouseover" end="zoomminus.mouseout"/>
                        </use>
                        <path d="M-4,0h8" fill="none" stroke="white" stroke-width="1.5" pointer-events="none"/>
                </g>
                <g id="dirArrow">
                        <path fill="none" stroke="white" stroke-width="1.5" d="M0,-3.0v7 M-2.5,-0.5L0,-3.0L2.5,-0.5"/>
                </g>
               <g id="resetDef">
                       <use xlink:href="#rim2" fill="#404040">
                               <set attributeName="fill" to="#808080" begin="reset.mouseover" end="reset.mouseout"/>
                       </use>
               </g>
        </defs>

<script type="text/javascript">
var viewWidth = 631;
var viewHeight = 263;
var sectionId = 'dynsection-0';
</script>
<script xlink:href="svgpan.js"/>
<svg id="graph" class="graph">
<g id="viewport">
<title>Modules/TOF/src/TOFCheckRawsToT.cxx</title>
<!-- Node1 -->
<g id="node1" class="node"><title>Node1</title>
<polygon fill="#bfbfbf" stroke="black" points="373.355,-224.5 373.355,-254.5 516.355,-254.5 516.355,-224.5 373.355,-224.5"/>
<text text-anchor="start" x="381.355" y="-242.5" font-family="Helvetica,sans-Serif" font-size="10.00">Modules/TOF/src/TOFCheck</text>
<text text-anchor="middle" x="444.855" y="-231.5" font-family="Helvetica,sans-Serif" font-size="10.00">RawsToT.cxx</text>
</g>
<!-- Node2 -->
<g id="node2" class="node"><title>Node2</title>
<g id="a_node2"><a xlink:href="TOFCheckRawsToT_8h.html" target="_top" xlink:title="TOF/TOFCheckRawsToT.h">
<polygon fill="none" stroke="black" points="151.855,-168.5 151.855,-187.5 289.855,-187.5 289.855,-168.5 151.855,-168.5"/>
<text text-anchor="middle" x="220.855" y="-175.5" font-family="Helvetica,sans-Serif" font-size="10.00">TOF/TOFCheckRawsToT.h</text>
</a>
</g>
</g>
<!-- Node1&#45;&gt;Node2 -->
<g id="edge1" class="edge"><title>Node1&#45;&gt;Node2</title>
<path fill="none" stroke="midnightblue" d="M392.054,-224.475C352.566,-213.986 299.299,-199.837 262.727,-190.122"/>
<polygon fill="midnightblue" stroke="midnightblue" points="263.442,-186.691 252.879,-187.506 261.645,-193.456 263.442,-186.691"/>
</g>
<!-- Node12 -->
<g id="node12" class="node"><title>Node12</title>
<polygon fill="none" stroke="#bfbfbf" points="308.355,-168.5 308.355,-187.5 405.355,-187.5 405.355,-168.5 308.355,-168.5"/>
<text text-anchor="middle" x="356.855" y="-175.5" font-family="Helvetica,sans-Serif" font-size="10.00">fairlogger/Logger.h</text>
</g>
<!-- Node1&#45;&gt;Node12 -->
<g id="edge19" class="edge"><title>Node1&#45;&gt;Node12</title>
<path fill="none" stroke="midnightblue" d="M424,-224.399C410.158,-215.04 392.044,-202.792 378.119,-193.377"/>
<polygon fill="midnightblue" stroke="midnightblue" points="379.904,-190.36 369.66,-187.658 375.984,-196.158 379.904,-190.36"/>
</g>
<!-- Node13 -->
<g id="node13" class="node"><title>Node13</title>
<polygon fill="none" stroke="#bfbfbf" points="422.855,-168.5 422.855,-187.5 466.855,-187.5 466.855,-168.5 422.855,-168.5"/>
<text text-anchor="middle" x="444.855" y="-175.5" font-family="Helvetica,sans-Serif" font-size="10.00">TH1.h</text>
</g>
<!-- Node1&#45;&gt;Node13 -->
<g id="edge20" class="edge"><title>Node1&#45;&gt;Node13</title>
<path fill="none" stroke="midnightblue" d="M444.855,-224.399C444.855,-216.466 444.855,-206.458 444.855,-197.858"/>
<polygon fill="midnightblue" stroke="midnightblue" points="448.355,-197.658 444.855,-187.658 441.355,-197.658 448.355,-197.658"/>
</g>
<!-- Node14 -->
<g id="node14" class="node"><title>Node14</title>
<polygon fill="none" stroke="#bfbfbf" points="485.355,-168.5 485.355,-187.5 532.355,-187.5 532.355,-168.5 485.355,-168.5"/>
<text text-anchor="middle" x="508.855" y="-175.5" font-family="Helvetica,sans-Serif" font-size="10.00">TList.h</text>
</g>
<!-- Node1&#45;&gt;Node14 -->
<g id="edge21" class="edge"><title>Node1&#45;&gt;Node14</title>
<path fill="none" stroke="midnightblue" d="M460.022,-224.399C469.61,-215.486 482.016,-203.952 491.924,-194.741"/>
<polygon fill="midnightblue" stroke="midnightblue" points="494.602,-197.03 499.543,-187.658 489.836,-191.903 494.602,-197.03"/>
</g>
<!-- Node15 -->
<g id="node15" class="node"><title>Node15</title>
<polygon fill="none" stroke="#bfbfbf" points="550.355,-168.5 550.355,-187.5 623.355,-187.5 623.355,-168.5 550.355,-168.5"/>
<text text-anchor="middle" x="586.855" y="-175.5" font-family="Helvetica,sans-Serif" font-size="10.00">TPaveText.h</text>
</g>
<!-- Node1&#45;&gt;Node15 -->
<g id="edge22" class="edge"><title>Node1&#45;&gt;Node15</title>
<path fill="none" stroke="midnightblue" d="M478.507,-224.399C502.332,-214.416 534.001,-201.147 556.943,-191.534"/>
<polygon fill="midnightblue" stroke="midnightblue" points="558.322,-194.751 566.193,-187.658 555.617,-188.294 558.322,-194.751"/>
</g>
<!-- Node3 -->
<g id="node3" class="node"><title>Node3</title>
<g id="a_node3"><a xlink:href="CheckInterface_8h.html" target="_top" xlink:title="QualityControl/CheckInterface.h">
<polygon fill="none" stroke="black" points="142.355,-112.5 142.355,-131.5 299.355,-131.5 299.355,-112.5 142.355,-112.5"/>
<text text-anchor="middle" x="220.855" y="-119.5" font-family="Helvetica,sans-Serif" font-size="10.00">QualityControl/CheckInterface.h</text>
</a>
</g>
</g>
<!-- Node2&#45;&gt;Node3 -->
<g id="edge2" class="edge"><title>Node2&#45;&gt;Node3</title>
<path fill="none" stroke="midnightblue" d="M220.855,-168.083C220.855,-161.006 220.855,-150.861 220.855,-141.986"/>
<polygon fill="midnightblue" stroke="midnightblue" points="224.355,-141.751 220.855,-131.751 217.355,-141.751 224.355,-141.751"/>
</g>
<!-- Node8 -->
<g id="node8" class="node"><title>Node8</title>
<g id="a_node8"><a xlink:href="MonitorObject_8h.html" target="_top" xlink:title="QualityControl/MonitorObject.h">
<polygon fill="none" stroke="black" points="331.355,-56.5 331.355,-75.5 482.355,-75.5 482.355,-56.5 331.355,-56.5"/>
<text text-anchor="middle" x="406.855" y="-63.5" font-family="Helvetica,sans-Serif" font-size="10.00">QualityControl/MonitorObject.h</text>
</a>
</g>
</g>
<!-- Node2&#45;&gt;Node8 -->
<g id="edge17" class="edge"><title>Node2&#45;&gt;Node8</title>
<path fill="none" stroke="midnightblue" d="M238.809,-168.393C256.607,-159.702 284.515,-145.649 307.855,-132 335.714,-115.708 366.627,-94.9593 386.377,-81.3431"/>
<polygon fill="midnightblue" stroke="midnightblue" points="388.391,-84.2054 394.614,-75.6306 384.402,-78.4532 388.391,-84.2054"/>
</g>
<!-- Node11 -->
<g id="node11" class="node"><title>Node11</title>
<g id="a_node11"><a xlink:href="Quality_8h.html" target="_top" xlink:title="QualityControl/Quality.h">
<polygon fill="none" stroke="black" points="14.3551,-56.5 14.3551,-75.5 135.355,-75.5 135.355,-56.5 14.3551,-56.5"/>
<text text-anchor="middle" x="74.8551" y="-63.5" font-family="Helvetica,sans-Serif" font-size="10.00">QualityControl/Quality.h</text>
</a>
</g>
</g>
<!-- Node2&#45;&gt;Node11 -->
<g id="edge18" class="edge"><title>Node2&#45;&gt;Node11</title>
<path fill="none" stroke="midnightblue" d="M198.938,-168.491C180.296,-160.645 153.364,-147.835 132.855,-132 114.982,-118.201 98.2295,-98.3897 87.3692,-84.2719"/>
<polygon fill="midnightblue" stroke="midnightblue" points="89.925,-81.8456 81.1307,-75.937 84.3209,-86.0402 89.925,-81.8456"/>
</g>
<!-- Node4 -->
<g id="node4" class="node"><title>Node4</title>
<polygon fill="none" stroke="#bfbfbf" points="228.355,-0.5 228.355,-19.5 269.355,-19.5 269.355,-0.5 228.355,-0.5"/>
<text text-anchor="middle" x="248.855" y="-7.5" font-family="Helvetica,sans-Serif" font-size="10.00">string</text>
</g>
<!-- Node3&#45;&gt;Node4 -->
<g id="edge3" class="edge"><title>Node3&#45;&gt;Node4</title>
<path fill="none" stroke="midnightblue" d="M227.039,-112.183C232.797,-103.448 241.047,-89.4612 244.855,-76 249.14,-60.8543 249.947,-42.9584 249.792,-29.7828"/>
<polygon fill="midnightblue" stroke="midnightblue" points="253.285,-29.4919 249.472,-19.6072 246.289,-29.7125 253.285,-29.4919"/>
</g>
<!-- Node5 -->
<g id="node5" class="node"><title>Node5</title>
<polygon fill="none" stroke="#bfbfbf" points="287.355,-0.5 287.355,-19.5 322.355,-19.5 322.355,-0.5 287.355,-0.5"/>
<text text-anchor="middle" x="304.855" y="-7.5" font-family="Helvetica,sans-Serif" font-size="10.00">map</text>
</g>
<!-- Node3&#45;&gt;Node5 -->
<g id="edge4" class="edge"><title>Node3&#45;&gt;Node5</title>
<path fill="none" stroke="midnightblue" d="M229.181,-112.332C237.531,-103.481 250.59,-89.2034 260.855,-76 272.97,-60.4175 285.461,-41.6599 294.025,-28.3085"/>
<polygon fill="midnightblue" stroke="midnightblue" points="297.106,-29.9846 299.505,-19.6647 291.194,-26.2365 297.106,-29.9846"/>
</g>
<!-- Node6 -->
<g id="node6" class="node"><title>Node6</title>
<polygon fill="none" stroke="#bfbfbf" points="153.355,-56.5 153.355,-75.5 236.355,-75.5 236.355,-56.5 153.355,-56.5"/>
<text text-anchor="middle" x="194.855" y="-63.5" font-family="Helvetica,sans-Serif" font-size="10.00">unordered_map</text>
</g>
<!-- Node3&#45;&gt;Node6 -->
<g id="edge5" class="edge"><title>Node3&#45;&gt;Node6</title>
<path fill="none" stroke="midnightblue" d="M216.562,-112.083C213.003,-104.691 207.833,-93.9533 203.431,-84.8111"/>
<polygon fill="midnightblue" stroke="midnightblue" points="206.56,-83.2427 199.069,-75.7511 200.253,-86.2795 206.56,-83.2427"/>
</g>
<!-- Node7 -->
<g id="node7" class="node"><title>Node7</title>
<polygon fill="none" stroke="#bfbfbf" points="46.8551,-0.5 46.8551,-19.5 102.855,-19.5 102.855,-0.5 46.8551,-0.5"/>
<text text-anchor="middle" x="74.8551" y="-7.5" font-family="Helvetica,sans-Serif" font-size="10.00">Rtypes.h</text>
</g>
<!-- Node3&#45;&gt;Node7 -->
<g id="edge6" class="edge"><title>Node3&#45;&gt;Node7</title>
<path fill="none" stroke="midnightblue" d="M142.137,-114.89C87.7357,-108.841 22.1643,-97.2869 4.85511,-76 -11.4521,-55.9453 18.044,-36.2167 43.6155,-23.8509"/>
<polygon fill="midnightblue" stroke="midnightblue" points="45.1447,-27 52.7669,-19.6412 42.2193,-20.6406 45.1447,-27"/>
</g>
<!-- Node3&#45;&gt;Node8 -->
<g id="edge7" class="edge"><title>Node3&#45;&gt;Node8</title>
<path fill="none" stroke="midnightblue" d="M250.327,-112.444C282.026,-103.241 332.587,-88.5617 367.63,-78.3879"/>
<polygon fill="midnightblue" stroke="midnightblue" points="368.893,-81.6658 377.521,-75.5164 366.941,-74.9434 368.893,-81.6658"/>
</g>
<!-- Node3&#45;&gt;Node11 -->
<g id="edge13" class="edge"><title>Node3&#45;&gt;Node11</title>
<path fill="none" stroke="midnightblue" d="M197.721,-112.444C173.373,-103.438 134.848,-89.1891 107.432,-79.049"/>
<polygon fill="midnightblue" stroke="midnightblue" points="108.474,-75.7028 97.881,-75.5164 106.046,-82.2681 108.474,-75.7028"/>
</g>
<!-- Node8&#45;&gt;Node4 -->
<g id="edge8" class="edge"><title>Node8&#45;&gt;Node4</title>
<path fill="none" stroke="midnightblue" d="M381.82,-56.4435C353.988,-46.9316 309.041,-31.5697 279.223,-21.3787"/>
<polygon fill="midnightblue" stroke="midnightblue" points="280.331,-18.059 269.737,-18.1368 278.068,-24.6829 280.331,-18.059"/>
</g>
<!-- Node8&#45;&gt;Node5 -->
<g id="edge9" class="edge"><title>Node8&#45;&gt;Node5</title>
<path fill="none" stroke="midnightblue" d="M390.467,-56.324C374.184,-47.7034 348.988,-34.3643 330.139,-24.3855"/>
<polygon fill="midnightblue" stroke="midnightblue" points="331.678,-21.2402 321.203,-19.6545 328.403,-27.4267 331.678,-21.2402"/>
</g>
<!-- Node8&#45;&gt;Node7 -->
<g id="edge10" class="edge"><title>Node8&#45;&gt;Node7</title>
<path fill="none" stroke="midnightblue" d="M354.249,-56.4435C287.152,-45.5302 172.71,-26.9162 113.259,-17.2464"/>
<polygon fill="midnightblue" stroke="midnightblue" points="113.599,-13.7558 103.167,-15.6049 112.475,-20.665 113.599,-13.7558"/>
</g>
<!-- Node9 -->
<g id="node9" class="node"><title>Node9</title>
<polygon fill="none" stroke="#bfbfbf" points="480.355,-0.5 480.355,-19.5 539.355,-19.5 539.355,-0.5 480.355,-0.5"/>
<text text-anchor="middle" x="509.855" y="-7.5" font-family="Helvetica,sans-Serif" font-size="10.00">TObject.h</text>
</g>
<!-- Node8&#45;&gt;Node9 -->
<g id="edge11" class="edge"><title>Node8&#45;&gt;Node9</title>
<path fill="none" stroke="midnightblue" d="M423.404,-56.324C439.847,-47.7034 465.29,-34.3643 484.323,-24.3855"/>
<polygon fill="midnightblue" stroke="midnightblue" points="486.116,-27.3977 493.347,-19.6545 482.866,-21.198 486.116,-27.3977"/>
</g>
<!-- Node10 -->
<g id="node10" class="node"><title>Node10</title>
<polygon fill="none" stroke="#bfbfbf" points="345.855,-0.5 345.855,-19.5 461.855,-19.5 461.855,-0.5 345.855,-0.5"/>
<text text-anchor="middle" x="403.855" y="-7.5" font-family="Helvetica,sans-Serif" font-size="10.00">Common/Exceptions.h</text>
</g>
<!-- Node8&#45;&gt;Node10 -->
<g id="edge12" class="edge"><title>Node8&#45;&gt;Node10</title>
<path fill="none" stroke="midnightblue" d="M406.36,-56.083C405.967,-49.0059 405.403,-38.8611 404.91,-29.9865"/>
<polygon fill="midnightblue" stroke="midnightblue" points="408.391,-29.5415 404.341,-19.7511 401.401,-29.9299 408.391,-29.5415"/>
</g>
<!-- Node11&#45;&gt;Node4 -->
<g id="edge15" class="edge"><title>Node11&#45;&gt;Node4</title>
<path fill="none" stroke="midnightblue" d="M102.426,-56.4435C133.987,-46.6487 185.536,-30.6509 218.297,-20.4836"/>
<polygon fill="midnightblue" stroke="midnightblue" points="219.711,-23.7094 228.225,-17.4026 217.636,-17.0239 219.711,-23.7094"/>
</g>
<!-- Node11&#45;&gt;Node5 -->
<g id="edge16" class="edge"><title>Node11&#45;&gt;Node5</title>
<path fill="none" stroke="midnightblue" d="M119.534,-56.4814C158.705,-48.7037 217.34,-36.3152 277.21,-19.9421"/>
<polygon fill="midnightblue" stroke="midnightblue" points="278.514,-23.2127 287.217,-17.1706 276.646,-16.4666 278.514,-23.2127"/>
</g>
<!-- Node11&#45;&gt;Node7 -->
<g id="edge14" class="edge"><title>Node11&#45;&gt;Node7</title>
<path fill="none" stroke="midnightblue" d="M74.8551,-56.083C74.8551,-49.0059 74.8551,-38.8611 74.8551,-29.9865"/>
<polygon fill="midnightblue" stroke="midnightblue" points="78.3552,-29.751 74.8551,-19.7511 71.3552,-29.7511 78.3552,-29.751"/>
</g>
</g>
</svg>
        <g id="navigator" transform="translate(0 0)" fill="#404254">
                <rect fill="#f2f5e9" fill-opacity="0.5" stroke="#606060" stroke-width=".5" x="0" y="0" width="60" height="60"/>
                <use id="zoomplus" xlink:href="#zoomPlus" x="17" y="9" onmousedown="handleZoom(evt,'in')"/>
                <use id="zoomminus" xlink:href="#zoomMin" x="42" y="9" onmousedown="handleZoom(evt,'out')"/>
                <use id="reset" xlink:href="#resetDef" x="30" y="36" onmousedown="handleReset()"/>
                <g id="arrowUp" xlink:href="#dirArrow" transform="translate(30 24)" onmousedown="handlePan(0,-1)">
                  <use xlink:href="#rim" fill="#404040">
                        <set attributeName="fill" to="#808080" begin="arrowUp.mouseover" end="arrowUp.mouseout"/>
                  </use>
                  <path fill="none" stroke="white" stroke-width="1.5" d="M0,-3.0v7 M-2.5,-0.5L0,-3.0L2.5,-0.5"/>
                </g>
                <g id="arrowRight" xlink:href="#dirArrow" transform="rotate(90) translate(36 -43)" onmousedown="handlePan(1,0)">
                  <use xlink:href="#rim" fill="#404040">
                        <set attributeName="fill" to="#808080" begin="arrowRight.mouseover" end="arrowRight.mouseout"/>
                  </use>
                  <path fill="none" stroke="white" stroke-width="1.5" d="M0,-3.0v7 M-2.5,-0.5L0,-3.0L2.5,-0.5"/>
                </g>
                <g id="arrowDown" xlink:href="#dirArrow" transform="rotate(180) translate(-30 -48)" onmousedown="handlePan(0,1)">
                  <use xlink:href="#rim" fill="#404040">
                        <set attributeName="fill" to="#808080" begin="arrowDown.mouseover" end="arrowDown.mouseout"/>
                  </use>
                  <path fill="none" stroke="white" stroke-width="1.5" d="M0,-3.0v7 M-2.5,-0.5L0,-3.0L2.5,-0.5"/>
                </g>
                <g id="arrowLeft" xlink:href="#dirArrow" transform="rotate(270) translate(-36 17)" onmousedown="handlePan(-1,0)">
                  <use xlink:href="#rim" fill="#404040">
                        <set attributeName="fill" to="#808080" begin="arrowLeft.mouseover" end="arrowLeft.mouseout"/>
                  </use>
                  <path fill="none" stroke="white" stroke-width="1.5" d="M0,-3.0v7 M-2.5,-0.5L0,-3.0L2.5,-0.5"/>
                </g>
        </g>
        <svg viewBox="0 0 15 15" width="100%" height="30px" preserveAspectRatio="xMaxYMin meet">
         <g id="arrow_out" transform="scale(0.3 0.3)">
          <a xlink:href="TOFCheckRawsToT_8cxx__incl_org.svg" target="_base">
           <rect id="button" ry="5" rx="5" y="6" x="6" height="38" width="38"
                fill="#f2f5e9" fill-opacity="0.5" stroke="#606060" stroke-width="1.0"/>
           <path id="arrow"
             d="M 11.500037,31.436501 C 11.940474,20.09759 22.043105,11.32322 32.158766,21.979434 L 37.068811,17.246167 C 37.068811,17.246167 37.088388,32 37.088388,32 L 22.160133,31.978069 C 22.160133,31.978069 26.997745,27.140456 26.997745,27.140456 C 18.528582,18.264221 13.291696,25.230495 11.500037,31.436501 z"
             style="fill:#404040;"/>
          </a>
         </g>
        </svg>
</svg>
