<?xml version="1.0" encoding="UTF-8" standalone="no"?>
<!DOCTYPE svg PUBLIC "-//W3C//DTD SVG 1.1//EN"
 "http://www.w3.org/Graphics/SVG/1.1/DTD/svg11.dtd">
<!-- Generated by graphviz version 2.38.0 (20140413.2041)
 -->
<!-- Title: Modules/TOF/src/TOFCheckDiagnostic.cxx Pages: 1 -->
<svg width="946pt" height="263pt"
 viewBox="0.00 0.00 946.00 263.00" xmlns="http://www.w3.org/2000/svg" xmlns:xlink="http://www.w3.org/1999/xlink">
<g id="graph0" class="graph" transform="scale(1 1) rotate(0) translate(4 259)">
<title>Modules/TOF/src/TOFCheckDiagnostic.cxx</title>
<!-- Node1 -->
<g id="node1" class="node"><title>Node1</title>
<polygon fill="#bfbfbf" stroke="black" points="569,-224.5 569,-254.5 712,-254.5 712,-224.5 569,-224.5"/>
<text text-anchor="start" x="577" y="-242.5" font-family="Helvetica,sans-Serif" font-size="10.00">Modules/TOF/src/TOFCheck</text>
<text text-anchor="middle" x="640.5" y="-231.5" font-family="Helvetica,sans-Serif" font-size="10.00">Diagnostic.cxx</text>
</g>
<!-- Node2 -->
<g id="node2" class="node"><title>Node2</title>
<g id="a_node2"><a xlink:href="TOFCheckDiagnostic_8h.html" target="_top" xlink:title="TOF/TOFCheckDiagnostic.h">
<polygon fill="none" stroke="black" points="288.5,-168.5 288.5,-187.5 430.5,-187.5 430.5,-168.5 288.5,-168.5"/>
<text text-anchor="middle" x="359.5" y="-175.5" font-family="Helvetica,sans-Serif" font-size="10.00">TOF/TOFCheckDiagnostic.h</text>
</a>
</g>
</g>
<!-- Node1&#45;&gt;Node2 -->
<g id="edge1" class="edge"><title>Node1&#45;&gt;Node2</title>
<path fill="none" stroke="midnightblue" d="M574.263,-224.475C523.879,-213.806 455.616,-199.352 409.692,-189.628"/>
<polygon fill="midnightblue" stroke="midnightblue" points="410.181,-186.154 399.673,-187.506 408.731,-193.002 410.181,-186.154"/>
</g>
<!-- Node8 -->
<g id="node8" class="node"><title>Node8</title>
<g id="a_node8"><a xlink:href="MonitorObject_8h.html" target="_top" xlink:title="QualityControl/MonitorObject.h">
<polygon fill="none" stroke="black" points="58,-56.5 58,-75.5 209,-75.5 209,-56.5 58,-56.5"/>
<text text-anchor="middle" x="133.5" y="-63.5" font-family="Helvetica,sans-Serif" font-size="10.00">QualityControl/MonitorObject.h</text>
</a>
</g>
</g>
<!-- Node1&#45;&gt;Node8 -->
<g id="edge19" class="edge"><title>Node1&#45;&gt;Node8</title>
<path fill="none" stroke="midnightblue" d="M568.675,-232.982C478.665,-225.288 330.062,-209.788 279.5,-188 223.029,-163.666 171.239,-110.426 147.363,-83.416"/>
<polygon fill="midnightblue" stroke="midnightblue" points="149.815,-80.902 140.621,-75.638 144.526,-85.4869 149.815,-80.902"/>
</g>
<!-- Node11 -->
<g id="node11" class="node"><title>Node11</title>
<g id="a_node11"><a xlink:href="Quality_8h.html" target="_top" xlink:title="QualityControl/Quality.h">
<polygon fill="none" stroke="black" points="444,-56.5 444,-75.5 565,-75.5 565,-56.5 444,-56.5"/>
<text text-anchor="middle" x="504.5" y="-63.5" font-family="Helvetica,sans-Serif" font-size="10.00">QualityControl/Quality.h</text>
</a>
</g>
</g>
<!-- Node1&#45;&gt;Node11 -->
<g id="edge20" class="edge"><title>Node1&#45;&gt;Node11</title>
<path fill="none" stroke="midnightblue" d="M568.844,-229.889C542.95,-222.923 516.242,-210.413 500.5,-188 478.936,-157.298 489.389,-110.583 497.693,-85.1127"/>
<polygon fill="midnightblue" stroke="midnightblue" points="501.021,-86.2008 501.022,-75.606 494.414,-83.8878 501.021,-86.2008"/>
</g>
<!-- Node12 -->
<g id="node12" class="node"><title>Node12</title>
<g id="a_node12"><a xlink:href="QcInfoLogger_8h.html" target="_top" xlink:title="QualityControl/QcInfoLogger.h">
<polygon fill="none" stroke="black" points="509,-168.5 509,-187.5 658,-187.5 658,-168.5 509,-168.5"/>
<text text-anchor="middle" x="583.5" y="-175.5" font-family="Helvetica,sans-Serif" font-size="10.00">QualityControl/QcInfoLogger.h</text>
</a>
</g>
</g>
<!-- Node1&#45;&gt;Node12 -->
<g id="edge21" class="edge"><title>Node1&#45;&gt;Node12</title>
<path fill="none" stroke="midnightblue" d="M626.992,-224.399C618.538,-215.575 607.625,-204.183 598.845,-195.018"/>
<polygon fill="midnightblue" stroke="midnightblue" points="601.239,-192.458 591.794,-187.658 596.184,-197.3 601.239,-192.458"/>
</g>
<!-- Node14 -->
<g id="node14" class="node"><title>Node14</title>
<polygon fill="none" stroke="#bfbfbf" points="675.5,-168.5 675.5,-187.5 719.5,-187.5 719.5,-168.5 675.5,-168.5"/>
<text text-anchor="middle" x="697.5" y="-175.5" font-family="Helvetica,sans-Serif" font-size="10.00">TH1.h</text>
</g>
<!-- Node1&#45;&gt;Node14 -->
<g id="edge23" class="edge"><title>Node1&#45;&gt;Node14</title>
<path fill="none" stroke="midnightblue" d="M654.008,-224.399C662.462,-215.575 673.375,-204.183 682.155,-195.018"/>
<polygon fill="midnightblue" stroke="midnightblue" points="684.816,-197.3 689.206,-187.658 679.761,-192.458 684.816,-197.3"/>
</g>
<!-- Node15 -->
<g id="node15" class="node"><title>Node15</title>
<polygon fill="none" stroke="#bfbfbf" points="737.5,-168.5 737.5,-187.5 781.5,-187.5 781.5,-168.5 737.5,-168.5"/>
<text text-anchor="middle" x="759.5" y="-175.5" font-family="Helvetica,sans-Serif" font-size="10.00">TH2.h</text>
</g>
<!-- Node1&#45;&gt;Node15 -->
<g id="edge24" class="edge"><title>Node1&#45;&gt;Node15</title>
<path fill="none" stroke="midnightblue" d="M668.701,-224.399C688.222,-214.639 714.025,-201.737 733.135,-192.183"/>
<polygon fill="midnightblue" stroke="midnightblue" points="734.805,-195.26 742.184,-187.658 731.675,-188.999 734.805,-195.26"/>
</g>
<!-- Node16 -->
<g id="node16" class="node"><title>Node16</title>
<polygon fill="none" stroke="#bfbfbf" points="800,-168.5 800,-187.5 873,-187.5 873,-168.5 800,-168.5"/>
<text text-anchor="middle" x="836.5" y="-175.5" font-family="Helvetica,sans-Serif" font-size="10.00">TPaveText.h</text>
</g>
<!-- Node1&#45;&gt;Node16 -->
<g id="edge25" class="edge"><title>Node1&#45;&gt;Node16</title>
<path fill="none" stroke="midnightblue" d="M686.949,-224.399C720.965,-214.073 766.563,-200.231 798.433,-190.556"/>
<polygon fill="midnightblue" stroke="midnightblue" points="799.714,-193.825 808.266,-187.571 797.681,-187.127 799.714,-193.825"/>
</g>
<!-- Node17 -->
<g id="node17" class="node"><title>Node17</title>
<polygon fill="none" stroke="#bfbfbf" points="891,-168.5 891,-187.5 938,-187.5 938,-168.5 891,-168.5"/>
<text text-anchor="middle" x="914.5" y="-175.5" font-family="Helvetica,sans-Serif" font-size="10.00">TList.h</text>
</g>
<!-- Node1&#45;&gt;Node17 -->
<g id="edge26" class="edge"><title>Node1&#45;&gt;Node17</title>
<path fill="none" stroke="midnightblue" d="M712,-224.915C757.878,-215.888 818.916,-203.305 880.838,-188.295"/>
<polygon fill="midnightblue" stroke="midnightblue" points="881.899,-191.639 890.782,-185.866 880.237,-184.839 881.899,-191.639"/>
</g>
<!-- Node3 -->
<g id="node3" class="node"><title>Node3</title>
<g id="a_node3"><a xlink:href="CheckInterface_8h.html" target="_top" xlink:title="QualityControl/CheckInterface.h">
<polygon fill="none" stroke="black" points="258,-112.5 258,-131.5 415,-131.5 415,-112.5 258,-112.5"/>
<text text-anchor="middle" x="336.5" y="-119.5" font-family="Helvetica,sans-Serif" font-size="10.00">QualityControl/CheckInterface.h</text>
</a>
</g>
</g>
<!-- Node2&#45;&gt;Node3 -->
<g id="edge2" class="edge"><title>Node2&#45;&gt;Node3</title>
<path fill="none" stroke="midnightblue" d="M355.702,-168.083C352.587,-160.77 348.077,-150.181 344.211,-141.103"/>
<polygon fill="midnightblue" stroke="midnightblue" points="347.366,-139.58 340.227,-131.751 340.926,-142.323 347.366,-139.58"/>
</g>
<!-- Node2&#45;&gt;Node8 -->
<g id="edge17" class="edge"><title>Node2&#45;&gt;Node8</title>
<path fill="none" stroke="midnightblue" d="M335.729,-168.384C312.987,-159.904 277.9,-146.195 248.5,-132 215.464,-116.05 178.813,-94.6542 155.963,-80.8459"/>
<polygon fill="midnightblue" stroke="midnightblue" points="157.712,-77.8131 147.35,-75.6046 154.073,-83.7929 157.712,-77.8131"/>
</g>
<!-- Node2&#45;&gt;Node11 -->
<g id="edge18" class="edge"><title>Node2&#45;&gt;Node11</title>
<path fill="none" stroke="midnightblue" d="M372.421,-168.27C385.471,-159.371 406.127,-145.057 423.5,-132 445.39,-115.547 469.816,-95.7386 486.064,-82.3467"/>
<polygon fill="midnightblue" stroke="midnightblue" points="488.709,-84.701 494.182,-75.629 484.246,-79.3082 488.709,-84.701"/>
</g>
<!-- Node4 -->
<g id="node4" class="node"><title>Node4</title>
<polygon fill="none" stroke="#bfbfbf" points="214,-0.5 214,-19.5 255,-19.5 255,-0.5 214,-0.5"/>
<text text-anchor="middle" x="234.5" y="-7.5" font-family="Helvetica,sans-Serif" font-size="10.00">string</text>
</g>
<!-- Node3&#45;&gt;Node4 -->
<g id="edge3" class="edge"><title>Node3&#45;&gt;Node4</title>
<path fill="none" stroke="midnightblue" d="M326.344,-112.434C316.149,-103.663 300.177,-89.446 287.5,-76 272.892,-60.506 257.677,-41.501 247.316,-28.0533"/>
<polygon fill="midnightblue" stroke="midnightblue" points="249.83,-25.5771 240.986,-19.7428 244.261,-29.8187 249.83,-25.5771"/>
</g>
<!-- Node5 -->
<g id="node5" class="node"><title>Node5</title>
<polygon fill="none" stroke="#bfbfbf" points="398,-0.5 398,-19.5 433,-19.5 433,-0.5 398,-0.5"/>
<text text-anchor="middle" x="415.5" y="-7.5" font-family="Helvetica,sans-Serif" font-size="10.00">map</text>
</g>
<!-- Node3&#45;&gt;Node5 -->
<g id="edge4" class="edge"><title>Node3&#45;&gt;Node5</title>
<path fill="none" stroke="midnightblue" d="M352.785,-112.397C366.092,-104.576 384.448,-91.8512 395.5,-76 405.101,-62.2289 410.207,-43.7033 412.849,-29.953"/>
<polygon fill="midnightblue" stroke="midnightblue" points="416.36,-30.1713 414.533,-19.7351 409.453,-29.0326 416.36,-30.1713"/>
</g>
<!-- Node6 -->
<g id="node6" class="node"><title>Node6</title>
<polygon fill="none" stroke="#bfbfbf" points="304,-56.5 304,-75.5 387,-75.5 387,-56.5 304,-56.5"/>
<text text-anchor="middle" x="345.5" y="-63.5" font-family="Helvetica,sans-Serif" font-size="10.00">unordered_map</text>
</g>
<!-- Node3&#45;&gt;Node6 -->
<g id="edge5" class="edge"><title>Node3&#45;&gt;Node6</title>
<path fill="none" stroke="midnightblue" d="M337.986,-112.083C339.179,-104.927 340.894,-94.6353 342.385,-85.6911"/>
<polygon fill="midnightblue" stroke="midnightblue" points="345.85,-86.1904 344.041,-75.7511 338.945,-85.0396 345.85,-86.1904"/>
</g>
<!-- Node7 -->
<g id="node7" class="node"><title>Node7</title>
<polygon fill="none" stroke="#bfbfbf" points="273.5,-0.5 273.5,-19.5 329.5,-19.5 329.5,-0.5 273.5,-0.5"/>
<text text-anchor="middle" x="301.5" y="-7.5" font-family="Helvetica,sans-Serif" font-size="10.00">Rtypes.h</text>
</g>
<!-- Node3&#45;&gt;Node7 -->
<g id="edge6" class="edge"><title>Node3&#45;&gt;Node7</title>
<path fill="none" stroke="midnightblue" d="M324.286,-112.236C314.146,-104.143 300.457,-91.1121 294.5,-76 288.647,-61.151 291.337,-43.0019 294.95,-29.659"/>
<polygon fill="midnightblue" stroke="midnightblue" points="298.401,-30.3479 298.035,-19.7594 291.718,-28.2652 298.401,-30.3479"/>
</g>
<!-- Node3&#45;&gt;Node8 -->
<g id="edge7" class="edge"><title>Node3&#45;&gt;Node8</title>
<path fill="none" stroke="midnightblue" d="M304.334,-112.444C269.441,-103.162 213.607,-88.3093 175.329,-78.127"/>
<polygon fill="midnightblue" stroke="midnightblue" points="176.079,-74.7048 165.515,-75.5164 174.28,-81.4696 176.079,-74.7048"/>
</g>
<!-- Node3&#45;&gt;Node11 -->
<g id="edge13" class="edge"><title>Node3&#45;&gt;Node11</title>
<path fill="none" stroke="midnightblue" d="M363.12,-112.444C391.506,-103.32 436.637,-88.8133 468.253,-78.6509"/>
<polygon fill="midnightblue" stroke="midnightblue" points="469.555,-81.9087 478.004,-75.5164 467.413,-75.2445 469.555,-81.9087"/>
</g>
<!-- Node8&#45;&gt;Node4 -->
<g id="edge8" class="edge"><title>Node8&#45;&gt;Node4</title>
<path fill="none" stroke="midnightblue" d="M149.727,-56.324C165.851,-47.7034 190.8,-34.3643 209.464,-24.3855"/>
<polygon fill="midnightblue" stroke="midnightblue" points="211.144,-27.456 218.313,-19.6545 207.844,-21.283 211.144,-27.456"/>
</g>
<!-- Node8&#45;&gt;Node5 -->
<g id="edge9" class="edge"><title>Node8&#45;&gt;Node5</title>
<path fill="none" stroke="midnightblue" d="M178.184,-56.4435C237.217,-45.1393 339.397,-25.573 388.122,-16.2426"/>
<polygon fill="midnightblue" stroke="midnightblue" points="388.783,-19.6797 397.946,-14.3614 387.466,-12.8046 388.783,-19.6797"/>
</g>
<!-- Node8&#45;&gt;Node7 -->
<g id="edge10" class="edge"><title>Node8&#45;&gt;Node7</title>
<path fill="none" stroke="midnightblue" d="M160.12,-56.4435C188.506,-47.3196 233.637,-32.8133 265.253,-22.6509"/>
<polygon fill="midnightblue" stroke="midnightblue" points="266.555,-25.9087 275.004,-19.5164 264.413,-19.2445 266.555,-25.9087"/>
</g>
<!-- Node9 -->
<g id="node9" class="node"><title>Node9</title>
<polygon fill="none" stroke="#bfbfbf" points="0,-0.5 0,-19.5 59,-19.5 59,-0.5 0,-0.5"/>
<text text-anchor="middle" x="29.5" y="-7.5" font-family="Helvetica,sans-Serif" font-size="10.00">TObject.h</text>
</g>
<!-- Node8&#45;&gt;Node9 -->
<g id="edge11" class="edge"><title>Node8&#45;&gt;Node9</title>
<path fill="none" stroke="midnightblue" d="M116.791,-56.324C100.188,-47.7034 74.4979,-34.3643 55.2795,-24.3855"/>
<polygon fill="midnightblue" stroke="midnightblue" points="56.6558,-21.1565 46.1679,-19.6545 53.43,-27.3689 56.6558,-21.1565"/>
</g>
<!-- Node10 -->
<g id="node10" class="node"><title>Node10</title>
<polygon fill="none" stroke="#bfbfbf" points="77.5,-0.5 77.5,-19.5 193.5,-19.5 193.5,-0.5 77.5,-0.5"/>
<text text-anchor="middle" x="135.5" y="-7.5" font-family="Helvetica,sans-Serif" font-size="10.00">Common/Exceptions.h</text>
</g>
<!-- Node8&#45;&gt;Node10 -->
<g id="edge12" class="edge"><title>Node8&#45;&gt;Node10</title>
<path fill="none" stroke="midnightblue" d="M133.83,-56.083C134.092,-49.0059 134.468,-38.8611 134.797,-29.9865"/>
<polygon fill="midnightblue" stroke="midnightblue" points="138.303,-29.8738 135.176,-19.7511 131.308,-29.6147 138.303,-29.8738"/>
</g>
<!-- Node11&#45;&gt;Node4 -->
<g id="edge15" class="edge"><title>Node11&#45;&gt;Node4</title>
<path fill="none" stroke="midnightblue" d="M449.817,-56.4465C403.138,-48.7605 334.073,-36.4821 264.845,-19.8609"/>
<polygon fill="midnightblue" stroke="midnightblue" points="265.622,-16.4479 255.078,-17.4868 263.969,-23.2498 265.622,-16.4479"/>
</g>
<!-- Node11&#45;&gt;Node5 -->
<g id="edge16" class="edge"><title>Node11&#45;&gt;Node5</title>
<path fill="none" stroke="midnightblue" d="M490.201,-56.324C476.317,-47.9002 455.008,-34.9709 438.696,-25.0741"/>
<polygon fill="midnightblue" stroke="midnightblue" points="440.129,-21.8495 429.764,-19.6545 436.498,-27.8341 440.129,-21.8495"/>
</g>
<!-- Node11&#45;&gt;Node7 -->
<g id="edge14" class="edge"><title>Node11&#45;&gt;Node7</title>
<path fill="none" stroke="midnightblue" d="M472.334,-56.4435C436.209,-46.834 377.64,-31.2539 339.343,-21.0667"/>
<polygon fill="midnightblue" stroke="midnightblue" points="340.157,-17.6614 329.593,-18.473 338.357,-24.4262 340.157,-17.6614"/>
</g>
<!-- Node13 -->
<g id="node13" class="node"><title>Node13</title>
<polygon fill="none" stroke="#bfbfbf" points="518.5,-112.5 518.5,-131.5 648.5,-131.5 648.5,-112.5 518.5,-112.5"/>
<text text-anchor="middle" x="583.5" y="-119.5" font-family="Helvetica,sans-Serif" font-size="10.00">InfoLogger/InfoLogger.hxx</text>
</g>
<!-- Node12&#45;&gt;Node13 -->
<g id="edge22" class="edge"><title>Node12&#45;&gt;Node13</title>
<path fill="none" stroke="midnightblue" d="M583.5,-168.083C583.5,-161.006 583.5,-150.861 583.5,-141.986"/>
<polygon fill="midnightblue" stroke="midnightblue" points="587,-141.751 583.5,-131.751 580,-141.751 587,-141.751"/>
</g>
</g>
</svg>
