<?xml version="1.0" encoding="UTF-8" standalone="no"?>
<!DOCTYPE svg PUBLIC "-//W3C//DTD SVG 1.1//EN"
 "http://www.w3.org/Graphics/SVG/1.1/DTD/svg11.dtd">
<!-- Generated by graphviz version 2.38.0 (20140413.2041)
 -->
<!-- Title: Framework/src/TrendingTask.cxx Pages: 1 -->
<!--zoomable 296 -->
<svg id="main" version="1.1" xmlns="http://www.w3.org/2000/svg" xmlns:xlink="http://www.w3.org/1999/xlink" xml:space="preserve" onload="init(evt)">
<style type="text/css"><![CDATA[
.edge:hover path { stroke: red; }
.edge:hover polygon { stroke: red; fill: red; }
]]></style>
<script type="text/javascript"><![CDATA[
var edges = document.getElementsByTagName('g');
if (edges && edges.length) {
  for (var i=0;i<edges.length;i++) {
    if (edges[i].id.substr(0,4)=='edge') {
      edges[i].setAttribute('class','edge');
    }
  }
}
]]></script>
        <defs>
                <circle id="rim" cx="0" cy="0" r="7"/>
                <circle id="rim2" cx="0" cy="0" r="3.5"/>
                <g id="zoomPlus">
                        <use xlink:href="#rim" fill="#404040">
                                <set attributeName="fill" to="#808080" begin="zoomplus.mouseover" end="zoomplus.mouseout"/>
                        </use>
                        <path d="M-4,0h8M0,-4v8" fill="none" stroke="white" stroke-width="1.5" pointer-events="none"/>
                </g>
                <g id="zoomMin">
                        <use xlink:href="#rim" fill="#404040">
                                <set attributeName="fill" to="#808080" begin="zoomminus.mouseover" end="zoomminus.mouseout"/>
                        </use>
                        <path d="M-4,0h8" fill="none" stroke="white" stroke-width="1.5" pointer-events="none"/>
                </g>
                <g id="dirArrow">
                        <path fill="none" stroke="white" stroke-width="1.5" d="M0,-3.0v7 M-2.5,-0.5L0,-3.0L2.5,-0.5"/>
                </g>
               <g id="resetDef">
                       <use xlink:href="#rim2" fill="#404040">
                               <set attributeName="fill" to="#808080" begin="reset.mouseover" end="reset.mouseout"/>
                       </use>
               </g>
        </defs>

<script type="text/javascript">
var viewWidth = 1746;
var viewHeight = 296;
var sectionId = 'dynsection-0';
</script>
<script xlink:href="svgpan.js"/>
<svg id="graph" class="graph">
<g id="viewport">
<title>Framework/src/TrendingTask.cxx</title>
<!-- Node1 -->
<g id="node1" class="node"><title>Node1</title>
<polygon fill="#bfbfbf" stroke="black" points="1188.5,-268.5 1188.5,-287.5 1351.5,-287.5 1351.5,-268.5 1188.5,-268.5"/>
<text text-anchor="middle" x="1270" y="-275.5" font-family="Helvetica,sans-Serif" font-size="10.00">Framework/src/TrendingTask.cxx</text>
</g>
<!-- Node2 -->
<g id="node2" class="node"><title>Node2</title>
<g id="a_node2"><a xlink:href="TrendingTask_8h.html" target="_top" xlink:title="QualityControl/TrendingTask.h">
<polygon fill="none" stroke="black" points="265.5,-207 265.5,-226 414.5,-226 414.5,-207 265.5,-207"/>
<text text-anchor="middle" x="340" y="-214" font-family="Helvetica,sans-Serif" font-size="10.00">QualityControl/TrendingTask.h</text>
</a>
</g>
</g>
<!-- Node1&#45;&gt;Node2 -->
<g id="edge1" class="edge"><title>Node1&#45;&gt;Node2</title>
<path fill="none" stroke="midnightblue" d="M1188.28,-272.564C1051,-265 765.399,-248.791 524,-232 491.69,-229.753 456.211,-227.02 425.102,-224.535"/>
<polygon fill="midnightblue" stroke="midnightblue" points="424.978,-221.014 414.73,-223.703 424.418,-227.991 424.978,-221.014"/>
</g>
<!-- Node12 -->
<g id="node12" class="node"><title>Node12</title>
<g id="a_node12"><a xlink:href="Reductor_8h.html" target="_top" xlink:title="QualityControl/Reductor.h">
<polygon fill="none" stroke="black" points="646,-140 646,-159 776,-159 776,-140 646,-140"/>
<text text-anchor="middle" x="711" y="-147" font-family="Helvetica,sans-Serif" font-size="10.00">QualityControl/Reductor.h</text>
</a>
</g>
</g>
<!-- Node1&#45;&gt;Node12 -->
<g id="edge43" class="edge"><title>Node1&#45;&gt;Node12</title>
<path fill="none" stroke="midnightblue" d="M1232.02,-268.405C1133.11,-246.021 867.699,-185.961 758.715,-161.298"/>
<polygon fill="midnightblue" stroke="midnightblue" points="759.193,-157.817 748.667,-159.024 757.648,-164.645 759.193,-157.817"/>
</g>
<!-- Node17 -->
<g id="node17" class="node"><title>Node17</title>
<g id="a_node17"><a xlink:href="QcInfoLogger_8h.html" target="_top" xlink:title="QualityControl/QcInfoLogger.h">
<polygon fill="none" stroke="black" points="1588.5,-140 1588.5,-159 1737.5,-159 1737.5,-140 1588.5,-140"/>
<text text-anchor="middle" x="1663" y="-147" font-family="Helvetica,sans-Serif" font-size="10.00">QualityControl/QcInfoLogger.h</text>
</a>
</g>
</g>
<!-- Node1&#45;&gt;Node17 -->
<g id="edge21" class="edge"><title>Node1&#45;&gt;Node17</title>
<path fill="none" stroke="midnightblue" d="M1274.13,-268.147C1282.27,-251.807 1302.03,-217.115 1330,-201 1427.26,-144.953 1469.14,-182.661 1580,-165 1588.31,-163.677 1597.07,-162.216 1605.66,-160.747"/>
<polygon fill="midnightblue" stroke="midnightblue" points="1606.38,-164.176 1615.64,-159.026 1605.19,-157.278 1606.38,-164.176"/>
</g>
<!-- Node19 -->
<g id="node19" class="node"><title>Node19</title>
<g id="a_node19"><a xlink:href="DatabaseInterface_8h.html" target="_top" xlink:title="QualityControl/DatabaseInterface.h">
<polygon fill="none" stroke="black" points="533,-207 533,-226 703,-226 703,-207 533,-207"/>
<text text-anchor="middle" x="618" y="-214" font-family="Helvetica,sans-Serif" font-size="10.00">QualityControl/DatabaseInterface.h</text>
</a>
</g>
</g>
<!-- Node1&#45;&gt;Node19 -->
<g id="edge23" class="edge"><title>Node1&#45;&gt;Node19</title>
<path fill="none" stroke="midnightblue" d="M1188.41,-269.555C1067.57,-258.526 841.496,-237.896 713.235,-226.191"/>
<polygon fill="midnightblue" stroke="midnightblue" points="713.311,-222.683 703.034,-225.26 712.674,-229.654 713.311,-222.683"/>
</g>
<!-- Node25 -->
<g id="node25" class="node"><title>Node25</title>
<g id="a_node25"><a xlink:href="MonitorObject_8h.html" target="_top" xlink:title="QualityControl/MonitorObject.h">
<polygon fill="none" stroke="black" points="998.5,-140 998.5,-159 1149.5,-159 1149.5,-140 998.5,-140"/>
<text text-anchor="middle" x="1074" y="-147" font-family="Helvetica,sans-Serif" font-size="10.00">QualityControl/MonitorObject.h</text>
</a>
</g>
</g>
<!-- Node1&#45;&gt;Node25 -->
<g id="edge42" class="edge"><title>Node1&#45;&gt;Node25</title>
<path fill="none" stroke="midnightblue" d="M1245.75,-268.478C1224.64,-260.54 1193.66,-247.6 1169,-232 1138.42,-212.655 1107.43,-183.999 1089.5,-166.326"/>
<polygon fill="midnightblue" stroke="midnightblue" points="1091.78,-163.65 1082.23,-159.052 1086.83,-168.599 1091.78,-163.65"/>
</g>
<!-- Node26 -->
<g id="node26" class="node"><title>Node26</title>
<g id="a_node26"><a xlink:href="RootClassFactory_8h.html" target="_top" xlink:title="RootClassFactory.h">
<polygon fill="none" stroke="black" points="1178,-207 1178,-226 1282,-226 1282,-207 1178,-207"/>
<text text-anchor="middle" x="1230" y="-214" font-family="Helvetica,sans-Serif" font-size="10.00">RootClassFactory.h</text>
</a>
</g>
</g>
<!-- Node1&#45;&gt;Node26 -->
<g id="edge44" class="edge"><title>Node1&#45;&gt;Node26</title>
<path fill="none" stroke="midnightblue" d="M1264.27,-268.475C1258.33,-259.638 1248.88,-245.589 1241.41,-234.475"/>
<polygon fill="midnightblue" stroke="midnightblue" points="1244.2,-232.355 1235.72,-226.009 1238.39,-236.261 1244.2,-232.355"/>
</g>
<!-- Node31 -->
<g id="node31" class="node"><title>Node31</title>
<polygon fill="none" stroke="#bfbfbf" points="1338.5,-201.5 1338.5,-231.5 1439.5,-231.5 1439.5,-201.5 1338.5,-201.5"/>
<text text-anchor="start" x="1346.5" y="-219.5" font-family="Helvetica,sans-Serif" font-size="10.00">boost/property_tree</text>
<text text-anchor="middle" x="1389" y="-208.5" font-family="Helvetica,sans-Serif" font-size="10.00">/ptree.hpp</text>
</g>
<!-- Node1&#45;&gt;Node31 -->
<g id="edge52" class="edge"><title>Node1&#45;&gt;Node31</title>
<path fill="none" stroke="midnightblue" d="M1287.05,-268.475C1303.92,-260.04 1330.29,-246.855 1351.98,-236.008"/>
<polygon fill="midnightblue" stroke="midnightblue" points="1353.58,-239.126 1360.95,-231.523 1350.44,-232.865 1353.58,-239.126"/>
</g>
<!-- Node32 -->
<g id="node32" class="node"><title>Node32</title>
<polygon fill="none" stroke="#bfbfbf" points="1458,-207 1458,-226 1502,-226 1502,-207 1458,-207"/>
<text text-anchor="middle" x="1480" y="-214" font-family="Helvetica,sans-Serif" font-size="10.00">TH1.h</text>
</g>
<!-- Node1&#45;&gt;Node32 -->
<g id="edge53" class="edge"><title>Node1&#45;&gt;Node32</title>
<path fill="none" stroke="midnightblue" d="M1313.73,-268.455C1350.4,-260.71 1403.87,-248.061 1449,-232 1450.62,-231.425 1452.26,-230.795 1453.91,-230.13"/>
<polygon fill="midnightblue" stroke="midnightblue" points="1455.43,-233.286 1463.19,-226.075 1452.63,-226.872 1455.43,-233.286"/>
</g>
<!-- Node33 -->
<g id="node33" class="node"><title>Node33</title>
<polygon fill="none" stroke="#bfbfbf" points="1520.5,-207 1520.5,-226 1585.5,-226 1585.5,-207 1520.5,-207"/>
<text text-anchor="middle" x="1553" y="-214" font-family="Helvetica,sans-Serif" font-size="10.00">TCanvas.h</text>
</g>
<!-- Node1&#45;&gt;Node33 -->
<g id="edge54" class="edge"><title>Node1&#45;&gt;Node33</title>
<path fill="none" stroke="midnightblue" d="M1328.98,-268.484C1378.11,-260.797 1449.69,-248.213 1511,-232 1514.03,-231.198 1517.17,-230.284 1520.28,-229.315"/>
<polygon fill="midnightblue" stroke="midnightblue" points="1521.67,-232.543 1530.08,-226.098 1519.49,-225.892 1521.67,-232.543"/>
</g>
<!-- Node34 -->
<g id="node34" class="node"><title>Node34</title>
<polygon fill="none" stroke="#bfbfbf" points="1603.5,-207 1603.5,-226 1676.5,-226 1676.5,-207 1603.5,-207"/>
<text text-anchor="middle" x="1640" y="-214" font-family="Helvetica,sans-Serif" font-size="10.00">TPaveText.h</text>
</g>
<!-- Node1&#45;&gt;Node34 -->
<g id="edge55" class="edge"><title>Node1&#45;&gt;Node34</title>
<path fill="none" stroke="midnightblue" d="M1351.51,-269.688C1417.68,-262.804 1513.09,-250.717 1595,-232 1598.66,-231.165 1602.44,-230.166 1606.19,-229.088"/>
<polygon fill="midnightblue" stroke="midnightblue" points="1607.39,-232.382 1615.93,-226.11 1605.34,-225.688 1607.39,-232.382"/>
</g>
<!-- Node3 -->
<g id="node3" class="node"><title>Node3</title>
<g id="a_node3"><a xlink:href="PostProcessingInterface_8h.html" target="_top" xlink:title="QualityControl/PostProcessing\lInterface.h">
<polygon fill="none" stroke="black" points="438.5,-134.5 438.5,-164.5 589.5,-164.5 589.5,-134.5 438.5,-134.5"/>
<text text-anchor="start" x="446.5" y="-152.5" font-family="Helvetica,sans-Serif" font-size="10.00">QualityControl/PostProcessing</text>
<text text-anchor="middle" x="514" y="-141.5" font-family="Helvetica,sans-Serif" font-size="10.00">Interface.h</text>
</a>
</g>
</g>
<!-- Node2&#45;&gt;Node3 -->
<g id="edge2" class="edge"><title>Node2&#45;&gt;Node3</title>
<path fill="none" stroke="midnightblue" d="M363.106,-206.869C389.441,-197.031 433.185,-180.689 466.812,-168.128"/>
<polygon fill="midnightblue" stroke="midnightblue" points="468.305,-171.306 476.448,-164.528 465.855,-164.749 468.305,-171.306"/>
</g>
<!-- Node9 -->
<g id="node9" class="node"><title>Node9</title>
<g id="a_node9"><a xlink:href="TrendingTaskConfig_8h.html" target="_top" xlink:title="QualityControl/TrendingTask\lConfig.h">
<polygon fill="none" stroke="black" points="68.5,-134.5 68.5,-164.5 209.5,-164.5 209.5,-134.5 68.5,-134.5"/>
<text text-anchor="start" x="76.5" y="-152.5" font-family="Helvetica,sans-Serif" font-size="10.00">QualityControl/TrendingTask</text>
<text text-anchor="middle" x="139" y="-141.5" font-family="Helvetica,sans-Serif" font-size="10.00">Config.h</text>
</a>
</g>
</g>
<!-- Node2&#45;&gt;Node9 -->
<g id="edge9" class="edge"><title>Node2&#45;&gt;Node9</title>
<path fill="none" stroke="midnightblue" d="M313.309,-206.869C282.495,-196.904 231.051,-180.268 192.016,-167.644"/>
<polygon fill="midnightblue" stroke="midnightblue" points="192.971,-164.275 182.379,-164.528 190.817,-170.935 192.971,-164.275"/>
</g>
<!-- Node2&#45;&gt;Node12 -->
<g id="edge16" class="edge"><title>Node2&#45;&gt;Node12</title>
<path fill="none" stroke="midnightblue" d="M388.883,-206.936C456.818,-195.033 579.607,-173.52 652.378,-160.771"/>
<polygon fill="midnightblue" stroke="midnightblue" points="653.058,-164.205 662.304,-159.032 651.85,-157.31 653.058,-164.205"/>
</g>
<!-- Node14 -->
<g id="node14" class="node"><title>Node14</title>
<polygon fill="none" stroke="#bfbfbf" points="228,-140 228,-159 280,-159 280,-140 228,-140"/>
<text text-anchor="middle" x="254" y="-147" font-family="Helvetica,sans-Serif" font-size="10.00">memory</text>
</g>
<!-- Node2&#45;&gt;Node14 -->
<g id="edge18" class="edge"><title>Node2&#45;&gt;Node14</title>
<path fill="none" stroke="midnightblue" d="M328.402,-206.734C314.346,-196.111 290.449,-178.049 273.534,-165.264"/>
<polygon fill="midnightblue" stroke="midnightblue" points="275.503,-162.365 265.415,-159.127 271.282,-167.949 275.503,-162.365"/>
</g>
<!-- Node15 -->
<g id="node15" class="node"><title>Node15</title>
<polygon fill="none" stroke="#bfbfbf" points="298.5,-140 298.5,-159 381.5,-159 381.5,-140 298.5,-140"/>
<text text-anchor="middle" x="340" y="-147" font-family="Helvetica,sans-Serif" font-size="10.00">unordered_map</text>
</g>
<!-- Node2&#45;&gt;Node15 -->
<g id="edge19" class="edge"><title>Node2&#45;&gt;Node15</title>
<path fill="none" stroke="midnightblue" d="M340,-206.734C340,-197.183 340,-181.618 340,-169.283"/>
<polygon fill="midnightblue" stroke="midnightblue" points="343.5,-169.127 340,-159.127 336.5,-169.127 343.5,-169.127"/>
</g>
<!-- Node16 -->
<g id="node16" class="node"><title>Node16</title>
<polygon fill="none" stroke="#bfbfbf" points="0,-140 0,-159 50,-159 50,-140 0,-140"/>
<text text-anchor="middle" x="25" y="-147" font-family="Helvetica,sans-Serif" font-size="10.00">TTree.h</text>
</g>
<!-- Node2&#45;&gt;Node16 -->
<g id="edge20" class="edge"><title>Node2&#45;&gt;Node16</title>
<path fill="none" stroke="midnightblue" d="M267.051,-206.981C209.703,-199.19 128.217,-185.69 59,-165 56.8519,-164.358 54.6569,-163.621 52.4678,-162.827"/>
<polygon fill="midnightblue" stroke="midnightblue" points="53.6577,-159.534 43.0718,-159.099 51.0762,-166.04 53.6577,-159.534"/>
</g>
<!-- Node4 -->
<g id="node4" class="node"><title>Node4</title>
<polygon fill="none" stroke="#bfbfbf" points="695.5,-6 695.5,-25 736.5,-25 736.5,-6 695.5,-6"/>
<text text-anchor="middle" x="716" y="-13" font-family="Helvetica,sans-Serif" font-size="10.00">string</text>
</g>
<!-- Node3&#45;&gt;Node4 -->
<g id="edge3" class="edge"><title>Node3&#45;&gt;Node4</title>
<path fill="none" stroke="midnightblue" d="M577.391,-134.402C616.373,-124.697 661.699,-111.217 677,-98 696.161,-81.449 706.664,-53.3684 711.809,-34.8777"/>
<polygon fill="midnightblue" stroke="midnightblue" points="715.242,-35.5779 714.298,-25.0253 708.455,-33.8637 715.242,-35.5779"/>
</g>
<!-- Node5 -->
<g id="node5" class="node"><title>Node5</title>
<polygon fill="none" stroke="#bfbfbf" points="379,-73 379,-92 525,-92 525,-73 379,-73"/>
<text text-anchor="middle" x="452" y="-80" font-family="Helvetica,sans-Serif" font-size="10.00">Framework/ServiceRegistry.h</text>
</g>
<!-- Node3&#45;&gt;Node5 -->
<g id="edge4" class="edge"><title>Node3&#45;&gt;Node5</title>
<path fill="none" stroke="midnightblue" d="M500.547,-134.396C490.784,-124.161 477.559,-110.296 467.378,-99.622"/>
<polygon fill="midnightblue" stroke="midnightblue" points="469.728,-97.0149 460.293,-92.1945 464.663,-101.846 469.728,-97.0149"/>
</g>
<!-- Node6 -->
<g id="node6" class="node"><title>Node6</title>
<polygon fill="none" stroke="#bfbfbf" points="229.5,-0.5 229.5,-30.5 330.5,-30.5 330.5,-0.5 229.5,-0.5"/>
<text text-anchor="start" x="237.5" y="-18.5" font-family="Helvetica,sans-Serif" font-size="10.00">boost/property_tree</text>
<text text-anchor="middle" x="280" y="-7.5" font-family="Helvetica,sans-Serif" font-size="10.00">/ptree_fwd.hpp</text>
</g>
<!-- Node3&#45;&gt;Node6 -->
<g id="edge5" class="edge"><title>Node3&#45;&gt;Node6</title>
<path fill="none" stroke="midnightblue" d="M457.699,-134.438C430.116,-126.162 397.096,-114.116 370,-98 342.82,-81.8336 316.588,-56.6256 299.527,-38.5253"/>
<polygon fill="midnightblue" stroke="midnightblue" points="301.719,-35.7396 292.363,-30.7672 296.576,-40.4885 301.719,-35.7396"/>
</g>
<!-- Node7 -->
<g id="node7" class="node"><title>Node7</title>
<g id="a_node7"><a xlink:href="Triggers_8h.html" target="_top" xlink:title="QualityControl/Triggers.h">
<polygon fill="none" stroke="black" points="543.5,-73 543.5,-92 668.5,-92 668.5,-73 543.5,-73"/>
<text text-anchor="middle" x="606" y="-80" font-family="Helvetica,sans-Serif" font-size="10.00">QualityControl/Triggers.h</text>
</a>
</g>
</g>
<!-- Node3&#45;&gt;Node7 -->
<g id="edge6" class="edge"><title>Node3&#45;&gt;Node7</title>
<path fill="none" stroke="midnightblue" d="M533.963,-134.396C549.248,-123.597 570.252,-108.756 585.637,-97.8872"/>
<polygon fill="midnightblue" stroke="midnightblue" points="587.812,-100.636 593.959,-92.007 583.772,-94.9188 587.812,-100.636"/>
</g>
<!-- Node7&#45;&gt;Node4 -->
<g id="edge7" class="edge"><title>Node7&#45;&gt;Node4</title>
<path fill="none" stroke="midnightblue" d="M620.835,-72.7338C639.308,-61.8182 671.072,-43.0487 692.78,-30.2209"/>
<polygon fill="midnightblue" stroke="midnightblue" points="694.571,-33.2279 701.4,-25.1273 691.01,-27.2014 694.571,-33.2279"/>
</g>
<!-- Node8 -->
<g id="node8" class="node"><title>Node8</title>
<polygon fill="none" stroke="#bfbfbf" points="576.5,-6 576.5,-25 635.5,-25 635.5,-6 576.5,-6"/>
<text text-anchor="middle" x="606" y="-13" font-family="Helvetica,sans-Serif" font-size="10.00">functional</text>
</g>
<!-- Node7&#45;&gt;Node8 -->
<g id="edge8" class="edge"><title>Node7&#45;&gt;Node8</title>
<path fill="none" stroke="midnightblue" d="M606,-72.7338C606,-63.1826 606,-47.6183 606,-35.2829"/>
<polygon fill="midnightblue" stroke="midnightblue" points="609.5,-35.1273 606,-25.1273 602.5,-35.1273 609.5,-35.1273"/>
</g>
<!-- Node9&#45;&gt;Node4 -->
<g id="edge11" class="edge"><title>Node9&#45;&gt;Node4</title>
<path fill="none" stroke="midnightblue" d="M184.418,-134.473C215.229,-124.745 256.787,-111.211 293,-98 327.657,-85.3566 334.317,-76.3661 370,-67 488.8,-35.8172 522.837,-51.136 644,-31 657.561,-28.7463 672.47,-25.8191 685.186,-23.1854"/>
<polygon fill="midnightblue" stroke="midnightblue" points="686.209,-26.547 695.274,-21.0634 684.768,-19.6969 686.209,-26.547"/>
</g>
<!-- Node10 -->
<g id="node10" class="node"><title>Node10</title>
<polygon fill="none" stroke="#bfbfbf" points="83,-6 83,-25 127,-25 127,-6 83,-6"/>
<text text-anchor="middle" x="105" y="-13" font-family="Helvetica,sans-Serif" font-size="10.00">vector</text>
</g>
<!-- Node9&#45;&gt;Node10 -->
<g id="edge10" class="edge"><title>Node9&#45;&gt;Node10</title>
<path fill="none" stroke="midnightblue" d="M119.801,-134.454C109.12,-125.397 96.8328,-112.603 91,-98 82.7092,-77.2432 89.6805,-51.5902 96.4168,-34.6732"/>
<polygon fill="midnightblue" stroke="midnightblue" points="99.6746,-35.9577 100.442,-25.3907 93.2525,-33.1727 99.6746,-35.9577"/>
</g>
<!-- Node11 -->
<g id="node11" class="node"><title>Node11</title>
<g id="a_node11"><a xlink:href="PostProcessingConfig_8h.html" target="_top" xlink:title="QualityControl/PostProcessing\lConfig.h">
<polygon fill="none" stroke="black" points="133.5,-67.5 133.5,-97.5 284.5,-97.5 284.5,-67.5 133.5,-67.5"/>
<text text-anchor="start" x="141.5" y="-85.5" font-family="Helvetica,sans-Serif" font-size="10.00">QualityControl/PostProcessing</text>
<text text-anchor="middle" x="209" y="-74.5" font-family="Helvetica,sans-Serif" font-size="10.00">Config.h</text>
</a>
</g>
</g>
<!-- Node9&#45;&gt;Node11 -->
<g id="edge12" class="edge"><title>Node9&#45;&gt;Node11</title>
<path fill="none" stroke="midnightblue" d="M154.189,-134.396C163.545,-125.708 175.718,-114.405 186.215,-104.658"/>
<polygon fill="midnightblue" stroke="midnightblue" points="188.894,-106.946 193.841,-97.5765 184.131,-101.816 188.894,-106.946"/>
</g>
<!-- Node11&#45;&gt;Node4 -->
<g id="edge14" class="edge"><title>Node11&#45;&gt;Node4</title>
<path fill="none" stroke="midnightblue" d="M284.577,-69.0102C289.454,-68.3013 294.293,-67.6242 299,-67 451.828,-46.7313 491.597,-54.2442 644,-31 657.59,-28.9273 672.503,-26.0287 685.215,-23.3674"/>
<polygon fill="midnightblue" stroke="midnightblue" points="686.251,-26.7251 695.298,-21.2111 684.787,-19.8799 686.251,-26.7251"/>
</g>
<!-- Node11&#45;&gt;Node6 -->
<g id="edge15" class="edge"><title>Node11&#45;&gt;Node6</title>
<path fill="none" stroke="midnightblue" d="M224.406,-67.396C233.989,-58.6227 246.485,-47.1827 257.202,-37.3714"/>
<polygon fill="midnightblue" stroke="midnightblue" points="259.612,-39.9106 264.624,-30.5765 254.885,-34.7475 259.612,-39.9106"/>
</g>
<!-- Node11&#45;&gt;Node10 -->
<g id="edge13" class="edge"><title>Node11&#45;&gt;Node10</title>
<path fill="none" stroke="midnightblue" d="M186.434,-67.396C168.993,-56.4956 144.966,-41.4787 127.534,-30.5835"/>
<polygon fill="midnightblue" stroke="midnightblue" points="128.946,-27.339 118.611,-25.007 125.236,-33.275 128.946,-27.339"/>
</g>
<!-- Node13 -->
<g id="node13" class="node"><title>Node13</title>
<polygon fill="none" stroke="#bfbfbf" points="801.5,-73 801.5,-92 860.5,-92 860.5,-73 801.5,-73"/>
<text text-anchor="middle" x="831" y="-80" font-family="Helvetica,sans-Serif" font-size="10.00">TObject.h</text>
</g>
<!-- Node12&#45;&gt;Node13 -->
<g id="edge17" class="edge"><title>Node12&#45;&gt;Node13</title>
<path fill="none" stroke="midnightblue" d="M727.184,-139.734C747.426,-128.769 782.297,-109.881 805.986,-97.0495"/>
<polygon fill="midnightblue" stroke="midnightblue" points="807.947,-99.9677 815.073,-92.1273 804.613,-93.8127 807.947,-99.9677"/>
</g>
<!-- Node18 -->
<g id="node18" class="node"><title>Node18</title>
<polygon fill="none" stroke="#bfbfbf" points="1598,-73 1598,-92 1728,-92 1728,-73 1598,-73"/>
<text text-anchor="middle" x="1663" y="-80" font-family="Helvetica,sans-Serif" font-size="10.00">InfoLogger/InfoLogger.hxx</text>
</g>
<!-- Node17&#45;&gt;Node18 -->
<g id="edge22" class="edge"><title>Node17&#45;&gt;Node18</title>
<path fill="none" stroke="midnightblue" d="M1663,-139.734C1663,-130.183 1663,-114.618 1663,-102.283"/>
<polygon fill="midnightblue" stroke="midnightblue" points="1666.5,-102.127 1663,-92.1273 1659.5,-102.127 1666.5,-102.127"/>
</g>
<!-- Node19&#45;&gt;Node4 -->
<g id="edge24" class="edge"><title>Node19&#45;&gt;Node4</title>
<path fill="none" stroke="midnightblue" d="M617.816,-206.939C617.905,-190.972 620.184,-156.257 637,-134 656.907,-107.651 682.878,-124.924 702,-98 715.093,-79.565 717.375,-52.9648 717.192,-35.2244"/>
<polygon fill="midnightblue" stroke="midnightblue" points="720.682,-34.8808 716.805,-25.0207 713.687,-35.1461 720.682,-34.8808"/>
</g>
<!-- Node19&#45;&gt;Node10 -->
<g id="edge26" class="edge"><title>Node19&#45;&gt;Node10</title>
<path fill="none" stroke="midnightblue" d="M562.911,-206.959C524.014,-199.478 471.472,-186.379 429,-165 409.222,-155.044 410.368,-142.685 390,-134 280.26,-87.206 212.249,-178.279 124,-98 106.652,-82.2193 103.627,-53.9376 103.76,-35.1931"/>
<polygon fill="midnightblue" stroke="midnightblue" points="107.258,-35.3122 104.135,-25.1882 100.263,-35.0502 107.258,-35.3122"/>
</g>
<!-- Node19&#45;&gt;Node14 -->
<g id="edge25" class="edge"><title>Node19&#45;&gt;Node14</title>
<path fill="none" stroke="midnightblue" d="M532.977,-208.12C465.838,-200.942 370.255,-187.71 289,-165 286.561,-164.318 284.064,-163.514 281.582,-162.639"/>
<polygon fill="midnightblue" stroke="midnightblue" points="282.823,-159.366 272.234,-159.025 280.299,-165.895 282.823,-159.366"/>
</g>
<!-- Node19&#45;&gt;Node15 -->
<g id="edge27" class="edge"><title>Node19&#45;&gt;Node15</title>
<path fill="none" stroke="midnightblue" d="M579.018,-207C534.621,-197.234 459.948,-180.549 396,-165 391.543,-163.916 386.894,-162.758 382.263,-161.586"/>
<polygon fill="midnightblue" stroke="midnightblue" points="382.792,-158.108 372.237,-159.021 381.058,-164.89 382.792,-158.108"/>
</g>
<!-- Node20 -->
<g id="node20" class="node"><title>Node20</title>
<g id="a_node20"><a xlink:href="QualityObject_8h_source.html" target="_top" xlink:title="QualityControl/QualityObject.h">
<polygon fill="none" stroke="black" points="831.5,-140 831.5,-159 980.5,-159 980.5,-140 831.5,-140"/>
<text text-anchor="middle" x="906" y="-147" font-family="Helvetica,sans-Serif" font-size="10.00">QualityControl/QualityObject.h</text>
</a>
</g>
</g>
<!-- Node19&#45;&gt;Node20 -->
<g id="edge28" class="edge"><title>Node19&#45;&gt;Node20</title>
<path fill="none" stroke="midnightblue" d="M655.947,-206.936C707.964,-195.196 801.411,-174.105 858.161,-161.297"/>
<polygon fill="midnightblue" stroke="midnightblue" points="858.985,-164.699 867.969,-159.083 857.444,-157.871 858.985,-164.699"/>
</g>
<!-- Node19&#45;&gt;Node25 -->
<g id="edge36" class="edge"><title>Node19&#45;&gt;Node25</title>
<path fill="none" stroke="midnightblue" d="M685.798,-206.968C760.255,-197.435 883.304,-181.204 989,-165 997.601,-163.681 1006.68,-162.214 1015.57,-160.734"/>
<polygon fill="midnightblue" stroke="midnightblue" points="1016.22,-164.174 1025.5,-159.064 1015.06,-157.271 1016.22,-164.174"/>
</g>
<!-- Node20&#45;&gt;Node13 -->
<g id="edge30" class="edge"><title>Node20&#45;&gt;Node13</title>
<path fill="none" stroke="midnightblue" d="M895.885,-139.734C883.852,-129.305 863.549,-111.709 848.854,-98.9732"/>
<polygon fill="midnightblue" stroke="midnightblue" points="850.804,-96.0317 840.955,-92.1273 846.219,-101.322 850.804,-96.0317"/>
</g>
<!-- Node21 -->
<g id="node21" class="node"><title>Node21</title>
<polygon fill="none" stroke="#bfbfbf" points="1049.5,-6 1049.5,-25 1084.5,-25 1084.5,-6 1049.5,-6"/>
<text text-anchor="middle" x="1067" y="-13" font-family="Helvetica,sans-Serif" font-size="10.00">map</text>
</g>
<!-- Node20&#45;&gt;Node21 -->
<g id="edge29" class="edge"><title>Node20&#45;&gt;Node21</title>
<path fill="none" stroke="midnightblue" d="M967.547,-139.986C995.425,-133.083 1026.63,-120.593 1047,-98 1062.44,-80.8774 1066.43,-53.7807 1067.23,-35.584"/>
<polygon fill="midnightblue" stroke="midnightblue" points="1070.74,-35.3911 1067.39,-25.3392 1063.74,-35.285 1070.74,-35.3911"/>
</g>
<!-- Node22 -->
<g id="node22" class="node"><title>Node22</title>
<polygon fill="none" stroke="#bfbfbf" points="1133,-73 1133,-92 1249,-92 1249,-73 1133,-73"/>
<text text-anchor="middle" x="1191" y="-80" font-family="Helvetica,sans-Serif" font-size="10.00">Common/Exceptions.h</text>
</g>
<!-- Node20&#45;&gt;Node22 -->
<g id="edge31" class="edge"><title>Node20&#45;&gt;Node22</title>
<path fill="none" stroke="midnightblue" d="M943.552,-139.936C994.92,-128.22 1087.12,-107.193 1143.31,-94.3768"/>
<polygon fill="midnightblue" stroke="midnightblue" points="1144.39,-97.7195 1153.36,-92.0834 1142.84,-90.8947 1144.39,-97.7195"/>
</g>
<!-- Node23 -->
<g id="node23" class="node"><title>Node23</title>
<g id="a_node23"><a xlink:href="Quality_8h.html" target="_top" xlink:title="QualityControl/Quality.h">
<polygon fill="none" stroke="black" points="917.5,-73 917.5,-92 1038.5,-92 1038.5,-73 917.5,-73"/>
<text text-anchor="middle" x="978" y="-80" font-family="Helvetica,sans-Serif" font-size="10.00">QualityControl/Quality.h</text>
</a>
</g>
</g>
<!-- Node20&#45;&gt;Node23 -->
<g id="edge32" class="edge"><title>Node20&#45;&gt;Node23</title>
<path fill="none" stroke="midnightblue" d="M915.71,-139.734C927.262,-129.305 946.753,-111.709 960.86,-98.9732"/>
<polygon fill="midnightblue" stroke="midnightblue" points="963.366,-101.426 968.444,-92.1273 958.676,-96.2304 963.366,-101.426"/>
</g>
<!-- Node23&#45;&gt;Node4 -->
<g id="edge34" class="edge"><title>Node23&#45;&gt;Node4</title>
<path fill="none" stroke="midnightblue" d="M943.479,-72.9355C891.848,-60.1263 795.349,-36.1858 746.299,-24.0168"/>
<polygon fill="midnightblue" stroke="midnightblue" points="747.134,-20.618 736.585,-21.607 745.448,-27.412 747.134,-20.618"/>
</g>
<!-- Node23&#45;&gt;Node21 -->
<g id="edge35" class="edge"><title>Node23&#45;&gt;Node21</title>
<path fill="none" stroke="midnightblue" d="M990.003,-72.7338C1004.55,-62.1106 1029.28,-44.0485 1046.78,-31.2642"/>
<polygon fill="midnightblue" stroke="midnightblue" points="1049.18,-33.8517 1055.19,-25.1273 1045.05,-28.1988 1049.18,-33.8517"/>
</g>
<!-- Node24 -->
<g id="node24" class="node"><title>Node24</title>
<polygon fill="none" stroke="#bfbfbf" points="1176,-6 1176,-25 1232,-25 1232,-6 1176,-6"/>
<text text-anchor="middle" x="1204" y="-13" font-family="Helvetica,sans-Serif" font-size="10.00">Rtypes.h</text>
</g>
<!-- Node23&#45;&gt;Node24 -->
<g id="edge33" class="edge"><title>Node23&#45;&gt;Node24</title>
<path fill="none" stroke="midnightblue" d="M1008.01,-72.8685C1048.78,-61.1425 1121.67,-40.1779 1166.15,-27.3857"/>
<polygon fill="midnightblue" stroke="midnightblue" points="1167.36,-30.6811 1176,-24.5533 1165.42,-23.9538 1167.36,-30.6811"/>
</g>
<!-- Node25&#45;&gt;Node4 -->
<g id="edge37" class="edge"><title>Node25&#45;&gt;Node4</title>
<path fill="none" stroke="midnightblue" d="M1030.31,-139.946C995.789,-132.087 947.073,-118.514 908,-98 888.396,-87.7073 888.482,-77.5222 869,-67 829.198,-45.5033 778.627,-31.0135 746.775,-23.2564"/>
<polygon fill="midnightblue" stroke="midnightblue" points="747.271,-19.7771 736.734,-20.8834 745.661,-26.5895 747.271,-19.7771"/>
</g>
<!-- Node25&#45;&gt;Node13 -->
<g id="edge40" class="edge"><title>Node25&#45;&gt;Node13</title>
<path fill="none" stroke="midnightblue" d="M1037.11,-139.955C997.008,-130.475 931.123,-114.347 875,-98 872.008,-97.1284 868.913,-96.1885 865.816,-95.2208"/>
<polygon fill="midnightblue" stroke="midnightblue" points="866.626,-91.8053 856.035,-92.0855 864.489,-98.4711 866.626,-91.8053"/>
</g>
<!-- Node25&#45;&gt;Node21 -->
<g id="edge38" class="edge"><title>Node25&#45;&gt;Node21</title>
<path fill="none" stroke="midnightblue" d="M1075.98,-139.903C1079.14,-125.008 1084.6,-93.4549 1081,-67 1079.52,-56.1271 1076.33,-44.2901 1073.36,-34.8109"/>
<polygon fill="midnightblue" stroke="midnightblue" points="1076.68,-33.6855 1070.22,-25.2874 1070.03,-35.8806 1076.68,-33.6855"/>
</g>
<!-- Node25&#45;&gt;Node22 -->
<g id="edge41" class="edge"><title>Node25&#45;&gt;Node22</title>
<path fill="none" stroke="midnightblue" d="M1089.78,-139.734C1109.51,-128.769 1143.51,-109.881 1166.61,-97.0495"/>
<polygon fill="midnightblue" stroke="midnightblue" points="1168.43,-100.043 1175.47,-92.1273 1165.03,-93.9242 1168.43,-100.043"/>
</g>
<!-- Node25&#45;&gt;Node24 -->
<g id="edge39" class="edge"><title>Node25&#45;&gt;Node24</title>
<path fill="none" stroke="midnightblue" d="M1114.97,-139.993C1166.46,-128.891 1249.21,-109.524 1258,-98 1275.17,-75.4799 1247.02,-47.6945 1225.33,-31.0737"/>
<polygon fill="midnightblue" stroke="midnightblue" points="1227.29,-28.1712 1217.16,-25.0834 1223.15,-33.8175 1227.29,-28.1712"/>
</g>
<!-- Node26&#45;&gt;Node4 -->
<g id="edge45" class="edge"><title>Node26&#45;&gt;Node4</title>
<path fill="none" stroke="midnightblue" d="M1177.83,-211.394C1074.68,-202.937 852.012,-182.868 822,-165 795.256,-149.078 747.106,-70.0879 726.176,-34.244"/>
<polygon fill="midnightblue" stroke="midnightblue" points="729.075,-32.2662 721.034,-25.3666 723.017,-35.7742 729.075,-32.2662"/>
</g>
<!-- Node26&#45;&gt;Node17 -->
<g id="edge51" class="edge"><title>Node26&#45;&gt;Node17</title>
<path fill="none" stroke="midnightblue" d="M1266.19,-206.932C1275.85,-204.817 1286.29,-202.679 1296,-201 1421.37,-179.327 1454.19,-183.953 1580,-165 1588.62,-163.702 1597.72,-162.222 1606.61,-160.717"/>
<polygon fill="midnightblue" stroke="midnightblue" points="1607.27,-164.156 1616.53,-159.014 1606.08,-157.257 1607.27,-164.156"/>
</g>
<!-- Node26&#45;&gt;Node22 -->
<g id="edge46" class="edge"><title>Node26&#45;&gt;Node22</title>
<path fill="none" stroke="midnightblue" d="M1234.28,-206.556C1241.03,-191.137 1252.35,-158.815 1242,-134 1235.96,-119.521 1223.53,-107.068 1212.45,-98.1517"/>
<polygon fill="midnightblue" stroke="midnightblue" points="1214.46,-95.2832 1204.37,-92.0473 1210.24,-100.868 1214.46,-95.2832"/>
</g>
<!-- Node27 -->
<g id="node27" class="node"><title>Node27</title>
<polygon fill="none" stroke="#bfbfbf" points="1437,-140 1437,-159 1493,-159 1493,-140 1437,-140"/>
<text text-anchor="middle" x="1465" y="-147" font-family="Helvetica,sans-Serif" font-size="10.00">TClass.h</text>
</g>
<!-- Node26&#45;&gt;Node27 -->
<g id="edge47" class="edge"><title>Node26&#45;&gt;Node27</title>
<path fill="none" stroke="midnightblue" d="M1269.48,-206.948C1309.74,-197.874 1373.8,-182.457 1428,-165 1430.27,-164.268 1432.61,-163.469 1434.94,-162.635"/>
<polygon fill="midnightblue" stroke="midnightblue" points="1436.28,-165.871 1444.42,-159.086 1433.83,-159.315 1436.28,-165.871"/>
</g>
<!-- Node28 -->
<g id="node28" class="node"><title>Node28</title>
<polygon fill="none" stroke="#bfbfbf" points="1511.5,-140 1511.5,-159 1570.5,-159 1570.5,-140 1511.5,-140"/>
<text text-anchor="middle" x="1541" y="-147" font-family="Helvetica,sans-Serif" font-size="10.00">TROOT.h</text>
</g>
<!-- Node26&#45;&gt;Node28 -->
<g id="edge48" class="edge"><title>Node26&#45;&gt;Node28</title>
<path fill="none" stroke="midnightblue" d="M1267.64,-206.937C1276.89,-204.912 1286.79,-202.815 1296,-201 1387.19,-183.024 1412.29,-189.296 1502,-165 1504.81,-164.239 1507.7,-163.358 1510.58,-162.413"/>
<polygon fill="midnightblue" stroke="midnightblue" points="1511.9,-165.659 1520.18,-159.042 1509.58,-159.054 1511.9,-165.659"/>
</g>
<!-- Node29 -->
<g id="node29" class="node"><title>Node29</title>
<polygon fill="none" stroke="#bfbfbf" points="1167.5,-140 1167.5,-159 1232.5,-159 1232.5,-140 1167.5,-140"/>
<text text-anchor="middle" x="1200" y="-147" font-family="Helvetica,sans-Serif" font-size="10.00">TSystem.h</text>
</g>
<!-- Node26&#45;&gt;Node29 -->
<g id="edge49" class="edge"><title>Node26&#45;&gt;Node29</title>
<path fill="none" stroke="midnightblue" d="M1225.95,-206.734C1221.46,-196.988 1214.07,-180.981 1208.32,-168.532"/>
<polygon fill="midnightblue" stroke="midnightblue" points="1211.35,-166.74 1203.98,-159.127 1204.99,-169.674 1211.35,-166.74"/>
</g>
<!-- Node30 -->
<g id="node30" class="node"><title>Node30</title>
<polygon fill="none" stroke="#bfbfbf" points="1289.5,-140 1289.5,-159 1418.5,-159 1418.5,-140 1289.5,-140"/>
<text text-anchor="middle" x="1354" y="-147" font-family="Helvetica,sans-Serif" font-size="10.00">boost/filesystem/path.hpp</text>
</g>
<!-- Node26&#45;&gt;Node30 -->
<g id="edge50" class="edge"><title>Node26&#45;&gt;Node30</title>
<path fill="none" stroke="midnightblue" d="M1246.47,-206.869C1267.4,-195.893 1303.78,-176.824 1328.36,-163.938"/>
<polygon fill="midnightblue" stroke="midnightblue" points="1330.23,-166.91 1337.47,-159.167 1326.98,-160.71 1330.23,-166.91"/>
</g>
</g>
</svg>
        <g id="navigator" transform="translate(0 0)" fill="#404254">
                <rect fill="#f2f5e9" fill-opacity="0.5" stroke="#606060" stroke-width=".5" x="0" y="0" width="60" height="60"/>
                <use id="zoomplus" xlink:href="#zoomPlus" x="17" y="9" onmousedown="handleZoom(evt,'in')"/>
                <use id="zoomminus" xlink:href="#zoomMin" x="42" y="9" onmousedown="handleZoom(evt,'out')"/>
                <use id="reset" xlink:href="#resetDef" x="30" y="36" onmousedown="handleReset()"/>
                <g id="arrowUp" xlink:href="#dirArrow" transform="translate(30 24)" onmousedown="handlePan(0,-1)">
                  <use xlink:href="#rim" fill="#404040">
                        <set attributeName="fill" to="#808080" begin="arrowUp.mouseover" end="arrowUp.mouseout"/>
                  </use>
                  <path fill="none" stroke="white" stroke-width="1.5" d="M0,-3.0v7 M-2.5,-0.5L0,-3.0L2.5,-0.5"/>
                </g>
                <g id="arrowRight" xlink:href="#dirArrow" transform="rotate(90) translate(36 -43)" onmousedown="handlePan(1,0)">
                  <use xlink:href="#rim" fill="#404040">
                        <set attributeName="fill" to="#808080" begin="arrowRight.mouseover" end="arrowRight.mouseout"/>
                  </use>
                  <path fill="none" stroke="white" stroke-width="1.5" d="M0,-3.0v7 M-2.5,-0.5L0,-3.0L2.5,-0.5"/>
                </g>
                <g id="arrowDown" xlink:href="#dirArrow" transform="rotate(180) translate(-30 -48)" onmousedown="handlePan(0,1)">
                  <use xlink:href="#rim" fill="#404040">
                        <set attributeName="fill" to="#808080" begin="arrowDown.mouseover" end="arrowDown.mouseout"/>
                  </use>
                  <path fill="none" stroke="white" stroke-width="1.5" d="M0,-3.0v7 M-2.5,-0.5L0,-3.0L2.5,-0.5"/>
                </g>
                <g id="arrowLeft" xlink:href="#dirArrow" transform="rotate(270) translate(-36 17)" onmousedown="handlePan(-1,0)">
                  <use xlink:href="#rim" fill="#404040">
                        <set attributeName="fill" to="#808080" begin="arrowLeft.mouseover" end="arrowLeft.mouseout"/>
                  </use>
                  <path fill="none" stroke="white" stroke-width="1.5" d="M0,-3.0v7 M-2.5,-0.5L0,-3.0L2.5,-0.5"/>
                </g>
        </g>
        <svg viewBox="0 0 15 15" width="100%" height="30px" preserveAspectRatio="xMaxYMin meet">
         <g id="arrow_out" transform="scale(0.3 0.3)">
          <a xlink:href="TrendingTask_8cxx__incl_org.svg" target="_base">
           <rect id="button" ry="5" rx="5" y="6" x="6" height="38" width="38"
                fill="#f2f5e9" fill-opacity="0.5" stroke="#606060" stroke-width="1.0"/>
           <path id="arrow"
             d="M 11.500037,31.436501 C 11.940474,20.09759 22.043105,11.32322 32.158766,21.979434 L 37.068811,17.246167 C 37.068811,17.246167 37.088388,32 37.088388,32 L 22.160133,31.978069 C 22.160133,31.978069 26.997745,27.140456 26.997745,27.140456 C 18.528582,18.264221 13.291696,25.230495 11.500037,31.436501 z"
             style="fill:#404040;"/>
          </a>
         </g>
        </svg>
</svg>
